<ttFont>
    <TTGlyph name=".notdef" xMin="51" yMin="247" xMax="151" yMax="363">
      <contour>
        <pt x="51" y="247" on="1"/>
        <pt x="51" y="363" on="1"/>
        <pt x="151" y="363" on="1"/>
        <pt x="151" y="247" on="1"/>
      </contour>
    </TTGlyph>
    <TTGlyph name="A" xMin="4" yMin="0" xMax="533" yMax="700">
      <contour>
        <pt x="425" y="0" on="1"/>
        <pt x="372" y="182" on="1"/>
        <pt x="165" y="182" on="1"/>
        <pt x="112" y="0" on="1"/>
        <pt x="4" y="0" on="1"/>
        <pt x="219" y="700" on="1"/>
        <pt x="319" y="700" on="1"/>
        <pt x="533" y="0" on="1"/>
      </contour>
      <contour>
        <pt x="269" y="543" on="1"/>
        <pt x="200" y="281" on="1"/>
        <pt x="337" y="281" on="1"/>
      </contour>
    </TTGlyph>
    <TTGlyph name="A.sc" xMin="27" yMin="0" xMax="494" yMax="567">
      <contour>
        <pt x="391" y="0" on="1"/>
        <pt x="346" y="138" on="1"/>
        <pt x="175" y="138" on="1"/>
        <pt x="131" y="0" on="1"/>
        <pt x="27" y="0" on="1"/>
        <pt x="213" y="567" on="1"/>
        <pt x="308" y="567" on="1"/>
        <pt x="494" y="0" on="1"/>
      </contour>
      <contour>
        <pt x="259" y="406" on="1"/>
        <pt x="209" y="237" on="1"/>
        <pt x="311" y="237" on="1"/>
      </contour>
    </TTGlyph>
    <TTGlyph name="AE" xMin="-8" yMin="0" xMax="716" yMax="700">
      <contour>
        <pt x="341" y="0" on="1"/>
        <pt x="341" y="176" on="1"/>
        <pt x="171" y="176" on="1"/>
        <pt x="98" y="0" on="1"/>
        <pt x="-8" y="0" on="1"/>
        <pt x="286" y="700" on="1"/>
        <pt x="708" y="700" on="1"/>
        <pt x="708" y="600" on="1"/>
        <pt x="451" y="600" on="1"/>
        <pt x="451" y="415" on="1"/>
        <pt x="649" y="415" on="1"/>
        <pt x="649" y="316" on="1"/>
        <pt x="451" y="316" on="1"/>
        <pt x="451" y="99" on="1"/>
        <pt x="716" y="99" on="1"/>
        <pt x="716" y="0" on="1"/>
      </contour>
      <contour>
        <pt x="341" y="598" on="1"/>
        <pt x="218" y="279" on="1"/>
        <pt x="341" y="279" on="1"/>
      </contour>
    </TTGlyph>
    <TTGlyph name="AE.sc" xMin="17" yMin="0" xMax="652" yMax="567">
      <contour>
        <pt x="324" y="0" on="1"/>
        <pt x="324" y="137" on="1"/>
        <pt x="181" y="137" on="1"/>
        <pt x="121" y="0" on="1"/>
        <pt x="17" y="0" on="1"/>
        <pt x="273" y="567" on="1"/>
        <pt x="645" y="567" on="1"/>
        <pt x="645" y="468" on="1"/>
        <pt x="425" y="468" on="1"/>
        <pt x="425" y="345" on="1"/>
        <pt x="594" y="345" on="1"/>
        <pt x="594" y="246" on="1"/>
        <pt x="425" y="246" on="1"/>
        <pt x="425" y="99" on="1"/>
        <pt x="652" y="99" on="1"/>
        <pt x="652" y="0" on="1"/>
      </contour>
      <contour>
        <pt x="324" y="466" on="1"/>
        <pt x="227" y="237" on="1"/>
        <pt x="324" y="237" on="1"/>
      </contour>
    </TTGlyph>
    <TTGlyph name="Aacute" xMin="4" yMin="0" xMax="533" yMax="945">
      <component glyphName="A" x="0" y="0" flags="0x204"/>
      <component glyphName="acute" x="139" y="207" flags="0x4"/>
    </TTGlyph>
    <TTGlyph name="Acircumflex" xMin="4" yMin="0" xMax="533" yMax="954">
      <component glyphName="A" x="0" y="0" flags="0x204"/>
      <component glyphName="circumflex" x="77" y="207" flags="0x4"/>
    </TTGlyph>
    <TTGlyph name="Adieresis" xMin="4" yMin="0" xMax="533" yMax="907">
      <component glyphName="A" x="0" y="0" flags="0x204"/>
      <component glyphName="dieresis" x="87" y="207" flags="0x4"/>
    </TTGlyph>
    <TTGlyph name="Agrave" xMin="4" yMin="0" xMax="533" yMax="945">
      <component glyphName="A" x="0" y="0" flags="0x204"/>
      <component glyphName="grave" x="139" y="207" flags="0x4"/>
    </TTGlyph>
    <TTGlyph name="Aring" xMin="4" yMin="0" xMax="533" yMax="962">
      <component glyphName="A" x="0" y="0" flags="0x204"/>
      <component glyphName="ring" x="143" y="207" flags="0x4"/>
    </TTGlyph>
    <TTGlyph name="Atilde" xMin="4" yMin="0" xMax="533" yMax="916">
      <component glyphName="A" x="0" y="0" flags="0x204"/>
      <component glyphName="tilde" x="42" y="207" flags="0x4"/>
    </TTGlyph>
    <TTGlyph name="B" xMin="49" yMin="0" xMax="488" yMax="700">
      <contour>
        <pt x="49" y="0" on="1"/>
        <pt x="49" y="700" on="1"/>
        <pt x="205" y="700" on="1"/>
        <pt x="257" y="700" on="0"/>
        <pt x="342" y="687" on="0"/>
        <pt x="402" y="650" on="0"/>
        <pt x="435" y="581" on="0"/>
        <pt x="435" y="525" on="1"/>
        <pt x="435" y="479" on="0"/>
        <pt x="413" y="410" on="0"/>
        <pt x="385" y="373" on="1"/>
        <pt x="438" y="348" on="0"/>
        <pt x="488" y="267" on="0"/>
        <pt x="488" y="207" on="1"/>
        <pt x="488" y="142" on="0"/>
        <pt x="450" y="61" on="0"/>
        <pt x="388" y="16" on="0"/>
        <pt x="312" y="0" on="0"/>
        <pt x="275" y="0" on="1"/>
      </contour>
      <contour>
        <pt x="152" y="607" on="1"/>
        <pt x="152" y="412" on="1"/>
        <pt x="258" y="412" on="1"/>
        <pt x="271" y="412" on="0"/>
        <pt x="299" y="418" on="0"/>
        <pt x="322" y="439" on="0"/>
        <pt x="337" y="479" on="0"/>
        <pt x="337" y="513" on="1"/>
        <pt x="337" y="544" on="0"/>
        <pt x="323" y="581" on="0"/>
        <pt x="299" y="601" on="0"/>
        <pt x="265" y="607" on="0"/>
        <pt x="244" y="607" on="1"/>
      </contour>
      <contour>
        <pt x="152" y="321" on="1"/>
        <pt x="152" y="94" on="1"/>
        <pt x="255" y="94" on="1"/>
        <pt x="284" y="94" on="0"/>
        <pt x="330" y="102" on="0"/>
        <pt x="363" y="126" on="0"/>
        <pt x="381" y="169" on="0"/>
        <pt x="381" y="204" on="1"/>
        <pt x="381" y="240" on="0"/>
        <pt x="363" y="285" on="0"/>
        <pt x="333" y="311" on="0"/>
        <pt x="292" y="321" on="0"/>
        <pt x="269" y="321" on="1"/>
      </contour>
    </TTGlyph>
    <TTGlyph name="B.sc" xMin="65" yMin="0" xMax="460" yMax="567">
      <contour>
        <pt x="65" y="0" on="1"/>
        <pt x="65" y="567" on="1"/>
        <pt x="210" y="567" on="1"/>
        <pt x="255" y="567" on="0"/>
        <pt x="330" y="557" on="0"/>
        <pt x="383" y="526" on="0"/>
        <pt x="412" y="468" on="0"/>
        <pt x="412" y="421" on="1"/>
        <pt x="412" y="345" on="0"/>
        <pt x="368" y="303" on="1"/>
        <pt x="413" y="284" on="0"/>
        <pt x="460" y="221" on="0"/>
        <pt x="460" y="167" on="1"/>
        <pt x="460" y="117" on="0"/>
        <pt x="426" y="53" on="0"/>
        <pt x="371" y="15" on="0"/>
        <pt x="304" y="0" on="0"/>
        <pt x="271" y="0" on="1"/>
      </contour>
      <contour>
        <pt x="165" y="480" on="1"/>
        <pt x="165" y="339" on="1"/>
        <pt x="260" y="339" on="1"/>
        <pt x="269" y="339" on="0"/>
        <pt x="290" y="344" on="0"/>
        <pt x="308" y="359" on="0"/>
        <pt x="320" y="385" on="0"/>
        <pt x="320" y="406" on="1"/>
        <pt x="320" y="451" on="0"/>
        <pt x="284" y="480" on="0"/>
        <pt x="252" y="480" on="1"/>
      </contour>
      <contour>
        <pt x="165" y="258" on="1"/>
        <pt x="165" y="88" on="1"/>
        <pt x="262" y="88" on="1"/>
        <pt x="307" y="88" on="0"/>
        <pt x="357" y="123" on="0"/>
        <pt x="357" y="172" on="1"/>
        <pt x="357" y="197" on="0"/>
        <pt x="342" y="230" on="0"/>
        <pt x="317" y="250" on="0"/>
        <pt x="282" y="258" on="0"/>
        <pt x="262" y="258" on="1"/>
      </contour>
    </TTGlyph>
    <TTGlyph name="C" xMin="30" yMin="-14" xMax="498" yMax="714">
      <contour>
        <pt x="328" y="-14" on="1"/>
        <pt x="263" y="-14" on="0"/>
        <pt x="154" y="38" on="0"/>
        <pt x="74" y="133" on="0"/>
        <pt x="30" y="267" on="0"/>
        <pt x="30" y="350" on="1"/>
        <pt x="30" y="433" on="0"/>
        <pt x="74" y="567" on="0"/>
        <pt x="154" y="662" on="0"/>
        <pt x="263" y="714" on="0"/>
        <pt x="328" y="714" on="1"/>
        <pt x="375" y="714" on="0"/>
        <pt x="465" y="691" on="0"/>
        <pt x="498" y="673" on="1"/>
        <pt x="487" y="573" on="1"/>
        <pt x="450" y="589" on="0"/>
        <pt x="375" y="615" on="0"/>
        <pt x="328" y="615" on="1"/>
        <pt x="282" y="615" on="0"/>
        <pt x="213" y="574" on="0"/>
        <pt x="166" y="503" on="0"/>
        <pt x="143" y="406" on="0"/>
        <pt x="143" y="350" on="1"/>
        <pt x="143" y="294" on="0"/>
        <pt x="166" y="197" on="0"/>
        <pt x="213" y="126" on="0"/>
        <pt x="282" y="85" on="0"/>
        <pt x="328" y="85" on="1"/>
        <pt x="375" y="85" on="0"/>
        <pt x="451" y="111" on="0"/>
        <pt x="487" y="126" on="1"/>
        <pt x="498" y="26" on="1"/>
        <pt x="465" y="9" on="0"/>
        <pt x="375" y="-14" on="0"/>
      </contour>
    </TTGlyph>
    <TTGlyph name="C.sc" xMin="52" yMin="-11" xMax="461" yMax="579">
      <contour>
        <pt x="311" y="-11" on="1"/>
        <pt x="255" y="-11" on="0"/>
        <pt x="160" y="31" on="0"/>
        <pt x="91" y="108" on="0"/>
        <pt x="52" y="217" on="0"/>
        <pt x="52" y="284" on="1"/>
        <pt x="52" y="351" on="0"/>
        <pt x="91" y="460" on="0"/>
        <pt x="160" y="537" on="0"/>
        <pt x="255" y="579" on="0"/>
        <pt x="311" y="579" on="1"/>
        <pt x="353" y="579" on="0"/>
        <pt x="432" y="561" on="0"/>
        <pt x="461" y="545" on="1"/>
        <pt x="449" y="448" on="1"/>
        <pt x="417" y="462" on="0"/>
        <pt x="353" y="480" on="0"/>
        <pt x="311" y="480" on="1"/>
        <pt x="273" y="480" on="0"/>
        <pt x="218" y="451" on="0"/>
        <pt x="180" y="398" on="0"/>
        <pt x="162" y="326" on="0"/>
        <pt x="162" y="284" on="1"/>
        <pt x="162" y="241" on="0"/>
        <pt x="180" y="169" on="0"/>
        <pt x="217" y="116" on="0"/>
        <pt x="273" y="87" on="0"/>
        <pt x="310" y="87" on="1"/>
        <pt x="352" y="87" on="0"/>
        <pt x="417" y="105" on="0"/>
        <pt x="449" y="119" on="1"/>
        <pt x="461" y="22" on="1"/>
        <pt x="432" y="7" on="0"/>
        <pt x="353" y="-11" on="0"/>
      </contour>
    </TTGlyph>
    <TTGlyph name="Ccaron" xMin="30" yMin="-14" xMax="498" yMax="950">
      <component glyphName="C" x="0" y="0" flags="0x204"/>
      <component glyphName="caron" x="70" y="207" flags="0x4"/>
    </TTGlyph>
    <TTGlyph name="Ccedilla" xMin="30" yMin="-193" xMax="498" yMax="714">
      <component glyphName="C" x="0" y="0" flags="0x204"/>
      <component glyphName="cedilla" x="77" y="0" flags="0x4"/>
    </TTGlyph>
    <TTGlyph name="D" xMin="66" yMin="0" xMax="588" yMax="700">
      <contour>
        <pt x="66" y="0" on="1"/>
        <pt x="66" y="700" on="1"/>
        <pt x="291" y="700" on="1"/>
        <pt x="355" y="700" on="0"/>
        <pt x="464" y="653" on="0"/>
        <pt x="544" y="563" on="0"/>
        <pt x="588" y="433" on="0"/>
        <pt x="588" y="350" on="1"/>
        <pt x="588" y="267" on="0"/>
        <pt x="544" y="137" on="0"/>
        <pt x="464" y="47" on="0"/>
        <pt x="355" y="0" on="0"/>
        <pt x="291" y="0" on="1"/>
      </contour>
      <contour>
        <pt x="170" y="601" on="1"/>
        <pt x="170" y="99" on="1"/>
        <pt x="291" y="99" on="1"/>
        <pt x="336" y="99" on="0"/>
        <pt x="405" y="135" on="0"/>
        <pt x="452" y="201" on="0"/>
        <pt x="475" y="293" on="0"/>
        <pt x="475" y="350" on="1"/>
        <pt x="475" y="407" on="0"/>
        <pt x="452" y="499" on="0"/>
        <pt x="405" y="565" on="0"/>
        <pt x="336" y="601" on="0"/>
        <pt x="291" y="601" on="1"/>
      </contour>
    </TTGlyph>
    <TTGlyph name="D.sc" xMin="84" yMin="0" xMax="539" yMax="567">
      <contour>
        <pt x="84" y="0" on="1"/>
        <pt x="84" y="567" on="1"/>
        <pt x="281" y="567" on="1"/>
        <pt x="337" y="567" on="0"/>
        <pt x="432" y="529" on="0"/>
        <pt x="501" y="456" on="0"/>
        <pt x="539" y="351" on="0"/>
        <pt x="539" y="284" on="1"/>
        <pt x="539" y="217" on="0"/>
        <pt x="501" y="111" on="0"/>
        <pt x="432" y="38" on="0"/>
        <pt x="337" y="0" on="0"/>
        <pt x="281" y="0" on="1"/>
      </contour>
      <contour>
        <pt x="184" y="469" on="1"/>
        <pt x="184" y="99" on="1"/>
        <pt x="281" y="99" on="1"/>
        <pt x="356" y="99" on="0"/>
        <pt x="430" y="198" on="0"/>
        <pt x="430" y="284" on="1"/>
        <pt x="430" y="370" on="0"/>
        <pt x="356" y="469" on="0"/>
        <pt x="281" y="469" on="1"/>
      </contour>
    </TTGlyph>
    <TTGlyph name="E" xMin="66" yMin="0" xMax="456" yMax="700">
      <contour>
        <pt x="66" y="0" on="1"/>
        <pt x="66" y="700" on="1"/>
        <pt x="447" y="700" on="1"/>
        <pt x="447" y="601" on="1"/>
        <pt x="172" y="601" on="1"/>
        <pt x="172" y="415" on="1"/>
        <pt x="387" y="415" on="1"/>
        <pt x="387" y="316" on="1"/>
        <pt x="172" y="316" on="1"/>
        <pt x="172" y="99" on="1"/>
        <pt x="456" y="99" on="1"/>
        <pt x="456" y="0" on="1"/>
      </contour>
    </TTGlyph>
    <TTGlyph name="E.sc" xMin="84" yMin="0" xMax="430" yMax="567">
      <contour>
        <pt x="84" y="0" on="1"/>
        <pt x="84" y="567" on="1"/>
        <pt x="423" y="567" on="1"/>
        <pt x="423" y="468" on="1"/>
        <pt x="186" y="468" on="1"/>
        <pt x="186" y="345" on="1"/>
        <pt x="369" y="345" on="1"/>
        <pt x="369" y="246" on="1"/>
        <pt x="186" y="246" on="1"/>
        <pt x="186" y="99" on="1"/>
        <pt x="430" y="99" on="1"/>
        <pt x="430" y="0" on="1"/>
      </contour>
    </TTGlyph>
    <TTGlyph name="Eacute" xMin="66" yMin="0" xMax="456" yMax="945">
      <component glyphName="E" x="0" y="0" flags="0x4"/>
      <component glyphName="acute" x="105" y="207" flags="0x4"/>
    </TTGlyph>
    <TTGlyph name="Ecircumflex" xMin="66" yMin="0" xMax="456" yMax="954">
      <component glyphName="E" x="0" y="0" flags="0x4"/>
      <component glyphName="circumflex" x="43" y="207" flags="0x4"/>
    </TTGlyph>
    <TTGlyph name="Edieresis" xMin="66" yMin="0" xMax="456" yMax="907">
      <component glyphName="E" x="0" y="0" flags="0x4"/>
      <component glyphName="dieresis" x="53" y="207" flags="0x4"/>
    </TTGlyph>
    <TTGlyph name="Egrave" xMin="66" yMin="0" xMax="456" yMax="945">
      <component glyphName="E" x="0" y="0" flags="0x4"/>
      <component glyphName="grave" x="105" y="207" flags="0x4"/>
    </TTGlyph>
    <TTGlyph name="Eth" xMin="-3" yMin="0" xMax="598" yMax="700">
      <contour>
        <pt x="77" y="0" on="1"/>
        <pt x="77" y="308" on="1"/>
        <pt x="-3" y="308" on="1"/>
        <pt x="-3" y="383" on="1"/>
        <pt x="77" y="383" on="1"/>
        <pt x="77" y="700" on="1"/>
        <pt x="301" y="700" on="1"/>
        <pt x="365" y="700" on="0"/>
        <pt x="474" y="653" on="0"/>
        <pt x="554" y="563" on="0"/>
        <pt x="598" y="433" on="0"/>
        <pt x="598" y="350" on="1"/>
        <pt x="598" y="267" on="0"/>
        <pt x="554" y="137" on="0"/>
        <pt x="474" y="47" on="0"/>
        <pt x="365" y="0" on="0"/>
        <pt x="301" y="0" on="1"/>
      </contour>
      <contour>
        <pt x="179" y="601" on="1"/>
        <pt x="179" y="383" on="1"/>
        <pt x="286" y="383" on="1"/>
        <pt x="286" y="308" on="1"/>
        <pt x="179" y="308" on="1"/>
        <pt x="179" y="99" on="1"/>
        <pt x="301" y="99" on="1"/>
        <pt x="346" y="99" on="0"/>
        <pt x="415" y="135" on="0"/>
        <pt x="462" y="200" on="0"/>
        <pt x="485" y="293" on="0"/>
        <pt x="485" y="350" on="1"/>
        <pt x="485" y="407" on="0"/>
        <pt x="462" y="500" on="0"/>
        <pt x="415" y="565" on="0"/>
        <pt x="346" y="601" on="0"/>
        <pt x="301" y="601" on="1"/>
      </contour>
    </TTGlyph>
    <TTGlyph name="Euro" xMin="30" yMin="17" xMax="560" yMax="683">
      <contour>
        <pt x="406" y="17" on="1"/>
        <pt x="318" y="17" on="0"/>
        <pt x="185" y="119" on="0"/>
        <pt x="153" y="213" on="1"/>
        <pt x="30" y="213" on="1"/>
        <pt x="55" y="288" on="1"/>
        <pt x="135" y="288" on="1"/>
        <pt x="133" y="306" on="0"/>
        <pt x="132" y="342" on="0"/>
        <pt x="132" y="365" on="1"/>
        <pt x="53" y="365" on="1"/>
        <pt x="78" y="440" on="1"/>
        <pt x="142" y="440" on="1"/>
        <pt x="154" y="497" on="0"/>
        <pt x="202" y="587" on="0"/>
        <pt x="271" y="650" on="0"/>
        <pt x="357" y="683" on="0"/>
        <pt x="406" y="683" on="1"/>
        <pt x="448" y="683" on="0"/>
        <pt x="528" y="666" on="0"/>
        <pt x="560" y="648" on="1"/>
        <pt x="549" y="545" on="1"/>
        <pt x="514" y="562" on="0"/>
        <pt x="447" y="583" on="0"/>
        <pt x="406" y="583" on="1"/>
        <pt x="343" y="583" on="0"/>
        <pt x="269" y="508" on="0"/>
        <pt x="252" y="440" on="1"/>
        <pt x="470" y="440" on="1"/>
        <pt x="443" y="365" on="1"/>
        <pt x="242" y="365" on="1"/>
        <pt x="242" y="348" on="0"/>
        <pt x="243" y="299" on="0"/>
        <pt x="245" y="288" on="1"/>
        <pt x="453" y="288" on="1"/>
        <pt x="429" y="213" on="1"/>
        <pt x="268" y="213" on="1"/>
        <pt x="309" y="117" on="0"/>
        <pt x="406" y="117" on="1"/>
        <pt x="447" y="117" on="0"/>
        <pt x="514" y="138" on="0"/>
        <pt x="549" y="155" on="1"/>
        <pt x="560" y="52" on="1"/>
        <pt x="528" y="34" on="0"/>
        <pt x="448" y="17" on="0"/>
      </contour>
    </TTGlyph>
    <TTGlyph name="F" xMin="66" yMin="0" xMax="436" yMax="700">
      <contour>
        <pt x="170" y="601" on="1"/>
        <pt x="170" y="415" on="1"/>
        <pt x="375" y="415" on="1"/>
        <pt x="375" y="316" on="1"/>
        <pt x="170" y="316" on="1"/>
        <pt x="170" y="0" on="1"/>
        <pt x="66" y="0" on="1"/>
        <pt x="66" y="700" on="1"/>
        <pt x="436" y="700" on="1"/>
        <pt x="436" y="601" on="1"/>
      </contour>
    </TTGlyph>
    <TTGlyph name="F.sc" xMin="84" yMin="0" xMax="408" yMax="567">
      <contour>
        <pt x="184" y="468" on="1"/>
        <pt x="184" y="345" on="1"/>
        <pt x="357" y="345" on="1"/>
        <pt x="357" y="246" on="1"/>
        <pt x="184" y="246" on="1"/>
        <pt x="184" y="0" on="1"/>
        <pt x="84" y="0" on="1"/>
        <pt x="84" y="567" on="1"/>
        <pt x="408" y="567" on="1"/>
        <pt x="408" y="468" on="1"/>
      </contour>
    </TTGlyph>
    <TTGlyph name="G" xMin="30" yMin="-14" xMax="531" yMax="714">
      <contour>
        <pt x="325" y="-14" on="1"/>
        <pt x="262" y="-14" on="0"/>
        <pt x="154" y="38" on="0"/>
        <pt x="75" y="133" on="0"/>
        <pt x="30" y="268" on="0"/>
        <pt x="30" y="351" on="1"/>
        <pt x="30" y="433" on="0"/>
        <pt x="74" y="568" on="0"/>
        <pt x="154" y="662" on="0"/>
        <pt x="264" y="714" on="0"/>
        <pt x="330" y="714" on="1"/>
        <pt x="352" y="714" on="0"/>
        <pt x="402" y="708" on="0"/>
        <pt x="451" y="697" on="0"/>
        <pt x="494" y="683" on="0"/>
        <pt x="511" y="674" on="1"/>
        <pt x="500" y="577" on="1"/>
        <pt x="465" y="593" on="0"/>
        <pt x="374" y="615" on="0"/>
        <pt x="333" y="615" on="1"/>
        <pt x="284" y="615" on="0"/>
        <pt x="213" y="574" on="0"/>
        <pt x="166" y="503" on="0"/>
        <pt x="143" y="406" on="0"/>
        <pt x="143" y="351" on="1"/>
        <pt x="143" y="293" on="0"/>
        <pt x="167" y="196" on="0"/>
        <pt x="217" y="125" on="0"/>
        <pt x="290" y="85" on="0"/>
        <pt x="340" y="85" on="1"/>
        <pt x="359" y="85" on="0"/>
        <pt x="404" y="92" on="0"/>
        <pt x="427" y="101" on="1"/>
        <pt x="427" y="258" on="1"/>
        <pt x="354" y="258" on="1"/>
        <pt x="354" y="351" on="1"/>
        <pt x="531" y="351" on="1"/>
        <pt x="531" y="39" on="1"/>
        <pt x="514" y="28" on="0"/>
        <pt x="465" y="9" on="0"/>
        <pt x="409" y="-6" on="0"/>
        <pt x="350" y="-14" on="0"/>
      </contour>
    </TTGlyph>
    <TTGlyph name="G.sc" xMin="52" yMin="-11" xMax="490" yMax="579">
      <contour>
        <pt x="309" y="-11" on="1"/>
        <pt x="254" y="-11" on="0"/>
        <pt x="160" y="31" on="0"/>
        <pt x="91" y="108" on="0"/>
        <pt x="52" y="217" on="0"/>
        <pt x="52" y="284" on="1"/>
        <pt x="52" y="351" on="0"/>
        <pt x="91" y="460" on="0"/>
        <pt x="160" y="537" on="0"/>
        <pt x="256" y="579" on="0"/>
        <pt x="314" y="579" on="1"/>
        <pt x="333" y="579" on="0"/>
        <pt x="377" y="574" on="0"/>
        <pt x="420" y="566" on="0"/>
        <pt x="458" y="553" on="0"/>
        <pt x="472" y="546" on="1"/>
        <pt x="461" y="448" on="1"/>
        <pt x="431" y="462" on="0"/>
        <pt x="351" y="480" on="0"/>
        <pt x="316" y="480" on="1"/>
        <pt x="276" y="480" on="0"/>
        <pt x="218" y="451" on="0"/>
        <pt x="180" y="399" on="0"/>
        <pt x="162" y="328" on="0"/>
        <pt x="162" y="286" on="1"/>
        <pt x="162" y="242" on="0"/>
        <pt x="182" y="169" on="0"/>
        <pt x="221" y="116" on="0"/>
        <pt x="281" y="87" on="0"/>
        <pt x="320" y="87" on="1"/>
        <pt x="353" y="87" on="0"/>
        <pt x="390" y="97" on="1"/>
        <pt x="390" y="199" on="1"/>
        <pt x="336" y="199" on="1"/>
        <pt x="336" y="284" on="1"/>
        <pt x="490" y="284" on="1"/>
        <pt x="490" y="31" on="1"/>
        <pt x="476" y="22" on="0"/>
        <pt x="432" y="7" on="0"/>
        <pt x="383" y="-4" on="0"/>
        <pt x="331" y="-11" on="0"/>
      </contour>
    </TTGlyph>
    <TTGlyph name="H" xMin="66" yMin="0" xMax="570" yMax="700">
      <contour>
        <pt x="466" y="0" on="1"/>
        <pt x="466" y="315" on="1"/>
        <pt x="170" y="315" on="1"/>
        <pt x="170" y="0" on="1"/>
        <pt x="66" y="0" on="1"/>
        <pt x="66" y="700" on="1"/>
        <pt x="170" y="700" on="1"/>
        <pt x="170" y="417" on="1"/>
        <pt x="466" y="417" on="1"/>
        <pt x="466" y="700" on="1"/>
        <pt x="570" y="700" on="1"/>
        <pt x="570" y="0" on="1"/>
      </contour>
    </TTGlyph>
    <TTGlyph name="H.sc" xMin="84" yMin="0" xMax="524" yMax="567">
      <contour>
        <pt x="424" y="0" on="1"/>
        <pt x="424" y="246" on="1"/>
        <pt x="184" y="246" on="1"/>
        <pt x="184" y="0" on="1"/>
        <pt x="84" y="0" on="1"/>
        <pt x="84" y="567" on="1"/>
        <pt x="184" y="567" on="1"/>
        <pt x="184" y="346" on="1"/>
        <pt x="424" y="346" on="1"/>
        <pt x="424" y="567" on="1"/>
        <pt x="524" y="567" on="1"/>
        <pt x="524" y="0" on="1"/>
      </contour>
    </TTGlyph>
    <TTGlyph name="I" xMin="69" yMin="0" xMax="173" yMax="700">
      <contour>
        <pt x="69" y="0" on="1"/>
        <pt x="69" y="700" on="1"/>
        <pt x="173" y="700" on="1"/>
        <pt x="173" y="0" on="1"/>
      </contour>
    </TTGlyph>
    <TTGlyph name="I.sc" xMin="82" yMin="0" xMax="182" yMax="567">
      <contour>
        <pt x="82" y="0" on="1"/>
        <pt x="82" y="567" on="1"/>
        <pt x="182" y="567" on="1"/>
        <pt x="182" y="0" on="1"/>
      </contour>
    </TTGlyph>
    <TTGlyph name="Iacute" xMin="42" yMin="0" xMax="203" yMax="945">
      <component glyphName="I" x="0" y="0" flags="0x204"/>
      <component glyphName="acute" x="-8" y="207" flags="0x4"/>
    </TTGlyph>
    <TTGlyph name="Icircumflex" xMin="-4" yMin="0" xMax="249" yMax="954">
      <component glyphName="I" x="0" y="0" flags="0x204"/>
      <component glyphName="circumflex" x="-69" y="207" flags="0x4"/>
    </TTGlyph>
    <TTGlyph name="Idieresis" xMin="16" yMin="0" xMax="229" yMax="907">
      <component glyphName="I" x="0" y="0" flags="0x204"/>
      <component glyphName="dieresis" x="-59" y="207" flags="0x4"/>
    </TTGlyph>
    <TTGlyph name="Igrave" xMin="42" yMin="0" xMax="203" yMax="945">
      <component glyphName="I" x="0" y="0" flags="0x204"/>
      <component glyphName="grave" x="-8" y="207" flags="0x4"/>
    </TTGlyph>
    <TTGlyph name="J" xMin="-2" yMin="-172" xMax="174" yMax="700">
      <contour>
        <pt x="7" y="-172" on="1"/>
        <pt x="-2" y="-102" on="1"/>
        <pt x="16" y="-102" on="1"/>
        <pt x="48" y="-102" on="0"/>
        <pt x="70" y="-54" on="0"/>
        <pt x="70" y="-1" on="1"/>
        <pt x="70" y="700" on="1"/>
        <pt x="174" y="700" on="1"/>
        <pt x="174" y="-29" on="1"/>
        <pt x="174" y="-100" on="0"/>
        <pt x="100" y="-172" on="0"/>
        <pt x="34" y="-172" on="1"/>
      </contour>
    </TTGlyph>
    <TTGlyph name="J.sc" xMin="23" yMin="-140" xMax="181" yMax="567">
      <contour>
        <pt x="31" y="-140" on="1"/>
        <pt x="23" y="-63" on="1"/>
        <pt x="46" y="-63" on="1"/>
        <pt x="66" y="-63" on="0"/>
        <pt x="81" y="-31" on="0"/>
        <pt x="81" y="3" on="1"/>
        <pt x="81" y="567" on="1"/>
        <pt x="181" y="567" on="1"/>
        <pt x="181" y="-20" on="1"/>
        <pt x="181" y="-81" on="0"/>
        <pt x="115" y="-140" on="0"/>
        <pt x="60" y="-140" on="1"/>
      </contour>
    </TTGlyph>
    <TTGlyph name="K" xMin="73" yMin="0" xMax="528" yMax="700">
      <contour>
        <pt x="413" y="0" on="1"/>
        <pt x="201" y="371" on="1"/>
        <pt x="413" y="700" on="1"/>
        <pt x="528" y="700" on="1"/>
        <pt x="316" y="371" on="1"/>
        <pt x="528" y="0" on="1"/>
      </contour>
      <contour>
        <pt x="73" y="0" on="1"/>
        <pt x="73" y="700" on="1"/>
        <pt x="177" y="700" on="1"/>
        <pt x="177" y="0" on="1"/>
      </contour>
    </TTGlyph>
    <TTGlyph name="K.sc" xMin="80" yMin="0" xMax="492" yMax="567">
      <contour>
        <pt x="378" y="0" on="1"/>
        <pt x="197" y="300" on="1"/>
        <pt x="378" y="567" on="1"/>
        <pt x="492" y="567" on="1"/>
        <pt x="310" y="300" on="1"/>
        <pt x="492" y="0" on="1"/>
      </contour>
      <contour>
        <pt x="80" y="0" on="1"/>
        <pt x="80" y="567" on="1"/>
        <pt x="180" y="567" on="1"/>
        <pt x="180" y="0" on="1"/>
      </contour>
    </TTGlyph>
    <TTGlyph name="L" xMin="66" yMin="0" xMax="424" yMax="700">
      <contour>
        <pt x="66" y="0" on="1"/>
        <pt x="66" y="700" on="1"/>
        <pt x="170" y="700" on="1"/>
        <pt x="170" y="99" on="1"/>
        <pt x="424" y="99" on="1"/>
        <pt x="424" y="0" on="1"/>
      </contour>
    </TTGlyph>
    <TTGlyph name="L.sc" xMin="84" yMin="0" xMax="396" yMax="567">
      <contour>
        <pt x="84" y="0" on="1"/>
        <pt x="84" y="567" on="1"/>
        <pt x="184" y="567" on="1"/>
        <pt x="184" y="99" on="1"/>
        <pt x="396" y="99" on="1"/>
        <pt x="396" y="0" on="1"/>
      </contour>
    </TTGlyph>
    <TTGlyph name="M" xMin="43" yMin="0" xMax="678" yMax="700">
      <contour>
        <pt x="570" y="0" on="1"/>
        <pt x="520" y="497" on="1"/>
        <pt x="361" y="148" on="1"/>
        <pt x="202" y="497" on="1"/>
        <pt x="151" y="0" on="1"/>
        <pt x="43" y="0" on="1"/>
        <pt x="124" y="700" on="1"/>
        <pt x="209" y="700" on="1"/>
        <pt x="361" y="351" on="1"/>
        <pt x="512" y="700" on="1"/>
        <pt x="598" y="700" on="1"/>
        <pt x="678" y="0" on="1"/>
      </contour>
    </TTGlyph>
    <TTGlyph name="M.sc" xMin="59" yMin="0" xMax="622" yMax="567">
      <contour>
        <pt x="518" y="0" on="1"/>
        <pt x="474" y="382" on="1"/>
        <pt x="340" y="120" on="1"/>
        <pt x="207" y="381" on="1"/>
        <pt x="163" y="0" on="1"/>
        <pt x="59" y="0" on="1"/>
        <pt x="132" y="567" on="1"/>
        <pt x="214" y="567" on="1"/>
        <pt x="341" y="308" on="1"/>
        <pt x="467" y="567" on="1"/>
        <pt x="549" y="567" on="1"/>
        <pt x="622" y="0" on="1"/>
      </contour>
    </TTGlyph>
    <TTGlyph name="N" xMin="66" yMin="0" xMax="540" yMax="700">
      <contour>
        <pt x="455" y="0" on="1"/>
        <pt x="170" y="528" on="1"/>
        <pt x="170" y="0" on="1"/>
        <pt x="66" y="0" on="1"/>
        <pt x="66" y="700" on="1"/>
        <pt x="170" y="700" on="1"/>
        <pt x="436" y="201" on="1"/>
        <pt x="436" y="700" on="1"/>
        <pt x="540" y="700" on="1"/>
        <pt x="540" y="0" on="1"/>
      </contour>
    </TTGlyph>
    <TTGlyph name="N.sc" xMin="84" yMin="0" xMax="500" yMax="567">
      <contour>
        <pt x="418" y="0" on="1"/>
        <pt x="184" y="392" on="1"/>
        <pt x="184" y="0" on="1"/>
        <pt x="84" y="0" on="1"/>
        <pt x="84" y="567" on="1"/>
        <pt x="181" y="567" on="1"/>
        <pt x="400" y="199" on="1"/>
        <pt x="400" y="567" on="1"/>
        <pt x="500" y="567" on="1"/>
        <pt x="500" y="0" on="1"/>
      </contour>
    </TTGlyph>
    <TTGlyph name="Ntilde" xMin="66" yMin="0" xMax="540" yMax="916">
      <component glyphName="N" x="0" y="0" flags="0x204"/>
      <component glyphName="tilde" x="76" y="207" flags="0x4"/>
    </TTGlyph>
    <TTGlyph name="O" xMin="30" yMin="-14" xMax="623" yMax="714">
      <contour>
        <pt x="327" y="-14" on="1"/>
        <pt x="262" y="-14" on="0"/>
        <pt x="154" y="38" on="0"/>
        <pt x="74" y="133" on="0"/>
        <pt x="30" y="267" on="0"/>
        <pt x="30" y="350" on="1"/>
        <pt x="30" y="433" on="0"/>
        <pt x="74" y="567" on="0"/>
        <pt x="154" y="662" on="0"/>
        <pt x="262" y="714" on="0"/>
        <pt x="327" y="714" on="1"/>
        <pt x="391" y="714" on="0"/>
        <pt x="500" y="662" on="0"/>
        <pt x="579" y="567" on="0"/>
        <pt x="623" y="433" on="0"/>
        <pt x="623" y="350" on="1"/>
        <pt x="623" y="267" on="0"/>
        <pt x="579" y="133" on="0"/>
        <pt x="500" y="38" on="0"/>
        <pt x="391" y="-14" on="0"/>
      </contour>
      <contour>
        <pt x="327" y="615" on="1"/>
        <pt x="281" y="615" on="0"/>
        <pt x="212" y="574" on="0"/>
        <pt x="166" y="503" on="0"/>
        <pt x="143" y="406" on="0"/>
        <pt x="143" y="350" on="1"/>
        <pt x="143" y="294" on="0"/>
        <pt x="166" y="197" on="0"/>
        <pt x="212" y="126" on="0"/>
        <pt x="281" y="85" on="0"/>
        <pt x="327" y="85" on="1"/>
        <pt x="373" y="85" on="0"/>
        <pt x="441" y="126" on="0"/>
        <pt x="487" y="197" on="0"/>
        <pt x="510" y="294" on="0"/>
        <pt x="510" y="350" on="1"/>
        <pt x="510" y="406" on="0"/>
        <pt x="487" y="503" on="0"/>
        <pt x="441" y="574" on="0"/>
        <pt x="373" y="615" on="0"/>
      </contour>
    </TTGlyph>
    <TTGlyph name="O.sc" xMin="52" yMin="-11" xMax="570" yMax="579">
      <contour>
        <pt x="312" y="-11" on="1"/>
        <pt x="256" y="-11" on="0"/>
        <pt x="160" y="31" on="0"/>
        <pt x="91" y="108" on="0"/>
        <pt x="52" y="217" on="0"/>
        <pt x="52" y="284" on="1"/>
        <pt x="52" y="351" on="0"/>
        <pt x="91" y="460" on="0"/>
        <pt x="160" y="537" on="0"/>
        <pt x="256" y="579" on="0"/>
        <pt x="312" y="579" on="1"/>
        <pt x="368" y="579" on="0"/>
        <pt x="463" y="537" on="0"/>
        <pt x="532" y="460" on="0"/>
        <pt x="570" y="351" on="0"/>
        <pt x="570" y="284" on="1"/>
        <pt x="570" y="217" on="0"/>
        <pt x="532" y="108" on="0"/>
        <pt x="463" y="31" on="0"/>
        <pt x="368" y="-11" on="0"/>
      </contour>
      <contour>
        <pt x="312" y="480" on="1"/>
        <pt x="274" y="480" on="0"/>
        <pt x="218" y="451" on="0"/>
        <pt x="181" y="398" on="0"/>
        <pt x="162" y="326" on="0"/>
        <pt x="162" y="284" on="1"/>
        <pt x="162" y="241" on="0"/>
        <pt x="181" y="169" on="0"/>
        <pt x="218" y="116" on="0"/>
        <pt x="274" y="87" on="0"/>
        <pt x="312" y="87" on="1"/>
        <pt x="349" y="87" on="0"/>
        <pt x="405" y="116" on="0"/>
        <pt x="442" y="169" on="0"/>
        <pt x="461" y="241" on="0"/>
        <pt x="461" y="284" on="1"/>
        <pt x="461" y="326" on="0"/>
        <pt x="442" y="398" on="0"/>
        <pt x="405" y="451" on="0"/>
        <pt x="349" y="480" on="0"/>
      </contour>
    </TTGlyph>
    <TTGlyph name="OE" xMin="30" yMin="-14" xMax="885" yMax="714">
      <contour>
        <pt x="515" y="0" on="1"/>
        <pt x="515" y="73" on="1"/>
        <pt x="472" y="26" on="0"/>
        <pt x="378" y="-14" on="0"/>
        <pt x="325" y="-14" on="1"/>
        <pt x="261" y="-14" on="0"/>
        <pt x="153" y="38" on="0"/>
        <pt x="74" y="133" on="0"/>
        <pt x="30" y="267" on="0"/>
        <pt x="30" y="350" on="1"/>
        <pt x="30" y="433" on="0"/>
        <pt x="74" y="567" on="0"/>
        <pt x="153" y="662" on="0"/>
        <pt x="261" y="714" on="0"/>
        <pt x="325" y="714" on="1"/>
        <pt x="378" y="714" on="0"/>
        <pt x="472" y="674" on="0"/>
        <pt x="515" y="627" on="1"/>
        <pt x="515" y="699" on="1"/>
        <pt x="877" y="699" on="1"/>
        <pt x="877" y="601" on="1"/>
        <pt x="620" y="601" on="1"/>
        <pt x="620" y="415" on="1"/>
        <pt x="818" y="415" on="1"/>
        <pt x="818" y="316" on="1"/>
        <pt x="620" y="316" on="1"/>
        <pt x="620" y="99" on="1"/>
        <pt x="885" y="99" on="1"/>
        <pt x="885" y="0" on="1"/>
      </contour>
      <contour>
        <pt x="325" y="615" on="1"/>
        <pt x="279" y="615" on="0"/>
        <pt x="211" y="575" on="0"/>
        <pt x="165" y="504" on="0"/>
        <pt x="142" y="407" on="0"/>
        <pt x="142" y="350" on="1"/>
        <pt x="142" y="293" on="0"/>
        <pt x="165" y="196" on="0"/>
        <pt x="211" y="125" on="0"/>
        <pt x="279" y="85" on="0"/>
        <pt x="325" y="85" on="1"/>
        <pt x="371" y="85" on="0"/>
        <pt x="439" y="125" on="0"/>
        <pt x="485" y="196" on="0"/>
        <pt x="508" y="293" on="0"/>
        <pt x="508" y="350" on="1"/>
        <pt x="508" y="407" on="0"/>
        <pt x="485" y="504" on="0"/>
        <pt x="439" y="575" on="0"/>
        <pt x="371" y="615" on="0"/>
      </contour>
    </TTGlyph>
    <TTGlyph name="OE.sc" xMin="52" yMin="-11" xMax="799" yMax="579">
      <contour>
        <pt x="468" y="0" on="1"/>
        <pt x="468" y="45" on="1"/>
        <pt x="439" y="18" on="0"/>
        <pt x="359" y="-11" on="0"/>
        <pt x="312" y="-11" on="1"/>
        <pt x="256" y="-11" on="0"/>
        <pt x="160" y="31" on="0"/>
        <pt x="91" y="108" on="0"/>
        <pt x="52" y="217" on="0"/>
        <pt x="52" y="284" on="1"/>
        <pt x="52" y="351" on="0"/>
        <pt x="91" y="460" on="0"/>
        <pt x="160" y="537" on="0"/>
        <pt x="256" y="579" on="0"/>
        <pt x="312" y="579" on="1"/>
        <pt x="359" y="579" on="0"/>
        <pt x="439" y="549" on="0"/>
        <pt x="468" y="522" on="1"/>
        <pt x="468" y="567" on="1"/>
        <pt x="792" y="567" on="1"/>
        <pt x="792" y="468" on="1"/>
        <pt x="571" y="468" on="1"/>
        <pt x="571" y="345" on="1"/>
        <pt x="741" y="345" on="1"/>
        <pt x="741" y="246" on="1"/>
        <pt x="571" y="246" on="1"/>
        <pt x="571" y="99" on="1"/>
        <pt x="799" y="99" on="1"/>
        <pt x="799" y="0" on="1"/>
      </contour>
      <contour>
        <pt x="312" y="480" on="1"/>
        <pt x="275" y="480" on="0"/>
        <pt x="219" y="451" on="0"/>
        <pt x="181" y="399" on="0"/>
        <pt x="162" y="327" on="0"/>
        <pt x="162" y="284" on="1"/>
        <pt x="162" y="241" on="0"/>
        <pt x="181" y="169" on="0"/>
        <pt x="219" y="116" on="0"/>
        <pt x="275" y="87" on="0"/>
        <pt x="312" y="87" on="1"/>
        <pt x="349" y="87" on="0"/>
        <pt x="405" y="116" on="0"/>
        <pt x="443" y="169" on="0"/>
        <pt x="462" y="241" on="0"/>
        <pt x="462" y="284" on="1"/>
        <pt x="462" y="327" on="0"/>
        <pt x="443" y="399" on="0"/>
        <pt x="405" y="451" on="0"/>
        <pt x="349" y="480" on="0"/>
      </contour>
    </TTGlyph>
    <TTGlyph name="Oacute" xMin="30" yMin="-14" xMax="623" yMax="945">
      <component glyphName="O" x="0" y="0" flags="0x204"/>
      <component glyphName="acute" x="196" y="207" flags="0x4"/>
    </TTGlyph>
    <TTGlyph name="Ocircumflex" xMin="30" yMin="-14" xMax="623" yMax="954">
      <component glyphName="O" x="0" y="0" flags="0x204"/>
      <component glyphName="circumflex" x="135" y="207" flags="0x4"/>
    </TTGlyph>
    <TTGlyph name="Odieresis" xMin="30" yMin="-14" xMax="623" yMax="907">
      <component glyphName="O" x="0" y="0" flags="0x204"/>
      <component glyphName="dieresis" x="145" y="207" flags="0x4"/>
    </TTGlyph>
    <TTGlyph name="Ograve" xMin="30" yMin="-14" xMax="623" yMax="945">
      <component glyphName="O" x="0" y="0" flags="0x204"/>
      <component glyphName="grave" x="196" y="207" flags="0x4"/>
    </TTGlyph>
    <TTGlyph name="Oslash" xMin="30" yMin="-30" xMax="623" yMax="716">
      <contour>
        <pt x="326" y="-13" on="1"/>
        <pt x="248" y="-13" on="0"/>
        <pt x="185" y="28" on="1"/>
        <pt x="153" y="-30" on="1"/>
        <pt x="46" y="-30" on="1"/>
        <pt x="114" y="79" on="1"/>
        <pt x="74" y="133" on="0"/>
        <pt x="30" y="267" on="0"/>
        <pt x="30" y="350" on="1"/>
        <pt x="30" y="433" on="0"/>
        <pt x="74" y="567" on="0"/>
        <pt x="154" y="662" on="0"/>
        <pt x="262" y="714" on="0"/>
        <pt x="327" y="714" on="1"/>
        <pt x="403" y="714" on="0"/>
        <pt x="464" y="675" on="1"/>
        <pt x="486" y="716" on="1"/>
        <pt x="594" y="716" on="1"/>
        <pt x="536" y="623" on="1"/>
        <pt x="578" y="570" on="0"/>
        <pt x="623" y="434" on="0"/>
        <pt x="623" y="349" on="1"/>
        <pt x="623" y="266" on="0"/>
        <pt x="579" y="133" on="0"/>
        <pt x="500" y="38" on="0"/>
        <pt x="391" y="-13" on="0"/>
      </contour>
      <contour>
        <pt x="243" y="112" on="1"/>
        <pt x="263" y="98" on="0"/>
        <pt x="304" y="87" on="0"/>
        <pt x="327" y="87" on="1"/>
        <pt x="372" y="87" on="0"/>
        <pt x="441" y="127" on="0"/>
        <pt x="486" y="198" on="0"/>
        <pt x="509" y="295" on="0"/>
        <pt x="509" y="351" on="1"/>
        <pt x="509" y="398" on="0"/>
        <pt x="493" y="494" on="0"/>
        <pt x="474" y="532" on="1"/>
      </contour>
      <contour>
        <pt x="326" y="613" on="1"/>
        <pt x="281" y="613" on="0"/>
        <pt x="212" y="573" on="0"/>
        <pt x="167" y="502" on="0"/>
        <pt x="144" y="406" on="0"/>
        <pt x="144" y="349" on="1"/>
        <pt x="144" y="304" on="0"/>
        <pt x="159" y="220" on="0"/>
        <pt x="177" y="172" on="1"/>
        <pt x="406" y="589" on="1"/>
        <pt x="386" y="603" on="0"/>
        <pt x="348" y="613" on="0"/>
      </contour>
    </TTGlyph>
    <TTGlyph name="Otilde" xMin="30" yMin="-14" xMax="623" yMax="916">
      <component glyphName="O" x="0" y="0" flags="0x204"/>
      <component glyphName="tilde" x="100" y="207" flags="0x4"/>
    </TTGlyph>
    <TTGlyph name="P" xMin="69" yMin="0" xMax="491" yMax="700">
      <contour>
        <pt x="173" y="240" on="1"/>
        <pt x="173" y="0" on="1"/>
        <pt x="69" y="0" on="1"/>
        <pt x="69" y="700" on="1"/>
        <pt x="245" y="700" on="1"/>
        <pt x="303" y="700" on="0"/>
        <pt x="394" y="685" on="0"/>
        <pt x="457" y="638" on="0"/>
        <pt x="491" y="552" on="0"/>
        <pt x="491" y="481" on="1"/>
        <pt x="491" y="410" on="0"/>
        <pt x="451" y="317" on="0"/>
        <pt x="390" y="262" on="0"/>
        <pt x="318" y="240" on="0"/>
        <pt x="287" y="240" on="1"/>
      </contour>
      <contour>
        <pt x="173" y="607" on="1"/>
        <pt x="173" y="337" on="1"/>
        <pt x="272" y="337" on="1"/>
        <pt x="332" y="337" on="0"/>
        <pt x="386" y="406" on="0"/>
        <pt x="386" y="478" on="1"/>
        <pt x="386" y="513" on="0"/>
        <pt x="375" y="562" on="0"/>
        <pt x="347" y="593" on="0"/>
        <pt x="300" y="607" on="0"/>
        <pt x="264" y="607" on="1"/>
      </contour>
    </TTGlyph>
    <TTGlyph name="P.sc" xMin="82" yMin="0" xMax="460" yMax="567">
      <contour>
        <pt x="182" y="187" on="1"/>
        <pt x="182" y="0" on="1"/>
        <pt x="82" y="0" on="1"/>
        <pt x="82" y="567" on="1"/>
        <pt x="228" y="567" on="1"/>
        <pt x="285" y="567" on="0"/>
        <pt x="372" y="555" on="0"/>
        <pt x="431" y="517" on="0"/>
        <pt x="460" y="446" on="0"/>
        <pt x="460" y="388" on="1"/>
        <pt x="460" y="327" on="0"/>
        <pt x="422" y="249" on="0"/>
        <pt x="366" y="204" on="0"/>
        <pt x="300" y="187" on="0"/>
        <pt x="272" y="187" on="1"/>
      </contour>
      <contour>
        <pt x="182" y="481" on="1"/>
        <pt x="182" y="283" on="1"/>
        <pt x="259" y="283" on="1"/>
        <pt x="312" y="283" on="0"/>
        <pt x="358" y="328" on="0"/>
        <pt x="358" y="386" on="1"/>
        <pt x="358" y="435" on="0"/>
        <pt x="319" y="481" on="0"/>
        <pt x="260" y="481" on="1"/>
      </contour>
    </TTGlyph>
    <TTGlyph name="Q" xMin="30" yMin="-14" xMax="623" yMax="714">
      <contour>
        <pt x="562" y="-1" on="1"/>
        <pt x="503" y="54" on="1"/>
        <pt x="466" y="19" on="0"/>
        <pt x="377" y="-14" on="0"/>
        <pt x="327" y="-14" on="1"/>
        <pt x="262" y="-14" on="0"/>
        <pt x="154" y="38" on="0"/>
        <pt x="74" y="133" on="0"/>
        <pt x="30" y="267" on="0"/>
        <pt x="30" y="350" on="1"/>
        <pt x="30" y="433" on="0"/>
        <pt x="74" y="567" on="0"/>
        <pt x="154" y="662" on="0"/>
        <pt x="262" y="714" on="0"/>
        <pt x="327" y="714" on="1"/>
        <pt x="391" y="714" on="0"/>
        <pt x="500" y="662" on="0"/>
        <pt x="579" y="567" on="0"/>
        <pt x="623" y="433" on="0"/>
        <pt x="623" y="350" on="1"/>
        <pt x="623" y="284" on="0"/>
        <pt x="595" y="171" on="0"/>
        <pt x="568" y="118" on="1"/>
        <pt x="620" y="68" on="1"/>
      </contour>
      <contour>
        <pt x="327" y="615" on="1"/>
        <pt x="281" y="615" on="0"/>
        <pt x="212" y="574" on="0"/>
        <pt x="166" y="503" on="0"/>
        <pt x="143" y="406" on="0"/>
        <pt x="143" y="350" on="1"/>
        <pt x="143" y="294" on="0"/>
        <pt x="166" y="197" on="0"/>
        <pt x="212" y="126" on="0"/>
        <pt x="281" y="85" on="0"/>
        <pt x="327" y="85" on="1"/>
        <pt x="353" y="85" on="0"/>
        <pt x="403" y="99" on="0"/>
        <pt x="423" y="119" on="1"/>
        <pt x="347" y="198" on="1"/>
        <pt x="406" y="269" on="1"/>
        <pt x="484" y="183" on="1"/>
        <pt x="501" y="227" on="0"/>
        <pt x="512" y="309" on="0"/>
        <pt x="512" y="350" on="1"/>
        <pt x="512" y="406" on="0"/>
        <pt x="488" y="503" on="0"/>
        <pt x="442" y="574" on="0"/>
        <pt x="373" y="615" on="0"/>
      </contour>
    </TTGlyph>
    <TTGlyph name="Q.sc" xMin="52" yMin="-11" xMax="572" yMax="579">
      <contour>
        <pt x="514" y="-7" on="1"/>
        <pt x="461" y="38" on="1"/>
        <pt x="432" y="14" on="0"/>
        <pt x="355" y="-11" on="0"/>
        <pt x="312" y="-11" on="1"/>
        <pt x="256" y="-11" on="0"/>
        <pt x="160" y="31" on="0"/>
        <pt x="91" y="108" on="0"/>
        <pt x="52" y="217" on="0"/>
        <pt x="52" y="284" on="1"/>
        <pt x="52" y="351" on="0"/>
        <pt x="91" y="460" on="0"/>
        <pt x="160" y="537" on="0"/>
        <pt x="256" y="579" on="0"/>
        <pt x="312" y="579" on="1"/>
        <pt x="368" y="579" on="0"/>
        <pt x="463" y="537" on="0"/>
        <pt x="532" y="460" on="0"/>
        <pt x="570" y="351" on="0"/>
        <pt x="570" y="284" on="1"/>
        <pt x="570" y="231" on="0"/>
        <pt x="546" y="141" on="0"/>
        <pt x="525" y="105" on="1"/>
        <pt x="572" y="63" on="1"/>
      </contour>
      <contour>
        <pt x="312" y="480" on="1"/>
        <pt x="274" y="480" on="0"/>
        <pt x="218" y="451" on="0"/>
        <pt x="181" y="399" on="0"/>
        <pt x="162" y="327" on="0"/>
        <pt x="162" y="284" on="1"/>
        <pt x="162" y="241" on="0"/>
        <pt x="181" y="169" on="0"/>
        <pt x="218" y="116" on="0"/>
        <pt x="274" y="87" on="0"/>
        <pt x="312" y="87" on="1"/>
        <pt x="333" y="87" on="0"/>
        <pt x="366" y="97" on="0"/>
        <pt x="380" y="107" on="1"/>
        <pt x="320" y="164" on="1"/>
        <pt x="377" y="236" on="1"/>
        <pt x="442" y="175" on="1"/>
        <pt x="459" y="223" on="0"/>
        <pt x="459" y="284" on="1"/>
        <pt x="459" y="327" on="0"/>
        <pt x="441" y="399" on="0"/>
        <pt x="404" y="451" on="0"/>
        <pt x="349" y="480" on="0"/>
      </contour>
    </TTGlyph>
    <TTGlyph name="R" xMin="69" yMin="0" xMax="524" yMax="700">
      <contour>
        <pt x="415" y="0" on="1"/>
        <pt x="288" y="269" on="1"/>
        <pt x="173" y="269" on="1"/>
        <pt x="173" y="0" on="1"/>
        <pt x="69" y="0" on="1"/>
        <pt x="69" y="700" on="1"/>
        <pt x="283" y="700" on="1"/>
        <pt x="327" y="700" on="0"/>
        <pt x="403" y="680" on="0"/>
        <pt x="458" y="632" on="0"/>
        <pt x="490" y="554" on="0"/>
        <pt x="490" y="496" on="1"/>
        <pt x="490" y="425" on="0"/>
        <pt x="432" y="326" on="0"/>
        <pt x="387" y="297" on="1"/>
        <pt x="524" y="0" on="1"/>
      </contour>
      <contour>
        <pt x="173" y="613" on="1"/>
        <pt x="173" y="370" on="1"/>
        <pt x="265" y="370" on="1"/>
        <pt x="331" y="370" on="0"/>
        <pt x="383" y="428" on="0"/>
        <pt x="383" y="493" on="1"/>
        <pt x="383" y="550" on="0"/>
        <pt x="333" y="613" on="0"/>
        <pt x="264" y="613" on="1"/>
      </contour>
    </TTGlyph>
    <TTGlyph name="R.sc" xMin="82" yMin="0" xMax="488" yMax="567">
      <contour>
        <pt x="385" y="0" on="1"/>
        <pt x="277" y="211" on="1"/>
        <pt x="182" y="211" on="1"/>
        <pt x="182" y="0" on="1"/>
        <pt x="82" y="0" on="1"/>
        <pt x="82" y="567" on="1"/>
        <pt x="278" y="567" on="1"/>
        <pt x="315" y="567" on="0"/>
        <pt x="381" y="551" on="0"/>
        <pt x="430" y="513" on="0"/>
        <pt x="458" y="450" on="0"/>
        <pt x="458" y="404" on="1"/>
        <pt x="458" y="371" on="0"/>
        <pt x="444" y="320" on="0"/>
        <pt x="420" y="281" on="0"/>
        <pt x="388" y="250" on="0"/>
        <pt x="370" y="238" on="1"/>
        <pt x="488" y="0" on="1"/>
      </contour>
      <contour>
        <pt x="182" y="482" on="1"/>
        <pt x="182" y="308" on="1"/>
        <pt x="245" y="308" on="1"/>
        <pt x="281" y="308" on="0"/>
        <pt x="323" y="321" on="0"/>
        <pt x="346" y="344" on="0"/>
        <pt x="353" y="376" on="0"/>
        <pt x="353" y="396" on="1"/>
        <pt x="353" y="416" on="0"/>
        <pt x="345" y="448" on="0"/>
        <pt x="323" y="470" on="0"/>
        <pt x="284" y="482" on="0"/>
        <pt x="252" y="482" on="1"/>
      </contour>
    </TTGlyph>
    <TTGlyph name="S" xMin="33" yMin="-14" xMax="474" yMax="714">
      <contour>
        <pt x="241" y="-14" on="1"/>
        <pt x="175" y="-14" on="0"/>
        <pt x="70" y="13" on="0"/>
        <pt x="42" y="33" on="1"/>
        <pt x="54" y="155" on="1"/>
        <pt x="83" y="123" on="0"/>
        <pt x="183" y="85" on="0"/>
        <pt x="237" y="85" on="1"/>
        <pt x="296" y="85" on="0"/>
        <pt x="359" y="133" on="0"/>
        <pt x="359" y="180" on="1"/>
        <pt x="359" y="207" on="0"/>
        <pt x="338" y="244" on="0"/>
        <pt x="300" y="274" on="0"/>
        <pt x="247" y="300" on="0"/>
        <pt x="215" y="315" on="1"/>
        <pt x="176" y="333" on="0"/>
        <pt x="110" y="366" on="0"/>
        <pt x="61" y="409" on="0"/>
        <pt x="33" y="469" on="0"/>
        <pt x="33" y="513" on="1"/>
        <pt x="33" y="552" on="0"/>
        <pt x="57" y="625" on="0"/>
        <pt x="110" y="681" on="0"/>
        <pt x="192" y="714" on="0"/>
        <pt x="250" y="714" on="1"/>
        <pt x="279" y="714" on="0"/>
        <pt x="337" y="706" on="0"/>
        <pt x="387" y="692" on="0"/>
        <pt x="428" y="674" on="0"/>
        <pt x="441" y="664" on="1"/>
        <pt x="430" y="555" on="1"/>
        <pt x="381" y="587" on="0"/>
        <pt x="295" y="616" on="0"/>
        <pt x="260" y="616" on="1"/>
        <pt x="237" y="616" on="0"/>
        <pt x="193" y="604" on="0"/>
        <pt x="160" y="580" on="0"/>
        <pt x="140" y="544" on="0"/>
        <pt x="140" y="521" on="1"/>
        <pt x="140" y="498" on="0"/>
        <pt x="160" y="465" on="0"/>
        <pt x="194" y="440" on="0"/>
        <pt x="238" y="420" on="0"/>
        <pt x="263" y="410" on="1"/>
        <pt x="308" y="392" on="0"/>
        <pt x="385" y="356" on="0"/>
        <pt x="442" y="306" on="0"/>
        <pt x="474" y="234" on="0"/>
        <pt x="474" y="179" on="1"/>
        <pt x="474" y="140" on="0"/>
        <pt x="454" y="70" on="0"/>
        <pt x="401" y="17" on="0"/>
        <pt x="311" y="-14" on="0"/>
      </contour>
    </TTGlyph>
    <TTGlyph name="S.sc" xMin="54" yMin="-11" xMax="439" yMax="579">
      <contour>
        <pt x="237" y="-11" on="1"/>
        <pt x="176" y="-11" on="0"/>
        <pt x="84" y="14" on="0"/>
        <pt x="61" y="30" on="1"/>
        <pt x="73" y="147" on="1"/>
        <pt x="94" y="124" on="0"/>
        <pt x="179" y="87" on="0"/>
        <pt x="239" y="87" on="1"/>
        <pt x="280" y="87" on="0"/>
        <pt x="327" y="115" on="0"/>
        <pt x="327" y="150" on="1"/>
        <pt x="327" y="172" on="0"/>
        <pt x="307" y="202" on="0"/>
        <pt x="274" y="225" on="0"/>
        <pt x="230" y="242" on="0"/>
        <pt x="207" y="251" on="1"/>
        <pt x="180" y="261" on="0"/>
        <pt x="125" y="285" on="0"/>
        <pt x="81" y="320" on="0"/>
        <pt x="54" y="371" on="0"/>
        <pt x="54" y="409" on="1"/>
        <pt x="54" y="437" on="0"/>
        <pt x="74" y="497" on="0"/>
        <pt x="119" y="547" on="0"/>
        <pt x="192" y="579" on="0"/>
        <pt x="245" y="579" on="1"/>
        <pt x="272" y="579" on="0"/>
        <pt x="324" y="571" on="0"/>
        <pt x="368" y="558" on="0"/>
        <pt x="403" y="542" on="0"/>
        <pt x="413" y="535" on="1"/>
        <pt x="402" y="430" on="1"/>
        <pt x="359" y="455" on="0"/>
        <pt x="286" y="481" on="0"/>
        <pt x="248" y="481" on="1"/>
        <pt x="233" y="481" on="0"/>
        <pt x="201" y="476" on="0"/>
        <pt x="173" y="462" on="0"/>
        <pt x="155" y="438" on="0"/>
        <pt x="155" y="420" on="1"/>
        <pt x="155" y="403" on="0"/>
        <pt x="172" y="378" on="0"/>
        <pt x="201" y="359" on="0"/>
        <pt x="239" y="344" on="0"/>
        <pt x="260" y="338" on="1"/>
        <pt x="290" y="329" on="0"/>
        <pt x="353" y="304" on="0"/>
        <pt x="406" y="263" on="0"/>
        <pt x="439" y="200" on="0"/>
        <pt x="439" y="153" on="1"/>
        <pt x="439" y="129" on="0"/>
        <pt x="425" y="72" on="0"/>
        <pt x="382" y="22" on="0"/>
        <pt x="303" y="-11" on="0"/>
      </contour>
    </TTGlyph>
    <TTGlyph name="Scaron" xMin="33" yMin="-14" xMax="474" yMax="950">
      <component glyphName="S" x="0" y="0" flags="0x204"/>
      <component glyphName="caron" x="58" y="207" flags="0x4"/>
    </TTGlyph>
    <TTGlyph name="T" xMin="15" yMin="0" xMax="461" yMax="700">
      <contour>
        <pt x="290" y="601" on="1"/>
        <pt x="290" y="0" on="1"/>
        <pt x="186" y="0" on="1"/>
        <pt x="186" y="601" on="1"/>
        <pt x="15" y="601" on="1"/>
        <pt x="15" y="700" on="1"/>
        <pt x="461" y="700" on="1"/>
        <pt x="461" y="601" on="1"/>
      </contour>
    </TTGlyph>
    <TTGlyph name="T.sc" xMin="36" yMin="0" xMax="432" yMax="567">
      <contour>
        <pt x="284" y="468" on="1"/>
        <pt x="284" y="0" on="1"/>
        <pt x="183" y="0" on="1"/>
        <pt x="183" y="468" on="1"/>
        <pt x="36" y="468" on="1"/>
        <pt x="36" y="567" on="1"/>
        <pt x="432" y="567" on="1"/>
        <pt x="432" y="468" on="1"/>
      </contour>
    </TTGlyph>
    <TTGlyph name="Thorn" xMin="69" yMin="0" xMax="491" yMax="700">
      <contour>
        <pt x="173" y="121" on="1"/>
        <pt x="173" y="0" on="1"/>
        <pt x="69" y="0" on="1"/>
        <pt x="69" y="700" on="1"/>
        <pt x="173" y="700" on="1"/>
        <pt x="173" y="581" on="1"/>
        <pt x="245" y="581" on="1"/>
        <pt x="303" y="581" on="0"/>
        <pt x="394" y="566" on="0"/>
        <pt x="457" y="519" on="0"/>
        <pt x="491" y="433" on="0"/>
        <pt x="491" y="362" on="1"/>
        <pt x="491" y="291" on="0"/>
        <pt x="451" y="198" on="0"/>
        <pt x="390" y="143" on="0"/>
        <pt x="318" y="121" on="0"/>
        <pt x="287" y="121" on="1"/>
      </contour>
      <contour>
        <pt x="173" y="489" on="1"/>
        <pt x="173" y="218" on="1"/>
        <pt x="272" y="218" on="1"/>
        <pt x="332" y="218" on="0"/>
        <pt x="386" y="288" on="0"/>
        <pt x="386" y="359" on="1"/>
        <pt x="386" y="394" on="0"/>
        <pt x="375" y="443" on="0"/>
        <pt x="347" y="475" on="0"/>
        <pt x="300" y="489" on="0"/>
        <pt x="264" y="489" on="1"/>
      </contour>
    </TTGlyph>
    <TTGlyph name="U" xMin="59" yMin="-14" xMax="558" yMax="700">
      <contour>
        <pt x="308" y="-14" on="1"/>
        <pt x="245" y="-14" on="0"/>
        <pt x="151" y="30" on="0"/>
        <pt x="89" y="111" on="0"/>
        <pt x="59" y="226" on="0"/>
        <pt x="59" y="298" on="1"/>
        <pt x="59" y="700" on="1"/>
        <pt x="163" y="700" on="1"/>
        <pt x="163" y="343" on="1"/>
        <pt x="163" y="292" on="0"/>
        <pt x="174" y="199" on="0"/>
        <pt x="205" y="128" on="0"/>
        <pt x="262" y="85" on="0"/>
        <pt x="308" y="85" on="1"/>
        <pt x="354" y="85" on="0"/>
        <pt x="411" y="128" on="0"/>
        <pt x="443" y="199" on="0"/>
        <pt x="454" y="292" on="0"/>
        <pt x="454" y="343" on="1"/>
        <pt x="454" y="700" on="1"/>
        <pt x="558" y="700" on="1"/>
        <pt x="558" y="298" on="1"/>
        <pt x="558" y="226" on="0"/>
        <pt x="528" y="111" on="0"/>
        <pt x="466" y="30" on="0"/>
        <pt x="372" y="-14" on="0"/>
      </contour>
    </TTGlyph>
    <TTGlyph name="U.sc" xMin="78" yMin="-11" xMax="513" yMax="567">
      <contour>
        <pt x="295" y="-11" on="1"/>
        <pt x="240" y="-11" on="0"/>
        <pt x="158" y="25" on="0"/>
        <pt x="104" y="91" on="0"/>
        <pt x="78" y="185" on="0"/>
        <pt x="78" y="243" on="1"/>
        <pt x="78" y="567" on="1"/>
        <pt x="178" y="567" on="1"/>
        <pt x="178" y="278" on="1"/>
        <pt x="178" y="238" on="0"/>
        <pt x="187" y="169" on="0"/>
        <pt x="212" y="117" on="0"/>
        <pt x="258" y="87" on="0"/>
        <pt x="295" y="87" on="1"/>
        <pt x="332" y="87" on="0"/>
        <pt x="378" y="117" on="0"/>
        <pt x="404" y="169" on="0"/>
        <pt x="413" y="238" on="0"/>
        <pt x="413" y="278" on="1"/>
        <pt x="413" y="567" on="1"/>
        <pt x="513" y="567" on="1"/>
        <pt x="513" y="243" on="1"/>
        <pt x="513" y="185" on="0"/>
        <pt x="487" y="91" on="0"/>
        <pt x="433" y="25" on="0"/>
        <pt x="351" y="-11" on="0"/>
      </contour>
    </TTGlyph>
    <TTGlyph name="Uacute" xMin="59" yMin="-14" xMax="558" yMax="945">
      <component glyphName="U" x="0" y="0" flags="0x204"/>
      <component glyphName="acute" x="178" y="207" flags="0x4"/>
    </TTGlyph>
    <TTGlyph name="Ucircumflex" xMin="59" yMin="-14" xMax="558" yMax="954">
      <component glyphName="U" x="0" y="0" flags="0x204"/>
      <component glyphName="circumflex" x="117" y="207" flags="0x4"/>
    </TTGlyph>
    <TTGlyph name="Udieresis" xMin="59" yMin="-14" xMax="558" yMax="907">
      <component glyphName="U" x="0" y="0" flags="0x204"/>
      <component glyphName="dieresis" x="127" y="207" flags="0x4"/>
    </TTGlyph>
    <TTGlyph name="Ugrave" xMin="59" yMin="-14" xMax="558" yMax="945">
      <component glyphName="U" x="0" y="0" flags="0x204"/>
      <component glyphName="grave" x="178" y="207" flags="0x4"/>
    </TTGlyph>
    <TTGlyph name="V" xMin="3" yMin="0" xMax="561" yMax="700">
      <contour>
        <pt x="346" y="0" on="1"/>
        <pt x="223" y="0" on="1"/>
        <pt x="3" y="700" on="1"/>
        <pt x="111" y="700" on="1"/>
        <pt x="284" y="130" on="1"/>
        <pt x="455" y="700" on="1"/>
        <pt x="561" y="700" on="1"/>
      </contour>
    </TTGlyph>
    <TTGlyph name="V.sc" xMin="26" yMin="0" xMax="519" yMax="567">
      <contour>
        <pt x="337" y="0" on="1"/>
        <pt x="213" y="0" on="1"/>
        <pt x="26" y="567" on="1"/>
        <pt x="130" y="567" on="1"/>
        <pt x="274" y="135" on="1"/>
        <pt x="416" y="567" on="1"/>
        <pt x="519" y="567" on="1"/>
      </contour>
    </TTGlyph>
    <TTGlyph name="W" xMin="9" yMin="0" xMax="823" yMax="700">
      <contour>
        <pt x="647" y="0" on="1"/>
        <pt x="552" y="0" on="1"/>
        <pt x="415" y="523" on="1"/>
        <pt x="279" y="0" on="1"/>
        <pt x="178" y="0" on="1"/>
        <pt x="9" y="700" on="1"/>
        <pt x="117" y="700" on="1"/>
        <pt x="240" y="147" on="1"/>
        <pt x="378" y="691" on="1"/>
        <pt x="454" y="691" on="1"/>
        <pt x="596" y="152" on="1"/>
        <pt x="716" y="700" on="1"/>
        <pt x="823" y="700" on="1"/>
      </contour>
    </TTGlyph>
    <TTGlyph name="W.sc" xMin="34" yMin="0" xMax="745" yMax="567">
      <contour>
        <pt x="592" y="0" on="1"/>
        <pt x="505" y="0" on="1"/>
        <pt x="390" y="382" on="1"/>
        <pt x="275" y="0" on="1"/>
        <pt x="182" y="0" on="1"/>
        <pt x="34" y="567" on="1"/>
        <pt x="138" y="567" on="1"/>
        <pt x="242" y="161" on="1"/>
        <pt x="356" y="567" on="1"/>
        <pt x="423" y="567" on="1"/>
        <pt x="543" y="171" on="1"/>
        <pt x="642" y="567" on="1"/>
        <pt x="745" y="567" on="1"/>
      </contour>
    </TTGlyph>
    <TTGlyph name="X" xMin="0" yMin="0" xMax="533" yMax="700">
      <contour>
        <pt x="415" y="0" on="1"/>
        <pt x="263" y="276" on="1"/>
        <pt x="118" y="0" on="1"/>
        <pt x="0" y="0" on="1"/>
        <pt x="210" y="349" on="1"/>
        <pt x="8" y="700" on="1"/>
        <pt x="127" y="700" on="1"/>
        <pt x="271" y="436" on="1"/>
        <pt x="407" y="700" on="1"/>
        <pt x="524" y="700" on="1"/>
        <pt x="322" y="362" on="1"/>
        <pt x="533" y="0" on="1"/>
      </contour>
    </TTGlyph>
    <TTGlyph name="X.sc" xMin="18" yMin="0" xMax="497" yMax="567">
      <contour>
        <pt x="380" y="0" on="1"/>
        <pt x="256" y="209" on="1"/>
        <pt x="134" y="0" on="1"/>
        <pt x="18" y="0" on="1"/>
        <pt x="205" y="283" on="1"/>
        <pt x="28" y="567" on="1"/>
        <pt x="144" y="567" on="1"/>
        <pt x="263" y="367" on="1"/>
        <pt x="369" y="567" on="1"/>
        <pt x="485" y="567" on="1"/>
        <pt x="314" y="294" on="1"/>
        <pt x="497" y="0" on="1"/>
      </contour>
    </TTGlyph>
    <TTGlyph name="Y" xMin="-7" yMin="0" xMax="511" yMax="700">
      <contour>
        <pt x="304" y="319" on="1"/>
        <pt x="304" y="0" on="1"/>
        <pt x="200" y="0" on="1"/>
        <pt x="200" y="319" on="1"/>
        <pt x="-7" y="700" on="1"/>
        <pt x="102" y="700" on="1"/>
        <pt x="252" y="414" on="1"/>
        <pt x="401" y="700" on="1"/>
        <pt x="511" y="700" on="1"/>
      </contour>
    </TTGlyph>
    <TTGlyph name="Y.sc" xMin="13" yMin="0" xMax="477" yMax="567">
      <contour>
        <pt x="295" y="252" on="1"/>
        <pt x="295" y="0" on="1"/>
        <pt x="196" y="0" on="1"/>
        <pt x="196" y="252" on="1"/>
        <pt x="13" y="567" on="1"/>
        <pt x="120" y="567" on="1"/>
        <pt x="246" y="343" on="1"/>
        <pt x="371" y="567" on="1"/>
        <pt x="477" y="567" on="1"/>
      </contour>
    </TTGlyph>
    <TTGlyph name="Yacute" xMin="-7" yMin="0" xMax="511" yMax="945">
      <component glyphName="Y" x="0" y="0" flags="0x204"/>
      <component glyphName="acute" x="124" y="207" flags="0x4"/>
    </TTGlyph>
    <TTGlyph name="Ydieresis" xMin="-7" yMin="0" xMax="511" yMax="907">
      <component glyphName="Y" x="0" y="0" flags="0x204"/>
      <component glyphName="dieresis" x="73" y="207" flags="0x4"/>
    </TTGlyph>
    <TTGlyph name="Z" xMin="7" yMin="0" xMax="465" yMax="700">
      <contour>
        <pt x="178" y="99" on="1"/>
        <pt x="427" y="99" on="1"/>
        <pt x="427" y="0" on="1"/>
        <pt x="7" y="0" on="1"/>
        <pt x="295" y="601" on="1"/>
        <pt x="46" y="601" on="1"/>
        <pt x="46" y="700" on="1"/>
        <pt x="465" y="700" on="1"/>
      </contour>
    </TTGlyph>
    <TTGlyph name="Z.sc" xMin="32" yMin="0" xMax="432" yMax="567">
      <contour>
        <pt x="197" y="99" on="1"/>
        <pt x="398" y="99" on="1"/>
        <pt x="398" y="0" on="1"/>
        <pt x="32" y="0" on="1"/>
        <pt x="267" y="468" on="1"/>
        <pt x="66" y="468" on="1"/>
        <pt x="66" y="567" on="1"/>
        <pt x="432" y="567" on="1"/>
      </contour>
    </TTGlyph>
    <TTGlyph name="Zcaron" xMin="7" yMin="0" xMax="465" yMax="950">
      <component glyphName="Z" x="0" y="0" flags="0x204"/>
      <component glyphName="caron" x="45" y="207" flags="0x4"/>
    </TTGlyph>
    <TTGlyph name="a" xMin="20" yMin="-10" xMax="417" yMax="503">
      <contour>
        <pt x="407" y="-10" on="1"/>
        <pt x="376" y="-10" on="1"/>
        <pt x="334" y="-10" on="0"/>
        <pt x="289" y="25" on="0"/>
        <pt x="277" y="57" on="1"/>
        <pt x="254" y="26" on="0"/>
        <pt x="185" y="-10" on="0"/>
        <pt x="146" y="-10" on="1"/>
        <pt x="119" y="-10" on="0"/>
        <pt x="73" y="11" on="0"/>
        <pt x="39" y="49" on="0"/>
        <pt x="20" y="102" on="0"/>
        <pt x="20" y="135" on="1"/>
        <pt x="20" y="187" on="0"/>
        <pt x="72" y="255" on="0"/>
        <pt x="147" y="294" on="0"/>
        <pt x="231" y="310" on="0"/>
        <pt x="264" y="311" on="1"/>
        <pt x="263" y="341" on="0"/>
        <pt x="253" y="381" on="0"/>
        <pt x="234" y="404" on="0"/>
        <pt x="204" y="413" on="0"/>
        <pt x="183" y="413" on="1"/>
        <pt x="155" y="413" on="0"/>
        <pt x="101" y="396" on="0"/>
        <pt x="67" y="372" on="1"/>
        <pt x="57" y="454" on="1"/>
        <pt x="93" y="477" on="0"/>
        <pt x="169" y="503" on="0"/>
        <pt x="210" y="503" on="1"/>
        <pt x="247" y="503" on="0"/>
        <pt x="305" y="480" on="0"/>
        <pt x="344" y="427" on="0"/>
        <pt x="365" y="341" on="0"/>
        <pt x="365" y="279" on="1"/>
        <pt x="365" y="167" on="1"/>
        <pt x="365" y="113" on="0"/>
        <pt x="379" y="72" on="0"/>
        <pt x="404" y="72" on="1"/>
        <pt x="417" y="72" on="1"/>
      </contour>
      <contour>
        <pt x="264" y="242" on="1"/>
        <pt x="236" y="240" on="0"/>
        <pt x="185" y="227" on="0"/>
        <pt x="147" y="202" on="0"/>
        <pt x="124" y="165" on="0"/>
        <pt x="124" y="140" on="1"/>
        <pt x="124" y="103" on="0"/>
        <pt x="153" y="70" on="0"/>
        <pt x="183" y="70" on="1"/>
        <pt x="202" y="70" on="0"/>
        <pt x="247" y="100" on="0"/>
        <pt x="264" y="126" on="1"/>
      </contour>
    </TTGlyph>
    <TTGlyph name="aacute" xMin="20" yMin="-10" xMax="417" yMax="738">
      <component glyphName="a" x="0" y="0" flags="0x4"/>
      <component glyphName="acute" x="83" y="0" flags="0x4"/>
    </TTGlyph>
    <TTGlyph name="acircumflex" xMin="20" yMin="-10" xMax="417" yMax="747">
      <component glyphName="a" x="0" y="0" flags="0x4"/>
      <component glyphName="circumflex" x="23" y="0" flags="0x4"/>
    </TTGlyph>
    <TTGlyph name="acute" xMin="50" yMin="592" xMax="211" yMax="738">
      <contour>
        <pt x="50" y="592" on="1"/>
        <pt x="50" y="645" on="1"/>
        <pt x="211" y="738" on="1"/>
        <pt x="211" y="655" on="1"/>
      </contour>
    </TTGlyph>
    <TTGlyph name="adieresis" xMin="20" yMin="-10" xMax="417" yMax="700">
      <component glyphName="a" x="0" y="0" flags="0x4"/>
      <component glyphName="dieresis" x="33" y="0" flags="0x4"/>
    </TTGlyph>
    <TTGlyph name="ae" xMin="17" yMin="-14" xMax="659" yMax="503">
      <contour>
        <pt x="376" y="237" on="1"/>
        <pt x="384" y="152" on="0"/>
        <pt x="456" y="72" on="0"/>
        <pt x="504" y="72" on="1"/>
        <pt x="534" y="72" on="0"/>
        <pt x="603" y="94" on="0"/>
        <pt x="632" y="111" on="1"/>
        <pt x="639" y="29" on="1"/>
        <pt x="613" y="13" on="0"/>
        <pt x="542" y="-10" on="0"/>
        <pt x="497" y="-10" on="1"/>
        <pt x="433" y="-10" on="0"/>
        <pt x="346" y="42" on="0"/>
        <pt x="325" y="96" on="1"/>
        <pt x="298" y="43" on="0"/>
        <pt x="215" y="-14" on="0"/>
        <pt x="155" y="-14" on="1"/>
        <pt x="88" y="-14" on="0"/>
        <pt x="17" y="59" on="0"/>
        <pt x="17" y="121" on="1"/>
        <pt x="17" y="178" on="0"/>
        <pt x="69" y="250" on="0"/>
        <pt x="144" y="291" on="0"/>
        <pt x="230" y="307" on="0"/>
        <pt x="263" y="309" on="1"/>
        <pt x="260" y="365" on="0"/>
        <pt x="224" y="413" on="0"/>
        <pt x="179" y="413" on="1"/>
        <pt x="150" y="413" on="0"/>
        <pt x="98" y="398" on="0"/>
        <pt x="65" y="381" on="1"/>
        <pt x="56" y="462" on="1"/>
        <pt x="133" y="503" on="0"/>
        <pt x="206" y="503" on="1"/>
        <pt x="228" y="503" on="0"/>
        <pt x="270" y="494" on="0"/>
        <pt x="304" y="470" on="0"/>
        <pt x="330" y="427" on="0"/>
        <pt x="338" y="393" on="1"/>
        <pt x="350" y="449" on="0"/>
        <pt x="436" y="503" on="0"/>
        <pt x="490" y="503" on="1"/>
        <pt x="527" y="503" on="0"/>
        <pt x="589" y="475" on="0"/>
        <pt x="634" y="423" on="0"/>
        <pt x="659" y="346" on="0"/>
        <pt x="659" y="298" on="1"/>
        <pt x="659" y="281" on="0"/>
        <pt x="655" y="251" on="0"/>
        <pt x="653" y="237" on="1"/>
      </contour>
      <contour>
        <pt x="486" y="415" on="1"/>
        <pt x="445" y="415" on="0"/>
        <pt x="388" y="361" on="0"/>
        <pt x="380" y="307" on="1"/>
        <pt x="568" y="307" on="1"/>
        <pt x="568" y="358" on="0"/>
        <pt x="531" y="415" on="0"/>
      </contour>
      <contour>
        <pt x="270" y="240" on="1"/>
        <pt x="246" y="240" on="0"/>
        <pt x="194" y="228" on="0"/>
        <pt x="150" y="202" on="0"/>
        <pt x="121" y="160" on="0"/>
        <pt x="121" y="130" on="1"/>
        <pt x="121" y="98" on="0"/>
        <pt x="153" y="69" on="0"/>
        <pt x="176" y="69" on="1"/>
        <pt x="192" y="69" on="0"/>
        <pt x="226" y="83" on="0"/>
        <pt x="253" y="115" on="0"/>
        <pt x="271" y="164" on="0"/>
        <pt x="271" y="199" on="1"/>
        <pt x="271" y="209" on="0"/>
        <pt x="271" y="228" on="0"/>
      </contour>
    </TTGlyph>
    <TTGlyph name="agrave" xMin="20" yMin="-10" xMax="417" yMax="738">
      <component glyphName="a" x="0" y="0" flags="0x4"/>
      <component glyphName="grave" x="83" y="0" flags="0x4"/>
    </TTGlyph>
    <TTGlyph name="ampersand" xMin="28" yMin="-23" xMax="530" yMax="703">
      <contour>
        <pt x="417" y="0" on="1"/>
        <pt x="388" y="42" on="1"/>
        <pt x="356" y="7" on="0"/>
        <pt x="280" y="-23" on="0"/>
        <pt x="228" y="-23" on="1"/>
        <pt x="175" y="-23" on="0"/>
        <pt x="100" y="7" on="0"/>
        <pt x="51" y="58" on="0"/>
        <pt x="28" y="126" on="0"/>
        <pt x="28" y="164" on="1"/>
        <pt x="28" y="226" on="0"/>
        <pt x="88" y="323" on="0"/>
        <pt x="134" y="366" on="1"/>
        <pt x="105" y="414" on="0"/>
        <pt x="69" y="498" on="0"/>
        <pt x="69" y="537" on="1"/>
        <pt x="69" y="576" on="0"/>
        <pt x="98" y="638" on="0"/>
        <pt x="146" y="680" on="0"/>
        <pt x="208" y="703" on="0"/>
        <pt x="242" y="703" on="1"/>
        <pt x="308" y="703" on="0"/>
        <pt x="376" y="628" on="0"/>
        <pt x="376" y="571" on="1"/>
        <pt x="376" y="536" on="0"/>
        <pt x="354" y="476" on="0"/>
        <pt x="318" y="424" on="0"/>
        <pt x="273" y="380" on="0"/>
        <pt x="249" y="361" on="1"/>
        <pt x="380" y="178" on="1"/>
        <pt x="384" y="193" on="0"/>
        <pt x="389" y="239" on="0"/>
        <pt x="392" y="288" on="0"/>
        <pt x="394" y="335" on="0"/>
        <pt x="394" y="351" on="1"/>
        <pt x="488" y="351" on="1"/>
        <pt x="488" y="329" on="0"/>
        <pt x="485" y="271" on="0"/>
        <pt x="475" y="206" on="0"/>
        <pt x="458" y="138" on="0"/>
        <pt x="443" y="107" on="1"/>
        <pt x="530" y="0" on="1"/>
      </contour>
      <contour>
        <pt x="236" y="624" on="1"/>
        <pt x="207" y="624" on="0"/>
        <pt x="166" y="579" on="0"/>
        <pt x="166" y="534" on="1"/>
        <pt x="166" y="511" on="0"/>
        <pt x="185" y="452" on="0"/>
        <pt x="207" y="415" on="1"/>
        <pt x="225" y="434" on="0"/>
        <pt x="256" y="467" on="0"/>
        <pt x="277" y="499" on="0"/>
        <pt x="289" y="534" on="0"/>
        <pt x="289" y="555" on="1"/>
        <pt x="289" y="590" on="0"/>
        <pt x="260" y="624" on="0"/>
      </contour>
      <contour>
        <pt x="181" y="309" on="1"/>
        <pt x="158" y="284" on="0"/>
        <pt x="131" y="214" on="0"/>
        <pt x="131" y="172" on="1"/>
        <pt x="131" y="149" on="0"/>
        <pt x="141" y="106" on="0"/>
        <pt x="166" y="73" on="0"/>
        <pt x="208" y="54" on="0"/>
        <pt x="240" y="54" on="1"/>
        <pt x="274" y="54" on="0"/>
        <pt x="320" y="82" on="0"/>
        <pt x="336" y="105" on="1"/>
      </contour>
    </TTGlyph>
    <TTGlyph name="aring" xMin="20" yMin="-10" xMax="417" yMax="755">
      <component glyphName="a" x="0" y="0" flags="0x4"/>
      <component glyphName="ring" x="89" y="0" flags="0x4"/>
    </TTGlyph>
    <TTGlyph name="asciicircum" xMin="42" yMin="424" xMax="396" yMax="759">
      <contour>
        <pt x="219" y="639" on="1"/>
        <pt x="42" y="424" on="1"/>
        <pt x="42" y="544" on="1"/>
        <pt x="219" y="759" on="1"/>
        <pt x="396" y="544" on="1"/>
        <pt x="396" y="424" on="1"/>
      </contour>
    </TTGlyph>
    <TTGlyph name="asciitilde" xMin="68" yMin="178" xMax="385" yMax="288">
      <contour>
        <pt x="286" y="178" on="1"/>
        <pt x="270" y="178" on="0"/>
        <pt x="240" y="193" on="0"/>
        <pt x="213" y="211" on="0"/>
        <pt x="188" y="226" on="0"/>
        <pt x="176" y="226" on="1"/>
        <pt x="156" y="226" on="0"/>
        <pt x="134" y="198" on="0"/>
        <pt x="130" y="178" on="1"/>
        <pt x="68" y="190" on="1"/>
        <pt x="71" y="215" on="0"/>
        <pt x="92" y="251" on="0"/>
        <pt x="121" y="273" on="0"/>
        <pt x="155" y="284" on="0"/>
        <pt x="171" y="284" on="1"/>
        <pt x="189" y="284" on="0"/>
        <pt x="218" y="270" on="0"/>
        <pt x="242" y="252" on="0"/>
        <pt x="265" y="238" on="0"/>
        <pt x="277" y="238" on="1"/>
        <pt x="297" y="238" on="0"/>
        <pt x="324" y="267" on="0"/>
        <pt x="329" y="288" on="1"/>
        <pt x="385" y="275" on="1"/>
        <pt x="379" y="233" on="0"/>
        <pt x="328" y="178" on="0"/>
      </contour>
    </TTGlyph>
    <TTGlyph name="asterisk" xMin="31" yMin="419" xMax="356" yMax="749">
      <contour>
        <pt x="195" y="556" on="1"/>
        <pt x="118" y="419" on="1"/>
        <pt x="67" y="462" on="1"/>
        <pt x="169" y="570" on="1"/>
        <pt x="31" y="631" on="1"/>
        <pt x="66" y="686" on="1"/>
        <pt x="183" y="593" on="1"/>
        <pt x="158" y="749" on="1"/>
        <pt x="229" y="749" on="1"/>
        <pt x="202" y="593" on="1"/>
        <pt x="321" y="686" on="1"/>
        <pt x="356" y="630" on="1"/>
        <pt x="219" y="572" on="1"/>
        <pt x="322" y="465" on="1"/>
        <pt x="271" y="422" on="1"/>
      </contour>
    </TTGlyph>
    <TTGlyph name="at" xMin="35" yMin="-87" xMax="573" yMax="553">
      <contour>
        <pt x="462" y="379" on="1"/>
        <pt x="445" y="399" on="0"/>
        <pt x="393" y="432" on="0"/>
        <pt x="358" y="432" on="1"/>
        <pt x="317" y="432" on="0"/>
        <pt x="239" y="383" on="0"/>
        <pt x="176" y="304" on="0"/>
        <pt x="138" y="204" on="0"/>
        <pt x="138" y="153" on="1"/>
        <pt x="138" y="131" on="0"/>
        <pt x="146" y="90" on="0"/>
        <pt x="165" y="59" on="0"/>
        <pt x="195" y="40" on="0"/>
        <pt x="216" y="40" on="1"/>
        <pt x="235" y="40" on="0"/>
        <pt x="277" y="55" on="0"/>
        <pt x="319" y="85" on="0"/>
        <pt x="357" y="128" on="0"/>
        <pt x="371" y="156" on="1"/>
        <pt x="371" y="151" on="0"/>
        <pt x="369" y="132" on="0"/>
        <pt x="369" y="121" on="1"/>
        <pt x="369" y="109" on="0"/>
        <pt x="374" y="81" on="0"/>
        <pt x="385" y="58" on="0"/>
        <pt x="404" y="42" on="0"/>
        <pt x="419" y="42" on="1"/>
        <pt x="431" y="42" on="0"/>
        <pt x="461" y="53" on="0"/>
        <pt x="491" y="71" on="0"/>
        <pt x="520" y="94" on="0"/>
        <pt x="530" y="106" on="1"/>
        <pt x="510" y="63" on="0"/>
        <pt x="450" y="-8" on="0"/>
        <pt x="377" y="-59" on="0"/>
        <pt x="293" y="-87" on="0"/>
        <pt x="248" y="-87" on="1"/>
        <pt x="150" y="-87" on="0"/>
        <pt x="35" y="48" on="0"/>
        <pt x="35" y="170" on="1"/>
        <pt x="35" y="252" on="0"/>
        <pt x="88" y="392" on="0"/>
        <pt x="177" y="495" on="0"/>
        <pt x="294" y="553" on="0"/>
        <pt x="359" y="553" on="1"/>
        <pt x="410" y="553" on="0"/>
        <pt x="489" y="517" on="0"/>
        <pt x="544" y="451" on="0"/>
        <pt x="573" y="358" on="0"/>
        <pt x="573" y="300" on="1"/>
        <pt x="573" y="262" on="0"/>
        <pt x="560" y="188" on="0"/>
        <pt x="531" y="130" on="0"/>
        <pt x="484" y="94" on="0"/>
        <pt x="451" y="94" on="1"/>
        <pt x="435" y="94" on="0"/>
        <pt x="414" y="111" on="0"/>
        <pt x="414" y="145" on="1"/>
        <pt x="414" y="189" on="0"/>
        <pt x="445" y="299" on="0"/>
      </contour>
      <contour>
        <pt x="365" y="371" on="1"/>
        <pt x="373" y="371" on="0"/>
        <pt x="399" y="365" on="0"/>
        <pt x="404" y="349" on="1"/>
        <pt x="398" y="309" on="0"/>
        <pt x="363" y="223" on="0"/>
        <pt x="317" y="152" on="0"/>
        <pt x="266" y="106" on="0"/>
        <pt x="245" y="106" on="1"/>
        <pt x="225" y="106" on="0"/>
        <pt x="207" y="144" on="0"/>
        <pt x="207" y="173" on="1"/>
        <pt x="207" y="214" on="0"/>
        <pt x="239" y="286" on="0"/>
        <pt x="286" y="340" on="0"/>
        <pt x="341" y="371" on="0"/>
      </contour>
    </TTGlyph>
    <TTGlyph name="atilde" xMin="20" yMin="-10" xMax="417" yMax="709">
      <component glyphName="a" x="0" y="0" flags="0x4"/>
      <component glyphName="tilde" x="-14" y="0" flags="0x4"/>
    </TTGlyph>
    <TTGlyph name="b" xMin="50" yMin="-10" xMax="463" yMax="750">
      <contour>
        <pt x="257" y="-10" on="1"/>
        <pt x="223" y="-10" on="0"/>
        <pt x="169" y="21" on="0"/>
        <pt x="146" y="50" on="1"/>
        <pt x="143" y="0" on="1"/>
        <pt x="50" y="0" on="1"/>
        <pt x="50" y="750" on="1"/>
        <pt x="150" y="750" on="1"/>
        <pt x="150" y="450" on="1"/>
        <pt x="172" y="481" on="0"/>
        <pt x="225" y="503" on="0"/>
        <pt x="258" y="503" on="1"/>
        <pt x="308" y="503" on="0"/>
        <pt x="384" y="461" on="0"/>
        <pt x="436" y="390" on="0"/>
        <pt x="463" y="297" on="0"/>
        <pt x="463" y="246" on="1"/>
        <pt x="463" y="193" on="0"/>
        <pt x="435" y="99" on="0"/>
        <pt x="383" y="30" on="0"/>
        <pt x="306" y="-10" on="0"/>
      </contour>
      <contour>
        <pt x="250" y="415" on="1"/>
        <pt x="199" y="415" on="0"/>
        <pt x="145" y="329" on="0"/>
        <pt x="145" y="246" on="1"/>
        <pt x="145" y="161" on="0"/>
        <pt x="199" y="78" on="0"/>
        <pt x="250" y="78" on="1"/>
        <pt x="276" y="78" on="0"/>
        <pt x="317" y="104" on="0"/>
        <pt x="346" y="149" on="0"/>
        <pt x="361" y="210" on="0"/>
        <pt x="361" y="246" on="1"/>
        <pt x="361" y="283" on="0"/>
        <pt x="346" y="345" on="0"/>
        <pt x="317" y="390" on="0"/>
        <pt x="276" y="415" on="0"/>
      </contour>
    </TTGlyph>
    <TTGlyph name="backslash" xMin="31" yMin="-85" xMax="454" yMax="700">
      <contour>
        <pt x="347" y="-85" on="1"/>
        <pt x="31" y="700" on="1"/>
        <pt x="138" y="700" on="1"/>
        <pt x="454" y="-85" on="1"/>
      </contour>
    </TTGlyph>
    <TTGlyph name="bar" xMin="54" yMin="-209" xMax="137" yMax="750">
      <contour>
        <pt x="54" y="-209" on="1"/>
        <pt x="54" y="750" on="1"/>
        <pt x="137" y="750" on="1"/>
        <pt x="137" y="-209" on="1"/>
      </contour>
    </TTGlyph>
    <TTGlyph name="braceleft" xMin="15" yMin="-135" xMax="263" yMax="750">
      <contour>
        <pt x="77" y="19" on="1"/>
        <pt x="77" y="48" on="0"/>
        <pt x="83" y="126" on="0"/>
        <pt x="83" y="161" on="1"/>
        <pt x="83" y="213" on="0"/>
        <pt x="55" y="281" on="0"/>
        <pt x="15" y="307" on="1"/>
        <pt x="52" y="332" on="0"/>
        <pt x="83" y="398" on="0"/>
        <pt x="83" y="454" on="1"/>
        <pt x="83" y="489" on="0"/>
        <pt x="77" y="566" on="0"/>
        <pt x="77" y="595" on="1"/>
        <pt x="77" y="631" on="0"/>
        <pt x="95" y="687" on="0"/>
        <pt x="139" y="727" on="0"/>
        <pt x="210" y="749" on="0"/>
        <pt x="263" y="750" on="1"/>
        <pt x="263" y="667" on="1"/>
        <pt x="224" y="666" on="0"/>
        <pt x="180" y="652" on="0"/>
        <pt x="160" y="616" on="0"/>
        <pt x="156" y="555" on="0"/>
        <pt x="156" y="507" on="1"/>
        <pt x="156" y="487" on="0"/>
        <pt x="159" y="443" on="0"/>
        <pt x="159" y="422" on="1"/>
        <pt x="159" y="390" on="0"/>
        <pt x="141" y="335" on="0"/>
        <pt x="108" y="307" on="1"/>
        <pt x="141" y="280" on="0"/>
        <pt x="159" y="231" on="0"/>
        <pt x="159" y="201" on="1"/>
        <pt x="159" y="179" on="0"/>
        <pt x="156" y="134" on="0"/>
        <pt x="156" y="108" on="1"/>
        <pt x="156" y="60" on="0"/>
        <pt x="160" y="-1" on="0"/>
        <pt x="180" y="-37" on="0"/>
        <pt x="224" y="-52" on="0"/>
        <pt x="263" y="-53" on="1"/>
        <pt x="263" y="-135" on="1"/>
        <pt x="161" y="-133" on="0"/>
        <pt x="77" y="-55" on="0"/>
      </contour>
    </TTGlyph>
    <TTGlyph name="braceright" xMin="15" yMin="-135" xMax="263" yMax="750">
      <contour>
        <pt x="201" y="19" on="1"/>
        <pt x="201" y="-55" on="0"/>
        <pt x="117" y="-133" on="0"/>
        <pt x="15" y="-135" on="1"/>
        <pt x="15" y="-53" on="1"/>
        <pt x="54" y="-52" on="0"/>
        <pt x="98" y="-37" on="0"/>
        <pt x="118" y="-1" on="0"/>
        <pt x="122" y="60" on="0"/>
        <pt x="122" y="108" on="1"/>
        <pt x="122" y="134" on="0"/>
        <pt x="119" y="179" on="0"/>
        <pt x="119" y="201" on="1"/>
        <pt x="119" y="231" on="0"/>
        <pt x="137" y="280" on="0"/>
        <pt x="170" y="307" on="1"/>
        <pt x="137" y="335" on="0"/>
        <pt x="119" y="390" on="0"/>
        <pt x="119" y="422" on="1"/>
        <pt x="119" y="443" on="0"/>
        <pt x="122" y="487" on="0"/>
        <pt x="122" y="507" on="1"/>
        <pt x="122" y="555" on="0"/>
        <pt x="118" y="616" on="0"/>
        <pt x="98" y="652" on="0"/>
        <pt x="54" y="666" on="0"/>
        <pt x="15" y="667" on="1"/>
        <pt x="15" y="750" on="1"/>
        <pt x="68" y="749" on="0"/>
        <pt x="139" y="727" on="0"/>
        <pt x="183" y="687" on="0"/>
        <pt x="201" y="631" on="0"/>
        <pt x="201" y="595" on="1"/>
        <pt x="201" y="566" on="0"/>
        <pt x="195" y="489" on="0"/>
        <pt x="195" y="454" on="1"/>
        <pt x="195" y="398" on="0"/>
        <pt x="226" y="332" on="0"/>
        <pt x="263" y="307" on="1"/>
        <pt x="223" y="281" on="0"/>
        <pt x="195" y="213" on="0"/>
        <pt x="195" y="161" on="1"/>
        <pt x="195" y="126" on="0"/>
        <pt x="201" y="48" on="0"/>
      </contour>
    </TTGlyph>
    <TTGlyph name="bracketleft" xMin="58" yMin="-135" xMax="279" yMax="750">
      <contour>
        <pt x="58" y="-135" on="1"/>
        <pt x="58" y="750" on="1"/>
        <pt x="279" y="750" on="1"/>
        <pt x="279" y="668" on="1"/>
        <pt x="149" y="668" on="1"/>
        <pt x="149" y="-53" on="1"/>
        <pt x="279" y="-53" on="1"/>
        <pt x="279" y="-135" on="1"/>
      </contour>
    </TTGlyph>
    <TTGlyph name="bracketright" xMin="9" yMin="-135" xMax="230" yMax="750">
      <contour>
        <pt x="9" y="-135" on="1"/>
        <pt x="9" y="-53" on="1"/>
        <pt x="139" y="-53" on="1"/>
        <pt x="139" y="668" on="1"/>
        <pt x="9" y="668" on="1"/>
        <pt x="9" y="750" on="1"/>
        <pt x="230" y="750" on="1"/>
        <pt x="230" y="-135" on="1"/>
      </contour>
    </TTGlyph>
    <TTGlyph name="brokenbar" xMin="58" yMin="-210" xMax="134" yMax="750">
      <contour>
        <pt x="58" y="300" on="1"/>
        <pt x="58" y="750" on="1"/>
        <pt x="134" y="750" on="1"/>
        <pt x="134" y="300" on="1"/>
      </contour>
      <contour>
        <pt x="58" y="-210" on="1"/>
        <pt x="58" y="172" on="1"/>
        <pt x="134" y="172" on="1"/>
        <pt x="134" y="-210" on="1"/>
      </contour>
    </TTGlyph>
    <TTGlyph name="bullet" xMin="34" yMin="169" xMax="221" yMax="387">
      <contour>
        <pt x="128" y="169" on="1"/>
        <pt x="108" y="169" on="0"/>
        <pt x="74" y="186" on="0"/>
        <pt x="49" y="216" on="0"/>
        <pt x="34" y="255" on="0"/>
        <pt x="34" y="278" on="1"/>
        <pt x="34" y="300" on="0"/>
        <pt x="49" y="340" on="0"/>
        <pt x="74" y="370" on="0"/>
        <pt x="108" y="387" on="0"/>
        <pt x="128" y="387" on="1"/>
        <pt x="147" y="387" on="0"/>
        <pt x="181" y="370" on="0"/>
        <pt x="206" y="340" on="0"/>
        <pt x="221" y="300" on="0"/>
        <pt x="221" y="278" on="1"/>
        <pt x="221" y="255" on="0"/>
        <pt x="206" y="216" on="0"/>
        <pt x="181" y="186" on="0"/>
        <pt x="147" y="169" on="0"/>
      </contour>
    </TTGlyph>
    <TTGlyph name="c" xMin="24" yMin="-10" xMax="362" yMax="503">
      <contour>
        <pt x="233" y="-10" on="1"/>
        <pt x="181" y="-10" on="0"/>
        <pt x="103" y="31" on="0"/>
        <pt x="50" y="102" on="0"/>
        <pt x="24" y="195" on="0"/>
        <pt x="24" y="247" on="1"/>
        <pt x="24" y="300" on="0"/>
        <pt x="50" y="394" on="0"/>
        <pt x="103" y="463" on="0"/>
        <pt x="181" y="503" on="0"/>
        <pt x="233" y="503" on="1"/>
        <pt x="284" y="503" on="0"/>
        <pt x="342" y="484" on="0"/>
        <pt x="362" y="471" on="1"/>
        <pt x="352" y="381" on="1"/>
        <pt x="326" y="398" on="0"/>
        <pt x="273" y="415" on="0"/>
        <pt x="242" y="415" on="1"/>
        <pt x="185" y="415" on="0"/>
        <pt x="126" y="325" on="0"/>
        <pt x="126" y="247" on="1"/>
        <pt x="126" y="170" on="0"/>
        <pt x="185" y="77" on="0"/>
        <pt x="242" y="77" on="1"/>
        <pt x="273" y="77" on="0"/>
        <pt x="326" y="94" on="0"/>
        <pt x="352" y="111" on="1"/>
        <pt x="362" y="27" on="1"/>
        <pt x="342" y="13" on="0"/>
        <pt x="285" y="-10" on="0"/>
      </contour>
    </TTGlyph>
    <TTGlyph name="caron" xMin="65" yMin="595" xMax="318" yMax="743">
      <contour>
        <pt x="191" y="595" on="1"/>
        <pt x="65" y="691" on="1"/>
        <pt x="65" y="743" on="1"/>
        <pt x="191" y="669" on="1"/>
        <pt x="318" y="743" on="1"/>
        <pt x="318" y="691" on="1"/>
      </contour>
    </TTGlyph>
    <TTGlyph name="ccaron" xMin="24" yMin="-10" xMax="362" yMax="743">
      <component glyphName="c" x="0" y="0" flags="0x204"/>
      <component glyphName="caron" x="0" y="0" flags="0x4"/>
    </TTGlyph>
    <TTGlyph name="ccedilla" xMin="24" yMin="-193" xMax="362" yMax="503">
      <component glyphName="c" x="0" y="0" flags="0x204"/>
      <component glyphName="cedilla" x="33" y="0" flags="0x4"/>
    </TTGlyph>
    <TTGlyph name="cedilla" xMin="114" yMin="-193" xMax="255" yMax="-53">
      <contour>
        <pt x="172" y="-186" on="1"/>
        <pt x="114" y="-193" on="1"/>
        <pt x="173" y="-60" on="1"/>
        <pt x="255" y="-53" on="1"/>
      </contour>
    </TTGlyph>
    <TTGlyph name="cent" xMin="29" yMin="-31" xMax="366" yMax="748">
      <contour>
        <pt x="277" y="-31" on="1"/>
        <pt x="189" y="-31" on="1"/>
        <pt x="203" y="90" on="1"/>
        <pt x="162" y="96" on="0"/>
        <pt x="97" y="139" on="0"/>
        <pt x="52" y="206" on="0"/>
        <pt x="29" y="294" on="0"/>
        <pt x="29" y="346" on="1"/>
        <pt x="29" y="395" on="0"/>
        <pt x="52" y="484" on="0"/>
        <pt x="96" y="553" on="0"/>
        <pt x="161" y="599" on="0"/>
        <pt x="203" y="606" on="1"/>
        <pt x="189" y="748" on="1"/>
        <pt x="277" y="748" on="1"/>
        <pt x="263" y="607" on="1"/>
        <pt x="301" y="605" on="0"/>
        <pt x="348" y="588" on="0"/>
        <pt x="366" y="574" on="1"/>
        <pt x="358" y="486" on="1"/>
        <pt x="332" y="503" on="0"/>
        <pt x="278" y="522" on="0"/>
        <pt x="251" y="522" on="1"/>
        <pt x="221" y="522" on="0"/>
        <pt x="177" y="495" on="0"/>
        <pt x="147" y="448" on="0"/>
        <pt x="132" y="384" on="0"/>
        <pt x="132" y="347" on="1"/>
        <pt x="132" y="269" on="0"/>
        <pt x="193" y="174" on="0"/>
        <pt x="252" y="174" on="1"/>
        <pt x="305" y="174" on="0"/>
        <pt x="358" y="209" on="1"/>
        <pt x="366" y="121" on="1"/>
        <pt x="349" y="109" on="0"/>
        <pt x="305" y="91" on="0"/>
        <pt x="266" y="88" on="1"/>
      </contour>
    </TTGlyph>
    <TTGlyph name="circumflex" xMin="65" yMin="597" xMax="318" yMax="747">
      <contour>
        <pt x="191" y="675" on="1"/>
        <pt x="65" y="597" on="1"/>
        <pt x="65" y="646" on="1"/>
        <pt x="191" y="747" on="1"/>
        <pt x="318" y="646" on="1"/>
        <pt x="318" y="597" on="1"/>
      </contour>
    </TTGlyph>
    <TTGlyph name="colon" xMin="63" yMin="0" xMax="163" yMax="440">
      <contour>
        <pt x="63" y="339" on="1"/>
        <pt x="63" y="440" on="1"/>
        <pt x="163" y="440" on="1"/>
        <pt x="163" y="339" on="1"/>
      </contour>
      <contour>
        <pt x="63" y="0" on="1"/>
        <pt x="63" y="101" on="1"/>
        <pt x="163" y="101" on="1"/>
        <pt x="163" y="0" on="1"/>
      </contour>
    </TTGlyph>
    <TTGlyph name="comma" xMin="50" yMin="-109" xMax="152" yMax="101">
      <contour>
        <pt x="72" y="-109" on="1"/>
        <pt x="50" y="-96" on="1"/>
        <pt x="79" y="-9" on="1"/>
        <pt x="51" y="0" on="1"/>
        <pt x="51" y="101" on="1"/>
        <pt x="152" y="101" on="1"/>
        <pt x="152" y="0" on="1"/>
      </contour>
    </TTGlyph>
    <TTGlyph name="copyright" xMin="34" yMin="37" xMax="568" yMax="693">
      <contour>
        <pt x="301" y="37" on="1"/>
        <pt x="243" y="37" on="0"/>
        <pt x="145" y="84" on="0"/>
        <pt x="74" y="170" on="0"/>
        <pt x="34" y="291" on="0"/>
        <pt x="34" y="365" on="1"/>
        <pt x="34" y="440" on="0"/>
        <pt x="74" y="561" on="0"/>
        <pt x="145" y="646" on="0"/>
        <pt x="243" y="693" on="0"/>
        <pt x="301" y="693" on="1"/>
        <pt x="359" y="693" on="0"/>
        <pt x="457" y="646" on="0"/>
        <pt x="528" y="561" on="0"/>
        <pt x="568" y="440" on="0"/>
        <pt x="568" y="365" on="1"/>
        <pt x="568" y="291" on="0"/>
        <pt x="528" y="170" on="0"/>
        <pt x="457" y="84" on="0"/>
        <pt x="359" y="37" on="0"/>
      </contour>
      <contour>
        <pt x="301" y="639" on="1"/>
        <pt x="249" y="639" on="0"/>
        <pt x="172" y="597" on="0"/>
        <pt x="121" y="524" on="0"/>
        <pt x="96" y="423" on="0"/>
        <pt x="96" y="365" on="1"/>
        <pt x="96" y="306" on="0"/>
        <pt x="121" y="206" on="0"/>
        <pt x="172" y="132" on="0"/>
        <pt x="249" y="90" on="0"/>
        <pt x="301" y="91" on="1"/>
        <pt x="353" y="90" on="0"/>
        <pt x="430" y="132" on="0"/>
        <pt x="481" y="206" on="0"/>
        <pt x="507" y="306" on="0"/>
        <pt x="507" y="365" on="1"/>
        <pt x="507" y="423" on="0"/>
        <pt x="481" y="524" on="0"/>
        <pt x="430" y="597" on="0"/>
        <pt x="353" y="639" on="0"/>
      </contour>
      <contour>
        <pt x="309" y="195" on="1"/>
        <pt x="279" y="195" on="0"/>
        <pt x="227" y="219" on="0"/>
        <pt x="190" y="263" on="0"/>
        <pt x="169" y="325" on="0"/>
        <pt x="169" y="363" on="1"/>
        <pt x="169" y="441" on="0"/>
        <pt x="247" y="532" on="0"/>
        <pt x="309" y="532" on="1"/>
        <pt x="331" y="532" on="0"/>
        <pt x="376" y="521" on="0"/>
        <pt x="394" y="512" on="1"/>
        <pt x="385" y="443" on="1"/>
        <pt x="366" y="452" on="0"/>
        <pt x="329" y="464" on="0"/>
        <pt x="309" y="464" on="1"/>
        <pt x="276" y="464" on="0"/>
        <pt x="242" y="408" on="0"/>
        <pt x="242" y="363" on="1"/>
        <pt x="242" y="319" on="0"/>
        <pt x="276" y="262" on="0"/>
        <pt x="309" y="262" on="1"/>
        <pt x="329" y="262" on="0"/>
        <pt x="366" y="274" on="0"/>
        <pt x="385" y="284" on="1"/>
        <pt x="394" y="216" on="1"/>
        <pt x="376" y="205" on="0"/>
        <pt x="331" y="195" on="0"/>
      </contour>
    </TTGlyph>
    <TTGlyph name="currency" xMin="40" yMin="26" xMax="483" yMax="670">
      <contour>
        <pt x="437" y="26" on="1"/>
        <pt x="372" y="127" on="1"/>
        <pt x="347" y="108" on="0"/>
        <pt x="293" y="92" on="0"/>
        <pt x="261" y="92" on="1"/>
        <pt x="229" y="92" on="0"/>
        <pt x="175" y="108" on="0"/>
        <pt x="150" y="127" on="1"/>
        <pt x="86" y="26" on="1"/>
        <pt x="40" y="59" on="1"/>
        <pt x="103" y="159" on="1"/>
        <pt x="44" y="242" on="0"/>
        <pt x="44" y="348" on="1"/>
        <pt x="44" y="454" on="0"/>
        <pt x="104" y="537" on="1"/>
        <pt x="40" y="637" on="1"/>
        <pt x="86" y="670" on="1"/>
        <pt x="150" y="569" on="1"/>
        <pt x="198" y="604" on="0"/>
        <pt x="261" y="604" on="1"/>
        <pt x="324" y="604" on="0"/>
        <pt x="372" y="568" on="1"/>
        <pt x="438" y="670" on="1"/>
        <pt x="483" y="637" on="1"/>
        <pt x="419" y="536" on="1"/>
        <pt x="449" y="494" on="0"/>
        <pt x="478" y="400" on="0"/>
        <pt x="478" y="348" on="1"/>
        <pt x="478" y="242" on="0"/>
        <pt x="418" y="158" on="1"/>
        <pt x="483" y="59" on="1"/>
      </contour>
      <contour>
        <pt x="261" y="528" on="1"/>
        <pt x="233" y="528" on="0"/>
        <pt x="190" y="500" on="0"/>
        <pt x="161" y="452" on="0"/>
        <pt x="146" y="386" on="0"/>
        <pt x="146" y="348" on="1"/>
        <pt x="146" y="310" on="0"/>
        <pt x="161" y="244" on="0"/>
        <pt x="190" y="196" on="0"/>
        <pt x="233" y="168" on="0"/>
        <pt x="261" y="168" on="1"/>
        <pt x="289" y="168" on="0"/>
        <pt x="332" y="196" on="0"/>
        <pt x="362" y="244" on="0"/>
        <pt x="377" y="310" on="0"/>
        <pt x="377" y="348" on="1"/>
        <pt x="377" y="386" on="0"/>
        <pt x="362" y="452" on="0"/>
        <pt x="332" y="500" on="0"/>
        <pt x="289" y="528" on="0"/>
      </contour>
    </TTGlyph>
    <TTGlyph name="d" xMin="27" yMin="-10" xMax="440" yMax="750">
      <contour>
        <pt x="347" y="0" on="1"/>
        <pt x="344" y="50" on="1"/>
        <pt x="321" y="21" on="0"/>
        <pt x="267" y="-10" on="0"/>
        <pt x="233" y="-10" on="1"/>
        <pt x="184" y="-10" on="0"/>
        <pt x="108" y="30" on="0"/>
        <pt x="55" y="99" on="0"/>
        <pt x="27" y="193" on="0"/>
        <pt x="27" y="246" on="1"/>
        <pt x="27" y="297" on="0"/>
        <pt x="54" y="390" on="0"/>
        <pt x="107" y="461" on="0"/>
        <pt x="183" y="503" on="0"/>
        <pt x="233" y="503" on="1"/>
        <pt x="265" y="503" on="0"/>
        <pt x="318" y="481" on="0"/>
        <pt x="340" y="451" on="1"/>
        <pt x="340" y="750" on="1"/>
        <pt x="440" y="750" on="1"/>
        <pt x="440" y="0" on="1"/>
      </contour>
      <contour>
        <pt x="240" y="415" on="1"/>
        <pt x="214" y="415" on="0"/>
        <pt x="172" y="390" on="0"/>
        <pt x="144" y="345" on="0"/>
        <pt x="129" y="283" on="0"/>
        <pt x="129" y="246" on="1"/>
        <pt x="129" y="210" on="0"/>
        <pt x="144" y="149" on="0"/>
        <pt x="172" y="104" on="0"/>
        <pt x="214" y="78" on="0"/>
        <pt x="240" y="78" on="1"/>
        <pt x="291" y="78" on="0"/>
        <pt x="346" y="159" on="0"/>
        <pt x="346" y="244" on="1"/>
        <pt x="346" y="327" on="0"/>
        <pt x="291" y="415" on="0"/>
      </contour>
    </TTGlyph>
    <TTGlyph name="dagger" xMin="31" yMin="0" xMax="335" yMax="607">
      <contour>
        <pt x="217" y="393" on="1"/>
        <pt x="244" y="254" on="1"/>
        <pt x="219" y="0" on="1"/>
        <pt x="148" y="0" on="1"/>
        <pt x="122" y="254" on="1"/>
        <pt x="149" y="393" on="1"/>
        <pt x="31" y="365" on="1"/>
        <pt x="31" y="466" on="1"/>
        <pt x="148" y="436" on="1"/>
        <pt x="123" y="607" on="1"/>
        <pt x="244" y="607" on="1"/>
        <pt x="218" y="436" on="1"/>
        <pt x="335" y="466" on="1"/>
        <pt x="335" y="365" on="1"/>
      </contour>
    </TTGlyph>
    <TTGlyph name="daggerdbl" xMin="41" yMin="-59" xMax="345" yMax="607">
      <contour>
        <pt x="228" y="110" on="1"/>
        <pt x="254" y="-59" on="1"/>
        <pt x="133" y="-59" on="1"/>
        <pt x="158" y="110" on="1"/>
        <pt x="41" y="81" on="1"/>
        <pt x="41" y="181" on="1"/>
        <pt x="159" y="153" on="1"/>
        <pt x="132" y="274" on="1"/>
        <pt x="159" y="396" on="1"/>
        <pt x="41" y="367" on="1"/>
        <pt x="41" y="468" on="1"/>
        <pt x="158" y="439" on="1"/>
        <pt x="133" y="607" on="1"/>
        <pt x="254" y="607" on="1"/>
        <pt x="228" y="439" on="1"/>
        <pt x="345" y="468" on="1"/>
        <pt x="345" y="367" on="1"/>
        <pt x="227" y="396" on="1"/>
        <pt x="254" y="274" on="1"/>
        <pt x="227" y="153" on="1"/>
        <pt x="345" y="181" on="1"/>
        <pt x="345" y="81" on="1"/>
      </contour>
    </TTGlyph>
    <TTGlyph name="degree" xMin="26" yMin="482" xMax="254" yMax="755">
      <contour>
        <pt x="140" y="482" on="1"/>
        <pt x="113" y="482" on="0"/>
        <pt x="71" y="503" on="0"/>
        <pt x="41" y="540" on="0"/>
        <pt x="26" y="590" on="0"/>
        <pt x="26" y="618" on="1"/>
        <pt x="26" y="646" on="0"/>
        <pt x="41" y="696" on="0"/>
        <pt x="71" y="733" on="0"/>
        <pt x="113" y="755" on="0"/>
        <pt x="140" y="755" on="1"/>
        <pt x="167" y="755" on="0"/>
        <pt x="209" y="733" on="0"/>
        <pt x="239" y="696" on="0"/>
        <pt x="254" y="646" on="0"/>
        <pt x="254" y="618" on="1"/>
        <pt x="254" y="590" on="0"/>
        <pt x="239" y="540" on="0"/>
        <pt x="209" y="503" on="0"/>
        <pt x="167" y="482" on="0"/>
      </contour>
      <contour>
        <pt x="140" y="720" on="1"/>
        <pt x="126" y="720" on="0"/>
        <pt x="103" y="703" on="0"/>
        <pt x="87" y="675" on="0"/>
        <pt x="79" y="638" on="0"/>
        <pt x="80" y="618" on="1"/>
        <pt x="79" y="577" on="0"/>
        <pt x="111" y="517" on="0"/>
        <pt x="140" y="517" on="1"/>
        <pt x="169" y="517" on="0"/>
        <pt x="200" y="577" on="0"/>
        <pt x="200" y="618" on="1"/>
        <pt x="200" y="638" on="0"/>
        <pt x="192" y="675" on="0"/>
        <pt x="177" y="703" on="0"/>
        <pt x="155" y="720" on="0"/>
      </contour>
    </TTGlyph>
    <TTGlyph name="dieresis" xMin="75" yMin="598" xMax="288" yMax="700">
      <contour>
        <pt x="210" y="598" on="1"/>
        <pt x="210" y="700" on="1"/>
        <pt x="288" y="700" on="1"/>
        <pt x="288" y="598" on="1"/>
      </contour>
      <contour>
        <pt x="75" y="598" on="1"/>
        <pt x="75" y="700" on="1"/>
        <pt x="153" y="700" on="1"/>
        <pt x="153" y="598" on="1"/>
      </contour>
    </TTGlyph>
    <TTGlyph name="divide" xMin="38" yMin="20" xMax="434" yMax="534">
      <contour>
        <pt x="183" y="428" on="1"/>
        <pt x="183" y="534" on="1"/>
        <pt x="282" y="534" on="1"/>
        <pt x="282" y="428" on="1"/>
      </contour>
      <contour>
        <pt x="38" y="240" on="1"/>
        <pt x="38" y="321" on="1"/>
        <pt x="434" y="321" on="1"/>
        <pt x="434" y="240" on="1"/>
      </contour>
      <contour>
        <pt x="183" y="20" on="1"/>
        <pt x="183" y="126" on="1"/>
        <pt x="282" y="126" on="1"/>
        <pt x="282" y="20" on="1"/>
      </contour>
    </TTGlyph>
    <TTGlyph name="dollar" xMin="32" yMin="-32" xMax="416" yMax="748">
      <contour>
        <pt x="264" y="-32" on="1"/>
        <pt x="176" y="-32" on="1"/>
        <pt x="190" y="80" on="1"/>
        <pt x="139" y="83" on="0"/>
        <pt x="60" y="105" on="0"/>
        <pt x="39" y="119" on="1"/>
        <pt x="53" y="234" on="1"/>
        <pt x="76" y="211" on="0"/>
        <pt x="157" y="174" on="0"/>
        <pt x="214" y="174" on="1"/>
        <pt x="256" y="174" on="0"/>
        <pt x="303" y="199" on="0"/>
        <pt x="303" y="234" on="1"/>
        <pt x="303" y="262" on="0"/>
        <pt x="263" y="297" on="0"/>
        <pt x="203" y="322" on="0"/>
        <pt x="132" y="346" on="0"/>
        <pt x="72" y="380" on="0"/>
        <pt x="32" y="433" on="0"/>
        <pt x="32" y="475" on="1"/>
        <pt x="32" y="499" on="0"/>
        <pt x="48" y="551" on="0"/>
        <pt x="84" y="595" on="0"/>
        <pt x="145" y="627" on="0"/>
        <pt x="190" y="632" on="1"/>
        <pt x="176" y="748" on="1"/>
        <pt x="264" y="748" on="1"/>
        <pt x="250" y="632" on="1"/>
        <pt x="294" y="629" on="0"/>
        <pt x="370" y="606" on="0"/>
        <pt x="388" y="594" on="1"/>
        <pt x="379" y="492" on="1"/>
        <pt x="343" y="512" on="0"/>
        <pt x="264" y="542" on="0"/>
        <pt x="232" y="542" on="1"/>
        <pt x="215" y="542" on="0"/>
        <pt x="179" y="537" on="0"/>
        <pt x="151" y="525" on="0"/>
        <pt x="133" y="503" on="0"/>
        <pt x="133" y="487" on="1"/>
        <pt x="133" y="461" on="0"/>
        <pt x="175" y="431" on="0"/>
        <pt x="238" y="408" on="0"/>
        <pt x="311" y="385" on="0"/>
        <pt x="374" y="346" on="0"/>
        <pt x="416" y="285" on="0"/>
        <pt x="416" y="235" on="1"/>
        <pt x="416" y="214" on="0"/>
        <pt x="404" y="165" on="0"/>
        <pt x="368" y="120" on="0"/>
        <pt x="303" y="86" on="0"/>
        <pt x="250" y="81" on="1"/>
      </contour>
    </TTGlyph>
    <TTGlyph name="dotlessi" xMin="53" yMin="0" xMax="153" yMax="493">
      <contour>
        <pt x="53" y="0" on="1"/>
        <pt x="53" y="493" on="1"/>
        <pt x="153" y="493" on="1"/>
        <pt x="153" y="0" on="1"/>
      </contour>
    </TTGlyph>
    <TTGlyph name="e" xMin="25" yMin="-10" xMax="419" yMax="503">
      <contour>
        <pt x="129" y="237" on="1"/>
        <pt x="133" y="192" on="0"/>
        <pt x="159" y="131" on="0"/>
        <pt x="196" y="94" on="0"/>
        <pt x="241" y="78" on="0"/>
        <pt x="264" y="78" on="1"/>
        <pt x="294" y="78" on="0"/>
        <pt x="367" y="95" on="0"/>
        <pt x="394" y="111" on="1"/>
        <pt x="400" y="28" on="1"/>
        <pt x="375" y="14" on="0"/>
        <pt x="303" y="-10" on="0"/>
        <pt x="257" y="-10" on="1"/>
        <pt x="199" y="-10" on="0"/>
        <pt x="112" y="31" on="0"/>
        <pt x="54" y="102" on="0"/>
        <pt x="25" y="196" on="0"/>
        <pt x="25" y="249" on="1"/>
        <pt x="25" y="301" on="0"/>
        <pt x="53" y="393" on="0"/>
        <pt x="105" y="462" on="0"/>
        <pt x="182" y="503" on="0"/>
        <pt x="231" y="503" on="1"/>
        <pt x="271" y="503" on="0"/>
        <pt x="340" y="474" on="0"/>
        <pt x="391" y="420" on="0"/>
        <pt x="419" y="341" on="0"/>
        <pt x="419" y="292" on="1"/>
        <pt x="419" y="267" on="0"/>
        <pt x="413" y="237" on="1"/>
      </contour>
      <contour>
        <pt x="234" y="415" on="1"/>
        <pt x="190" y="415" on="0"/>
        <pt x="141" y="357" on="0"/>
        <pt x="133" y="307" on="1"/>
        <pt x="317" y="307" on="1"/>
        <pt x="317" y="353" on="0"/>
        <pt x="280" y="415" on="0"/>
      </contour>
    </TTGlyph>
    <TTGlyph name="eacute" xMin="25" yMin="-10" xMax="419" yMax="738">
      <component glyphName="e" x="0" y="0" flags="0x4"/>
      <component glyphName="acute" x="91" y="0" flags="0x4"/>
    </TTGlyph>
    <TTGlyph name="ecircumflex" xMin="25" yMin="-10" xMax="419" yMax="747">
      <component glyphName="e" x="0" y="0" flags="0x4"/>
      <component glyphName="circumflex" x="30" y="0" flags="0x4"/>
    </TTGlyph>
    <TTGlyph name="edieresis" xMin="25" yMin="-10" xMax="419" yMax="700">
      <component glyphName="e" x="0" y="0" flags="0x4"/>
      <component glyphName="dieresis" x="39" y="0" flags="0x4"/>
    </TTGlyph>
    <TTGlyph name="egrave" xMin="25" yMin="-10" xMax="419" yMax="738">
      <component glyphName="e" x="0" y="0" flags="0x4"/>
      <component glyphName="grave" x="91" y="0" flags="0x4"/>
    </TTGlyph>
    <TTGlyph name="eight" xMin="46" yMin="-14" xMax="467" yMax="713">
      <contour>
        <pt x="248" y="-14" on="1"/>
        <pt x="195" y="-14" on="0"/>
        <pt x="119" y="22" on="0"/>
        <pt x="69" y="79" on="0"/>
        <pt x="46" y="151" on="0"/>
        <pt x="46" y="188" on="1"/>
        <pt x="46" y="233" on="0"/>
        <pt x="88" y="332" on="0"/>
        <pt x="144" y="376" on="1"/>
        <pt x="109" y="414" on="0"/>
        <pt x="80" y="497" on="0"/>
        <pt x="80" y="539" on="1"/>
        <pt x="80" y="571" on="0"/>
        <pt x="97" y="634" on="0"/>
        <pt x="139" y="683" on="0"/>
        <pt x="208" y="713" on="0"/>
        <pt x="260" y="713" on="1"/>
        <pt x="309" y="713" on="0"/>
        <pt x="376" y="686" on="0"/>
        <pt x="416" y="641" on="0"/>
        <pt x="434" y="584" on="0"/>
        <pt x="434" y="554" on="1"/>
        <pt x="434" y="527" on="0"/>
        <pt x="424" y="483" on="0"/>
        <pt x="404" y="444" on="0"/>
        <pt x="374" y="407" on="0"/>
        <pt x="355" y="387" on="1"/>
        <pt x="406" y="360" on="0"/>
        <pt x="467" y="269" on="0"/>
        <pt x="467" y="200" on="1"/>
        <pt x="467" y="164" on="0"/>
        <pt x="442" y="88" on="0"/>
        <pt x="389" y="26" on="0"/>
        <pt x="306" y="-14" on="0"/>
      </contour>
      <contour>
        <pt x="256" y="623" on="1"/>
        <pt x="211" y="623" on="0"/>
        <pt x="171" y="573" on="0"/>
        <pt x="171" y="531" on="1"/>
        <pt x="171" y="498" on="0"/>
        <pt x="206" y="440" on="0"/>
        <pt x="252" y="422" on="1"/>
        <pt x="300" y="439" on="0"/>
        <pt x="337" y="504" on="0"/>
        <pt x="337" y="540" on="1"/>
        <pt x="337" y="577" on="0"/>
        <pt x="301" y="623" on="0"/>
      </contour>
      <contour>
        <pt x="259" y="336" on="1"/>
        <pt x="238" y="331" on="0"/>
        <pt x="198" y="308" on="0"/>
        <pt x="167" y="272" on="0"/>
        <pt x="148" y="222" on="0"/>
        <pt x="148" y="191" on="1"/>
        <pt x="148" y="134" on="0"/>
        <pt x="203" y="78" on="0"/>
        <pt x="253" y="78" on="1"/>
        <pt x="304" y="78" on="0"/>
        <pt x="364" y="145" on="0"/>
        <pt x="364" y="199" on="1"/>
        <pt x="364" y="254" on="0"/>
        <pt x="301" y="323" on="0"/>
      </contour>
    </TTGlyph>
    <TTGlyph name="ellipsis" xMin="52" yMin="0" xMax="558" yMax="101">
      <contour>
        <pt x="52" y="0" on="1"/>
        <pt x="52" y="101" on="1"/>
        <pt x="152" y="101" on="1"/>
        <pt x="152" y="0" on="1"/>
      </contour>
      <contour>
        <pt x="255" y="0" on="1"/>
        <pt x="255" y="101" on="1"/>
        <pt x="355" y="101" on="1"/>
        <pt x="355" y="0" on="1"/>
      </contour>
      <contour>
        <pt x="458" y="0" on="1"/>
        <pt x="458" y="101" on="1"/>
        <pt x="558" y="101" on="1"/>
        <pt x="558" y="0" on="1"/>
      </contour>
    </TTGlyph>
    <TTGlyph name="emdash" xMin="42" yMin="235" xMax="455" yMax="324">
      <contour>
        <pt x="42" y="235" on="1"/>
        <pt x="42" y="324" on="1"/>
        <pt x="455" y="324" on="1"/>
        <pt x="455" y="235" on="1"/>
      </contour>
    </TTGlyph>
    <TTGlyph name="endash" xMin="42" yMin="235" xMax="376" yMax="324">
      <contour>
        <pt x="42" y="235" on="1"/>
        <pt x="42" y="324" on="1"/>
        <pt x="376" y="324" on="1"/>
        <pt x="376" y="235" on="1"/>
      </contour>
    </TTGlyph>
    <TTGlyph name="equal" xMin="52" yMin="157" xMax="370" yMax="397">
      <contour>
        <pt x="52" y="315" on="1"/>
        <pt x="52" y="397" on="1"/>
        <pt x="370" y="397" on="1"/>
        <pt x="370" y="315" on="1"/>
      </contour>
      <contour>
        <pt x="52" y="157" on="1"/>
        <pt x="52" y="239" on="1"/>
        <pt x="370" y="239" on="1"/>
        <pt x="370" y="157" on="1"/>
      </contour>
    </TTGlyph>
    <TTGlyph name="eth" xMin="17" yMin="-12" xMax="409" yMax="710">
      <contour>
        <pt x="211" y="-12" on="1"/>
        <pt x="170" y="-12" on="0"/>
        <pt x="99" y="20" on="0"/>
        <pt x="47" y="77" on="0"/>
        <pt x="17" y="155" on="0"/>
        <pt x="17" y="202" on="1"/>
        <pt x="17" y="241" on="0"/>
        <pt x="40" y="321" on="0"/>
        <pt x="85" y="385" on="0"/>
        <pt x="154" y="426" on="0"/>
        <pt x="200" y="426" on="1"/>
        <pt x="238" y="426" on="0"/>
        <pt x="287" y="394" on="0"/>
        <pt x="304" y="377" on="1"/>
        <pt x="302" y="396" on="0"/>
        <pt x="291" y="446" on="0"/>
        <pt x="275" y="497" on="0"/>
        <pt x="254" y="540" on="0"/>
        <pt x="242" y="552" on="1"/>
        <pt x="185" y="501" on="0"/>
        <pt x="123" y="492" on="1"/>
        <pt x="91" y="553" on="1"/>
        <pt x="114" y="556" on="0"/>
        <pt x="167" y="578" on="0"/>
        <pt x="196" y="603" on="1"/>
        <pt x="173" y="628" on="0"/>
        <pt x="120" y="651" on="0"/>
        <pt x="94" y="655" on="1"/>
        <pt x="127" y="701" on="1"/>
        <pt x="157" y="701" on="0"/>
        <pt x="222" y="675" on="0"/>
        <pt x="253" y="647" on="1"/>
        <pt x="268" y="665" on="0"/>
        <pt x="292" y="694" on="0"/>
        <pt x="301" y="710" on="1"/>
        <pt x="355" y="697" on="1"/>
        <pt x="341" y="674" on="0"/>
        <pt x="313" y="633" on="0"/>
        <pt x="295" y="610" on="1"/>
        <pt x="320" y="580" on="0"/>
        <pt x="362" y="501" on="0"/>
        <pt x="392" y="409" on="0"/>
        <pt x="409" y="309" on="0"/>
        <pt x="409" y="257" on="1"/>
        <pt x="409" y="177" on="0"/>
        <pt x="372" y="73" on="0"/>
        <pt x="314" y="12" on="0"/>
        <pt x="244" y="-12" on="0"/>
      </contour>
      <contour>
        <pt x="211" y="338" on="1"/>
        <pt x="187" y="338" on="0"/>
        <pt x="151" y="317" on="0"/>
        <pt x="127" y="282" on="0"/>
        <pt x="115" y="237" on="0"/>
        <pt x="115" y="213" on="1"/>
        <pt x="115" y="186" on="0"/>
        <pt x="127" y="136" on="0"/>
        <pt x="152" y="99" on="0"/>
        <pt x="189" y="77" on="0"/>
        <pt x="213" y="77" on="1"/>
        <pt x="232" y="77" on="0"/>
        <pt x="266" y="95" on="0"/>
        <pt x="292" y="129" on="0"/>
        <pt x="308" y="178" on="0"/>
        <pt x="308" y="208" on="1"/>
        <pt x="308" y="267" on="0"/>
        <pt x="259" y="338" on="0"/>
      </contour>
    </TTGlyph>
    <TTGlyph name="exclam" xMin="55" yMin="0" xMax="162" yMax="750">
      <contour>
        <pt x="142" y="200" on="1"/>
        <pt x="74" y="200" on="1"/>
        <pt x="55" y="750" on="1"/>
        <pt x="162" y="750" on="1"/>
      </contour>
      <contour>
        <pt x="59" y="0" on="1"/>
        <pt x="59" y="99" on="1"/>
        <pt x="158" y="99" on="1"/>
        <pt x="158" y="0" on="1"/>
      </contour>
    </TTGlyph>
    <TTGlyph name="exclamdown" xMin="55" yMin="-250" xMax="162" yMax="500">
      <component glyphName="exclam" x="0" y="500" scalex="1.0" scaley="-0.999938964844" flags="0x4"/>
    </TTGlyph>
    <TTGlyph name="f" xMin="15" yMin="0" xMax="277" yMax="750">
      <contour>
        <pt x="179" y="412" on="1"/>
        <pt x="179" y="0" on="1"/>
        <pt x="79" y="0" on="1"/>
        <pt x="79" y="412" on="1"/>
        <pt x="15" y="412" on="1"/>
        <pt x="24" y="493" on="1"/>
        <pt x="79" y="493" on="1"/>
        <pt x="79" y="616" on="1"/>
        <pt x="79" y="644" on="0"/>
        <pt x="91" y="693" on="0"/>
        <pt x="117" y="729" on="0"/>
        <pt x="154" y="750" on="0"/>
        <pt x="180" y="750" on="1"/>
        <pt x="201" y="750" on="0"/>
        <pt x="229" y="749" on="0"/>
        <pt x="250" y="746" on="0"/>
        <pt x="266" y="742" on="0"/>
        <pt x="276" y="739" on="1"/>
        <pt x="265" y="654" on="1"/>
        <pt x="251" y="659" on="0"/>
        <pt x="225" y="662" on="0"/>
        <pt x="218" y="662" on="1"/>
        <pt x="206" y="662" on="0"/>
        <pt x="190" y="653" on="0"/>
        <pt x="182" y="630" on="0"/>
        <pt x="179" y="589" on="0"/>
        <pt x="179" y="556" on="1"/>
        <pt x="179" y="493" on="1"/>
        <pt x="277" y="493" on="1"/>
        <pt x="277" y="412" on="1"/>
      </contour>
    </TTGlyph>
    <TTGlyph name="five" xMin="43" yMin="-14" xMax="419" yMax="700">
      <contour>
        <pt x="197" y="-14" on="1"/>
        <pt x="170" y="-14" on="0"/>
        <pt x="117" y="-4" on="0"/>
        <pt x="73" y="9" on="0"/>
        <pt x="45" y="25" on="0"/>
        <pt x="43" y="31" on="1"/>
        <pt x="67" y="129" on="1"/>
        <pt x="89" y="109" on="0"/>
        <pt x="157" y="84" on="0"/>
        <pt x="194" y="84" on="1"/>
        <pt x="218" y="84" on="0"/>
        <pt x="262" y="104" on="0"/>
        <pt x="296" y="141" on="0"/>
        <pt x="316" y="195" on="0"/>
        <pt x="316" y="230" on="1"/>
        <pt x="316" y="258" on="0"/>
        <pt x="303" y="301" on="0"/>
        <pt x="269" y="331" on="0"/>
        <pt x="209" y="347" on="0"/>
        <pt x="162" y="347" on="1"/>
        <pt x="74" y="347" on="1"/>
        <pt x="111" y="700" on="1"/>
        <pt x="387" y="700" on="1"/>
        <pt x="376" y="601" on="1"/>
        <pt x="190" y="601" on="1"/>
        <pt x="175" y="440" on="1"/>
        <pt x="304" y="438" on="0"/>
        <pt x="419" y="339" on="0"/>
        <pt x="419" y="234" on="1"/>
        <pt x="419" y="175" on="0"/>
        <pt x="381" y="83" on="0"/>
        <pt x="319" y="20" on="0"/>
        <pt x="239" y="-14" on="0"/>
      </contour>
    </TTGlyph>
    <TTGlyph name="florin" xMin="-24" yMin="-241" xMax="330" yMax="714">
      <contour>
        <pt x="321" y="634" on="1"/>
        <pt x="311" y="639" on="0"/>
        <pt x="291" y="642" on="0"/>
        <pt x="283" y="642" on="1"/>
        <pt x="242" y="642" on="0"/>
        <pt x="207" y="573" on="0"/>
        <pt x="197" y="493" on="1"/>
        <pt x="310" y="493" on="1"/>
        <pt x="304" y="428" on="1"/>
        <pt x="186" y="428" on="1"/>
        <pt x="117" y="-88" on="1"/>
        <pt x="111" y="-133" on="0"/>
        <pt x="86" y="-193" on="0"/>
        <pt x="56" y="-227" on="0"/>
        <pt x="26" y="-241" on="0"/>
        <pt x="15" y="-241" on="1"/>
        <pt x="-8" y="-241" on="1"/>
        <pt x="-24" y="-165" on="1"/>
        <pt x="1" y="-161" on="0"/>
        <pt x="30" y="-122" on="0"/>
        <pt x="36" y="-71" on="1"/>
        <pt x="98" y="428" on="1"/>
        <pt x="28" y="428" on="1"/>
        <pt x="35" y="493" on="1"/>
        <pt x="108" y="493" on="1"/>
        <pt x="114" y="547" on="1"/>
        <pt x="124" y="626" on="0"/>
        <pt x="213" y="714" on="0"/>
        <pt x="273" y="714" on="1"/>
        <pt x="287" y="714" on="0"/>
        <pt x="316" y="708" on="0"/>
        <pt x="330" y="703" on="1"/>
      </contour>
    </TTGlyph>
    <TTGlyph name="four" xMin="12" yMin="0" xMax="448" yMax="700">
      <contour>
        <pt x="375" y="190" on="1"/>
        <pt x="375" y="0" on="1"/>
        <pt x="271" y="0" on="1"/>
        <pt x="271" y="190" on="1"/>
        <pt x="12" y="190" on="1"/>
        <pt x="289" y="700" on="1"/>
        <pt x="375" y="700" on="1"/>
        <pt x="375" y="282" on="1"/>
        <pt x="448" y="282" on="1"/>
        <pt x="448" y="190" on="1"/>
      </contour>
      <contour>
        <pt x="271" y="521" on="1"/>
        <pt x="156" y="282" on="1"/>
        <pt x="271" y="282" on="1"/>
      </contour>
    </TTGlyph>
    <TTGlyph name="g" xMin="21" yMin="-250" xMax="430" yMax="503">
      <contour>
        <pt x="222" y="-250" on="1"/>
        <pt x="168" y="-250" on="0"/>
        <pt x="92" y="-223" on="0"/>
        <pt x="44" y="-180" on="0"/>
        <pt x="21" y="-128" on="0"/>
        <pt x="21" y="-104" on="1"/>
        <pt x="21" y="-72" on="0"/>
        <pt x="58" y="-11" on="0"/>
        <pt x="93" y="9" on="1"/>
        <pt x="73" y="23" on="0"/>
        <pt x="53" y="58" on="0"/>
        <pt x="53" y="74" on="1"/>
        <pt x="53" y="91" on="0"/>
        <pt x="74" y="130" on="0"/>
        <pt x="98" y="145" on="1"/>
        <pt x="62" y="180" on="0"/>
        <pt x="30" y="263" on="0"/>
        <pt x="30" y="308" on="1"/>
        <pt x="30" y="347" on="0"/>
        <pt x="53" y="418" on="0"/>
        <pt x="97" y="471" on="0"/>
        <pt x="162" y="503" on="0"/>
        <pt x="204" y="503" on="1"/>
        <pt x="263" y="503" on="0"/>
        <pt x="304" y="469" on="1"/>
        <pt x="318" y="480" on="0"/>
        <pt x="367" y="495" on="0"/>
        <pt x="398" y="495" on="1"/>
        <pt x="421" y="495" on="1"/>
        <pt x="413" y="429" on="1"/>
        <pt x="380" y="429" on="1"/>
        <pt x="375" y="429" on="0"/>
        <pt x="357" y="426" on="0"/>
        <pt x="349" y="424" on="1"/>
        <pt x="365" y="395" on="0"/>
        <pt x="378" y="337" on="0"/>
        <pt x="378" y="309" on="1"/>
        <pt x="378" y="271" on="0"/>
        <pt x="355" y="200" on="0"/>
        <pt x="312" y="146" on="0"/>
        <pt x="248" y="113" on="0"/>
        <pt x="207" y="113" on="1"/>
        <pt x="192" y="113" on="0"/>
        <pt x="168" y="117" on="0"/>
        <pt x="156" y="121" on="1"/>
        <pt x="144" y="111" on="0"/>
        <pt x="144" y="96" on="1"/>
        <pt x="144" y="77" on="0"/>
        <pt x="199" y="60" on="0"/>
        <pt x="257" y="48" on="1"/>
        <pt x="280" y="43" on="0"/>
        <pt x="340" y="27" on="0"/>
        <pt x="393" y="-4" on="0"/>
        <pt x="430" y="-55" on="0"/>
        <pt x="430" y="-94" on="1"/>
        <pt x="430" y="-126" on="0"/>
        <pt x="403" y="-183" on="0"/>
        <pt x="350" y="-225" on="0"/>
        <pt x="273" y="-250" on="0"/>
      </contour>
      <contour>
        <pt x="204" y="424" on="1"/>
        <pt x="162" y="424" on="0"/>
        <pt x="120" y="360" on="0"/>
        <pt x="120" y="307" on="1"/>
        <pt x="120" y="253" on="0"/>
        <pt x="163" y="190" on="0"/>
        <pt x="203" y="190" on="1"/>
        <pt x="245" y="190" on="0"/>
        <pt x="287" y="257" on="0"/>
        <pt x="287" y="310" on="1"/>
        <pt x="287" y="364" on="0"/>
        <pt x="244" y="424" on="0"/>
      </contour>
      <contour>
        <pt x="225" y="-31" on="1"/>
        <pt x="216" y="-29" on="0"/>
        <pt x="181" y="-18" on="0"/>
        <pt x="167" y="-16" on="1"/>
        <pt x="142" y="-27" on="0"/>
        <pt x="106" y="-70" on="0"/>
        <pt x="106" y="-97" on="1"/>
        <pt x="106" y="-130" on="0"/>
        <pt x="165" y="-174" on="0"/>
        <pt x="218" y="-174" on="1"/>
        <pt x="272" y="-174" on="0"/>
        <pt x="338" y="-129" on="0"/>
        <pt x="338" y="-100" on="1"/>
        <pt x="338" y="-85" on="0"/>
        <pt x="320" y="-64" on="0"/>
        <pt x="288" y="-48" on="0"/>
        <pt x="247" y="-37" on="0"/>
      </contour>
    </TTGlyph>
    <TTGlyph name="germandbls" xMin="13" yMin="-136" xMax="468" yMax="750">
      <contour>
        <pt x="278" y="-10" on="1"/>
        <pt x="252" y="-10" on="0"/>
        <pt x="229" y="-6" on="1"/>
        <pt x="229" y="78" on="1"/>
        <pt x="262" y="78" on="0"/>
        <pt x="314" y="80" on="0"/>
        <pt x="348" y="93" on="0"/>
        <pt x="366" y="121" on="0"/>
        <pt x="366" y="147" on="1"/>
        <pt x="366" y="188" on="0"/>
        <pt x="327" y="249" on="0"/>
        <pt x="279" y="299" on="0"/>
        <pt x="240" y="343" on="0"/>
        <pt x="240" y="367" on="1"/>
        <pt x="240" y="386" on="0"/>
        <pt x="265" y="427" on="0"/>
        <pt x="295" y="476" on="0"/>
        <pt x="320" y="536" on="0"/>
        <pt x="320" y="574" on="1"/>
        <pt x="320" y="599" on="0"/>
        <pt x="308" y="633" on="0"/>
        <pt x="287" y="654" on="0"/>
        <pt x="261" y="662" on="0"/>
        <pt x="248" y="662" on="1"/>
        <pt x="213" y="662" on="0"/>
        <pt x="177" y="612" on="0"/>
        <pt x="177" y="552" on="1"/>
        <pt x="177" y="-136" on="1"/>
        <pt x="77" y="-136" on="1"/>
        <pt x="77" y="412" on="1"/>
        <pt x="13" y="412" on="1"/>
        <pt x="23" y="493" on="1"/>
        <pt x="77" y="493" on="1"/>
        <pt x="77" y="569" on="1"/>
        <pt x="77" y="612" on="0"/>
        <pt x="105" y="679" on="0"/>
        <pt x="153" y="726" on="0"/>
        <pt x="215" y="750" on="0"/>
        <pt x="249" y="750" on="1"/>
        <pt x="280" y="750" on="0"/>
        <pt x="340" y="731" on="0"/>
        <pt x="387" y="690" on="0"/>
        <pt x="416" y="624" on="0"/>
        <pt x="416" y="578" on="1"/>
        <pt x="416" y="534" on="0"/>
        <pt x="394" y="468" on="0"/>
        <pt x="369" y="418" on="0"/>
        <pt x="347" y="384" on="0"/>
        <pt x="347" y="374" on="1"/>
        <pt x="347" y="361" on="0"/>
        <pt x="385" y="325" on="0"/>
        <pt x="430" y="272" on="0"/>
        <pt x="468" y="198" on="0"/>
        <pt x="468" y="147" on="1"/>
        <pt x="468" y="104" on="0"/>
        <pt x="437" y="44" on="0"/>
        <pt x="384" y="7" on="0"/>
        <pt x="315" y="-10" on="0"/>
      </contour>
    </TTGlyph>
    <TTGlyph name="grave" xMin="50" yMin="592" xMax="211" yMax="738">
      <contour>
        <pt x="50" y="655" on="1"/>
        <pt x="50" y="738" on="1"/>
        <pt x="211" y="645" on="1"/>
        <pt x="211" y="592" on="1"/>
      </contour>
    </TTGlyph>
    <TTGlyph name="greater" xMin="57" yMin="78" xMax="356" yMax="490">
      <contour>
        <pt x="172" y="78" on="1"/>
        <pt x="57" y="78" on="1"/>
        <pt x="240" y="284" on="1"/>
        <pt x="57" y="490" on="1"/>
        <pt x="172" y="490" on="1"/>
        <pt x="356" y="284" on="1"/>
      </contour>
    </TTGlyph>
    <TTGlyph name="guillemotleft" xMin="9" yMin="78" xMax="480" yMax="490">
      <contour>
        <pt x="363" y="78" on="1"/>
        <pt x="233" y="284" on="1"/>
        <pt x="363" y="490" on="1"/>
        <pt x="480" y="490" on="1"/>
        <pt x="350" y="284" on="1"/>
        <pt x="480" y="78" on="1"/>
      </contour>
      <contour>
        <pt x="139" y="78" on="1"/>
        <pt x="9" y="284" on="1"/>
        <pt x="139" y="490" on="1"/>
        <pt x="256" y="490" on="1"/>
        <pt x="126" y="284" on="1"/>
        <pt x="256" y="78" on="1"/>
      </contour>
    </TTGlyph>
    <TTGlyph name="guillemotright" xMin="42" yMin="78" xMax="512" yMax="490">
      <contour>
        <pt x="383" y="78" on="1"/>
        <pt x="266" y="78" on="1"/>
        <pt x="395" y="284" on="1"/>
        <pt x="266" y="490" on="1"/>
        <pt x="383" y="490" on="1"/>
        <pt x="512" y="284" on="1"/>
      </contour>
      <contour>
        <pt x="159" y="78" on="1"/>
        <pt x="42" y="78" on="1"/>
        <pt x="172" y="284" on="1"/>
        <pt x="42" y="490" on="1"/>
        <pt x="159" y="490" on="1"/>
        <pt x="289" y="284" on="1"/>
      </contour>
    </TTGlyph>
    <TTGlyph name="guilsinglleft" xMin="9" yMin="78" xMax="261" yMax="490">
      <contour>
        <pt x="141" y="78" on="1"/>
        <pt x="9" y="284" on="1"/>
        <pt x="141" y="490" on="1"/>
        <pt x="261" y="490" on="1"/>
        <pt x="128" y="284" on="1"/>
        <pt x="261" y="78" on="1"/>
      </contour>
    </TTGlyph>
    <TTGlyph name="guilsinglright" xMin="38" yMin="78" xMax="290" yMax="490">
      <contour>
        <pt x="157" y="78" on="1"/>
        <pt x="38" y="78" on="1"/>
        <pt x="170" y="284" on="1"/>
        <pt x="38" y="490" on="1"/>
        <pt x="157" y="490" on="1"/>
        <pt x="290" y="284" on="1"/>
      </contour>
    </TTGlyph>
    <TTGlyph name="h" xMin="53" yMin="0" xMax="429" yMax="750">
      <contour>
        <pt x="329" y="0" on="1"/>
        <pt x="329" y="264" on="1"/>
        <pt x="329" y="345" on="0"/>
        <pt x="288" y="415" on="0"/>
        <pt x="240" y="415" on="1"/>
        <pt x="182" y="415" on="0"/>
        <pt x="153" y="358" on="1"/>
        <pt x="153" y="0" on="1"/>
        <pt x="53" y="0" on="1"/>
        <pt x="53" y="750" on="1"/>
        <pt x="153" y="750" on="1"/>
        <pt x="153" y="450" on="1"/>
        <pt x="194" y="503" on="0"/>
        <pt x="250" y="503" on="1"/>
        <pt x="299" y="503" on="0"/>
        <pt x="367" y="468" on="0"/>
        <pt x="410" y="405" on="0"/>
        <pt x="429" y="317" on="0"/>
        <pt x="429" y="264" on="1"/>
        <pt x="429" y="0" on="1"/>
      </contour>
    </TTGlyph>
    <TTGlyph name="hyphen" xMin="42" yMin="235" xMax="309" yMax="324">
      <contour>
        <pt x="42" y="235" on="1"/>
        <pt x="42" y="324" on="1"/>
        <pt x="309" y="324" on="1"/>
        <pt x="309" y="235" on="1"/>
      </contour>
    </TTGlyph>
    <TTGlyph name="i" xMin="53" yMin="0" xMax="153" yMax="700">
      <contour>
        <pt x="53" y="592" on="1"/>
        <pt x="53" y="700" on="1"/>
        <pt x="153" y="700" on="1"/>
        <pt x="153" y="592" on="1"/>
      </contour>
      <contour>
        <pt x="53" y="0" on="1"/>
        <pt x="53" y="493" on="1"/>
        <pt x="153" y="493" on="1"/>
        <pt x="153" y="0" on="1"/>
      </contour>
    </TTGlyph>
    <TTGlyph name="iacute" xMin="24" yMin="0" xMax="185" yMax="738">
      <component glyphName="dotlessi" x="0" y="0" flags="0x204"/>
      <component glyphName="acute" x="-26" y="0" flags="0x4"/>
    </TTGlyph>
    <TTGlyph name="icircumflex" xMin="-22" yMin="0" xMax="231" yMax="747">
      <component glyphName="dotlessi" x="0" y="0" flags="0x204"/>
      <component glyphName="circumflex" x="-87" y="0" flags="0x4"/>
    </TTGlyph>
    <TTGlyph name="idieresis" xMin="-2" yMin="0" xMax="211" yMax="700">
      <component glyphName="dotlessi" x="0" y="0" flags="0x204"/>
      <component glyphName="dieresis" x="-77" y="0" flags="0x4"/>
    </TTGlyph>
    <TTGlyph name="igrave" xMin="24" yMin="0" xMax="185" yMax="738">
      <component glyphName="dotlessi" x="0" y="0" flags="0x204"/>
      <component glyphName="grave" x="-26" y="0" flags="0x4"/>
    </TTGlyph>
    <TTGlyph name="j" xMin="-1" yMin="-242" xMax="153" yMax="700">
      <contour>
        <pt x="8" y="-242" on="1"/>
        <pt x="-1" y="-162" on="1"/>
        <pt x="17" y="-161" on="0"/>
        <pt x="38" y="-153" on="0"/>
        <pt x="49" y="-134" on="0"/>
        <pt x="53" y="-99" on="0"/>
        <pt x="53" y="-69" on="1"/>
        <pt x="53" y="493" on="1"/>
        <pt x="153" y="493" on="1"/>
        <pt x="153" y="-108" on="1"/>
        <pt x="153" y="-174" on="0"/>
        <pt x="95" y="-234" on="0"/>
        <pt x="44" y="-239" on="1"/>
      </contour>
      <contour>
        <pt x="53" y="592" on="1"/>
        <pt x="53" y="700" on="1"/>
        <pt x="153" y="700" on="1"/>
        <pt x="153" y="592" on="1"/>
      </contour>
    </TTGlyph>
    <TTGlyph name="k" xMin="54" yMin="0" xMax="410" yMax="750">
      <contour>
        <pt x="54" y="0" on="1"/>
        <pt x="54" y="750" on="1"/>
        <pt x="154" y="750" on="1"/>
        <pt x="154" y="278" on="1"/>
        <pt x="295" y="493" on="1"/>
        <pt x="409" y="493" on="1"/>
        <pt x="247" y="263" on="1"/>
        <pt x="410" y="0" on="1"/>
        <pt x="295" y="0" on="1"/>
        <pt x="154" y="240" on="1"/>
        <pt x="154" y="0" on="1"/>
      </contour>
    </TTGlyph>
    <TTGlyph name="l" xMin="52" yMin="-10" xMax="207" yMax="750">
      <contour>
        <pt x="197" y="-10" on="1"/>
        <pt x="162" y="-10" on="1"/>
        <pt x="133" y="-10" on="0"/>
        <pt x="91" y="10" on="0"/>
        <pt x="64" y="44" on="0"/>
        <pt x="52" y="88" on="0"/>
        <pt x="52" y="112" on="1"/>
        <pt x="52" y="750" on="1"/>
        <pt x="152" y="750" on="1"/>
        <pt x="152" y="164" on="1"/>
        <pt x="152" y="133" on="0"/>
        <pt x="156" y="97" on="0"/>
        <pt x="168" y="78" on="0"/>
        <pt x="190" y="72" on="0"/>
        <pt x="207" y="72" on="1"/>
      </contour>
    </TTGlyph>
    <TTGlyph name="less" xMin="28" yMin="78" xMax="327" yMax="490">
      <contour>
        <pt x="211" y="78" on="1"/>
        <pt x="28" y="284" on="1"/>
        <pt x="211" y="490" on="1"/>
        <pt x="327" y="490" on="1"/>
        <pt x="144" y="284" on="1"/>
        <pt x="327" y="78" on="1"/>
      </contour>
    </TTGlyph>
    <TTGlyph name="logicalnot" xMin="42" yMin="151" xMax="438" yMax="406">
      <contour>
        <pt x="364" y="151" on="1"/>
        <pt x="364" y="334" on="1"/>
        <pt x="42" y="334" on="1"/>
        <pt x="42" y="406" on="1"/>
        <pt x="438" y="406" on="1"/>
        <pt x="438" y="151" on="1"/>
      </contour>
    </TTGlyph>
    <TTGlyph name="m" xMin="50" yMin="0" xMax="700" yMax="503">
      <contour>
        <pt x="600" y="0" on="1"/>
        <pt x="600" y="281" on="1"/>
        <pt x="600" y="350" on="0"/>
        <pt x="563" y="415" on="0"/>
        <pt x="516" y="415" on="1"/>
        <pt x="487" y="415" on="0"/>
        <pt x="451" y="392" on="0"/>
        <pt x="432" y="356" on="0"/>
        <pt x="425" y="313" on="0"/>
        <pt x="425" y="293" on="1"/>
        <pt x="425" y="0" on="1"/>
        <pt x="325" y="0" on="1"/>
        <pt x="325" y="270" on="1"/>
        <pt x="325" y="313" on="0"/>
        <pt x="314" y="370" on="0"/>
        <pt x="292" y="402" on="0"/>
        <pt x="259" y="415" on="0"/>
        <pt x="237" y="415" on="1"/>
        <pt x="178" y="415" on="0"/>
        <pt x="150" y="359" on="1"/>
        <pt x="150" y="0" on="1"/>
        <pt x="50" y="0" on="1"/>
        <pt x="50" y="493" on="1"/>
        <pt x="132" y="493" on="1"/>
        <pt x="138" y="446" on="1"/>
        <pt x="161" y="477" on="0"/>
        <pt x="218" y="503" on="0"/>
        <pt x="252" y="503" on="1"/>
        <pt x="289" y="503" on="0"/>
        <pt x="362" y="466" on="0"/>
        <pt x="386" y="412" on="1"/>
        <pt x="399" y="450" on="0"/>
        <pt x="473" y="503" on="0"/>
        <pt x="531" y="503" on="1"/>
        <pt x="617" y="503" on="0"/>
        <pt x="700" y="390" on="0"/>
        <pt x="700" y="282" on="1"/>
        <pt x="700" y="0" on="1"/>
      </contour>
    </TTGlyph>
    <TTGlyph name="mu" xMin="60" yMin="-242" xMax="488" yMax="493">
      <contour>
        <pt x="477" y="-10" on="1"/>
        <pt x="442" y="-10" on="1"/>
        <pt x="376" y="-10" on="0"/>
        <pt x="349" y="56" on="1"/>
        <pt x="329" y="27" on="0"/>
        <pt x="273" y="-10" on="0"/>
        <pt x="241" y="-10" on="1"/>
        <pt x="218" y="-10" on="0"/>
        <pt x="179" y="1" on="0"/>
        <pt x="160" y="20" on="1"/>
        <pt x="160" y="-242" on="1"/>
        <pt x="60" y="-242" on="1"/>
        <pt x="60" y="493" on="1"/>
        <pt x="160" y="493" on="1"/>
        <pt x="160" y="232" on="1"/>
        <pt x="160" y="157" on="0"/>
        <pt x="200" y="78" on="0"/>
        <pt x="250" y="78" on="1"/>
        <pt x="278" y="78" on="0"/>
        <pt x="318" y="103" on="0"/>
        <pt x="335" y="130" on="1"/>
        <pt x="335" y="493" on="1"/>
        <pt x="434" y="493" on="1"/>
        <pt x="434" y="171" on="1"/>
        <pt x="434" y="117" on="0"/>
        <pt x="449" y="72" on="0"/>
        <pt x="472" y="72" on="1"/>
        <pt x="488" y="72" on="1"/>
      </contour>
    </TTGlyph>
    <TTGlyph name="multiply" xMin="42" yMin="116" xMax="327" yMax="438">
      <contour>
        <pt x="280" y="116" on="1"/>
        <pt x="184" y="233" on="1"/>
        <pt x="90" y="116" on="1"/>
        <pt x="42" y="160" on="1"/>
        <pt x="137" y="277" on="1"/>
        <pt x="42" y="394" on="1"/>
        <pt x="90" y="438" on="1"/>
        <pt x="184" y="321" on="1"/>
        <pt x="280" y="438" on="1"/>
        <pt x="327" y="394" on="1"/>
        <pt x="232" y="277" on="1"/>
        <pt x="327" y="160" on="1"/>
      </contour>
    </TTGlyph>
    <TTGlyph name="n" xMin="50" yMin="0" xMax="430" yMax="503">
      <contour>
        <pt x="330" y="0" on="1"/>
        <pt x="330" y="270" on="1"/>
        <pt x="330" y="345" on="0"/>
        <pt x="287" y="415" on="0"/>
        <pt x="238" y="415" on="1"/>
        <pt x="179" y="415" on="0"/>
        <pt x="150" y="358" on="1"/>
        <pt x="150" y="0" on="1"/>
        <pt x="50" y="0" on="1"/>
        <pt x="50" y="493" on="1"/>
        <pt x="141" y="493" on="1"/>
        <pt x="144" y="449" on="1"/>
        <pt x="167" y="479" on="0"/>
        <pt x="222" y="503" on="0"/>
        <pt x="249" y="503" on="1"/>
        <pt x="298" y="503" on="0"/>
        <pt x="367" y="470" on="0"/>
        <pt x="411" y="409" on="0"/>
        <pt x="430" y="323" on="0"/>
        <pt x="430" y="270" on="1"/>
        <pt x="430" y="0" on="1"/>
      </contour>
    </TTGlyph>
    <TTGlyph name="nine" xMin="50" yMin="0" xMax="448" yMax="714">
      <contour>
        <pt x="259" y="714" on="1"/>
        <pt x="298" y="714" on="0"/>
        <pt x="367" y="688" on="0"/>
        <pt x="418" y="628" on="0"/>
        <pt x="448" y="529" on="0"/>
        <pt x="448" y="457" on="1"/>
        <pt x="448" y="350" on="0"/>
        <pt x="397" y="181" on="0"/>
        <pt x="320" y="63" on="0"/>
        <pt x="230" y="0" on="0"/>
        <pt x="191" y="0" on="1"/>
        <pt x="123" y="42" on="1"/>
        <pt x="146" y="53" on="0"/>
        <pt x="217" y="99" on="0"/>
        <pt x="285" y="170" on="0"/>
        <pt x="336" y="267" on="0"/>
        <pt x="340" y="329" on="1"/>
        <pt x="331" y="316" on="0"/>
        <pt x="301" y="297" on="0"/>
        <pt x="269" y="285" on="0"/>
        <pt x="240" y="279" on="0"/>
        <pt x="232" y="279" on="1"/>
        <pt x="192" y="279" on="0"/>
        <pt x="125" y="304" on="0"/>
        <pt x="77" y="354" on="0"/>
        <pt x="50" y="429" on="0"/>
        <pt x="50" y="480" on="1"/>
        <pt x="50" y="529" on="0"/>
        <pt x="79" y="614" on="0"/>
        <pt x="134" y="677" on="0"/>
        <pt x="211" y="714" on="0"/>
      </contour>
      <contour>
        <pt x="242" y="369" on="1"/>
        <pt x="287" y="369" on="0"/>
        <pt x="348" y="437" on="0"/>
        <pt x="348" y="499" on="1"/>
        <pt x="348" y="531" on="0"/>
        <pt x="331" y="577" on="0"/>
        <pt x="303" y="606" on="0"/>
        <pt x="269" y="620" on="0"/>
        <pt x="253" y="620" on="1"/>
        <pt x="228" y="620" on="0"/>
        <pt x="190" y="597" on="0"/>
        <pt x="165" y="559" on="0"/>
        <pt x="152" y="510" on="0"/>
        <pt x="152" y="485" on="1"/>
        <pt x="152" y="465" on="0"/>
        <pt x="161" y="424" on="0"/>
        <pt x="182" y="391" on="0"/>
        <pt x="216" y="369" on="0"/>
      </contour>
    </TTGlyph>
    <TTGlyph name="ntilde" xMin="50" yMin="0" xMax="430" yMax="709">
      <component glyphName="n" x="0" y="0" flags="0x204"/>
      <component glyphName="tilde" x="10" y="0" flags="0x4"/>
    </TTGlyph>
    <TTGlyph name="numbersign" xMin="28" yMin="-11" xMax="582" yMax="700">
      <contour>
        <pt x="555" y="420" on="1"/>
        <pt x="456" y="420" on="1"/>
        <pt x="420" y="303" on="1"/>
        <pt x="528" y="303" on="1"/>
        <pt x="491" y="214" on="1"/>
        <pt x="389" y="214" on="1"/>
        <pt x="317" y="-11" on="1"/>
        <pt x="237" y="-11" on="1"/>
        <pt x="309" y="214" on="1"/>
        <pt x="209" y="214" on="1"/>
        <pt x="135" y="-11" on="1"/>
        <pt x="57" y="-11" on="1"/>
        <pt x="130" y="214" on="1"/>
        <pt x="28" y="214" on="1"/>
        <pt x="64" y="303" on="1"/>
        <pt x="161" y="303" on="1"/>
        <pt x="197" y="420" on="1"/>
        <pt x="92" y="420" on="1"/>
        <pt x="119" y="509" on="1"/>
        <pt x="228" y="509" on="1"/>
        <pt x="291" y="700" on="1"/>
        <pt x="369" y="700" on="1"/>
        <pt x="307" y="509" on="1"/>
        <pt x="408" y="509" on="1"/>
        <pt x="470" y="700" on="1"/>
        <pt x="549" y="700" on="1"/>
        <pt x="487" y="509" on="1"/>
        <pt x="582" y="509" on="1"/>
      </contour>
      <contour>
        <pt x="276" y="420" on="1"/>
        <pt x="239" y="303" on="1"/>
        <pt x="339" y="303" on="1"/>
        <pt x="377" y="420" on="1"/>
      </contour>
    </TTGlyph>
    <TTGlyph name="o" xMin="24" yMin="-10" xMax="455" yMax="503">
      <contour>
        <pt x="240" y="-10" on="1"/>
        <pt x="189" y="-10" on="0"/>
        <pt x="108" y="30" on="0"/>
        <pt x="53" y="100" on="0"/>
        <pt x="24" y="193" on="0"/>
        <pt x="24" y="246" on="1"/>
        <pt x="24" y="299" on="0"/>
        <pt x="53" y="393" on="0"/>
        <pt x="108" y="463" on="0"/>
        <pt x="189" y="503" on="0"/>
        <pt x="240" y="503" on="1"/>
        <pt x="291" y="503" on="0"/>
        <pt x="371" y="463" on="0"/>
        <pt x="426" y="393" on="0"/>
        <pt x="455" y="299" on="0"/>
        <pt x="455" y="246" on="1"/>
        <pt x="455" y="193" on="0"/>
        <pt x="426" y="100" on="0"/>
        <pt x="371" y="30" on="0"/>
        <pt x="291" y="-10" on="0"/>
      </contour>
      <contour>
        <pt x="240" y="415" on="1"/>
        <pt x="185" y="415" on="0"/>
        <pt x="126" y="325" on="0"/>
        <pt x="126" y="246" on="1"/>
        <pt x="126" y="168" on="0"/>
        <pt x="185" y="78" on="0"/>
        <pt x="240" y="78" on="1"/>
        <pt x="294" y="78" on="0"/>
        <pt x="353" y="168" on="0"/>
        <pt x="353" y="246" on="1"/>
        <pt x="353" y="325" on="0"/>
        <pt x="294" y="415" on="0"/>
      </contour>
    </TTGlyph>
    <TTGlyph name="oacute" xMin="24" yMin="-10" xMax="455" yMax="738">
      <component glyphName="o" x="0" y="0" flags="0x204"/>
      <component glyphName="acute" x="109" y="0" flags="0x4"/>
    </TTGlyph>
    <TTGlyph name="ocircumflex" xMin="24" yMin="-10" xMax="455" yMax="747">
      <component glyphName="o" x="0" y="0" flags="0x204"/>
      <component glyphName="circumflex" x="48" y="0" flags="0x4"/>
    </TTGlyph>
    <TTGlyph name="odieresis" xMin="24" yMin="-10" xMax="455" yMax="700">
      <component glyphName="o" x="0" y="0" flags="0x204"/>
      <component glyphName="dieresis" x="58" y="0" flags="0x4"/>
    </TTGlyph>
    <TTGlyph name="oe" xMin="24" yMin="-10" xMax="746" yMax="503">
      <contour>
        <pt x="459" y="237" on="1"/>
        <pt x="462" y="186" on="0"/>
        <pt x="488" y="122" on="0"/>
        <pt x="524" y="86" on="0"/>
        <pt x="567" y="72" on="0"/>
        <pt x="588" y="72" on="1"/>
        <pt x="620" y="72" on="0"/>
        <pt x="695" y="94" on="0"/>
        <pt x="721" y="111" on="1"/>
        <pt x="727" y="24" on="1"/>
        <pt x="702" y="10" on="0"/>
        <pt x="631" y="-10" on="0"/>
        <pt x="586" y="-10" on="1"/>
        <pt x="520" y="-10" on="0"/>
        <pt x="432" y="40" on="0"/>
        <pt x="405" y="88" on="1"/>
        <pt x="379" y="40" on="0"/>
        <pt x="294" y="-10" on="0"/>
        <pt x="240" y="-10" on="1"/>
        <pt x="189" y="-10" on="0"/>
        <pt x="108" y="31" on="0"/>
        <pt x="53" y="102" on="0"/>
        <pt x="24" y="196" on="0"/>
        <pt x="24" y="250" on="1"/>
        <pt x="24" y="302" on="0"/>
        <pt x="53" y="395" on="0"/>
        <pt x="109" y="463" on="0"/>
        <pt x="190" y="503" on="0"/>
        <pt x="241" y="503" on="1"/>
        <pt x="292" y="503" on="0"/>
        <pt x="377" y="456" on="0"/>
        <pt x="403" y="409" on="1"/>
        <pt x="429" y="456" on="0"/>
        <pt x="510" y="503" on="0"/>
        <pt x="559" y="503" on="1"/>
        <pt x="599" y="503" on="0"/>
        <pt x="668" y="474" on="0"/>
        <pt x="718" y="420" on="0"/>
        <pt x="746" y="343" on="0"/>
        <pt x="746" y="294" on="1"/>
        <pt x="746" y="279" on="0"/>
        <pt x="743" y="252" on="0"/>
        <pt x="741" y="237" on="1"/>
      </contour>
      <contour>
        <pt x="561" y="415" on="1"/>
        <pt x="477" y="415" on="0"/>
        <pt x="461" y="307" on="1"/>
        <pt x="645" y="307" on="1"/>
        <pt x="644" y="355" on="0"/>
        <pt x="605" y="415" on="0"/>
      </contour>
      <contour>
        <pt x="241" y="415" on="1"/>
        <pt x="185" y="415" on="0"/>
        <pt x="126" y="325" on="0"/>
        <pt x="126" y="246" on="1"/>
        <pt x="126" y="168" on="0"/>
        <pt x="185" y="78" on="0"/>
        <pt x="241" y="78" on="1"/>
        <pt x="268" y="78" on="0"/>
        <pt x="311" y="104" on="0"/>
        <pt x="339" y="149" on="0"/>
        <pt x="354" y="212" on="0"/>
        <pt x="354" y="248" on="1"/>
        <pt x="354" y="322" on="0"/>
        <pt x="295" y="415" on="0"/>
      </contour>
    </TTGlyph>
    <TTGlyph name="ograve" xMin="24" yMin="-10" xMax="455" yMax="738">
      <component glyphName="o" x="0" y="0" flags="0x204"/>
      <component glyphName="grave" x="109" y="0" flags="0x4"/>
    </TTGlyph>
    <TTGlyph name="one" xMin="37" yMin="0" xMax="231" yMax="700">
      <contour>
        <pt x="127" y="0" on="1"/>
        <pt x="127" y="548" on="1"/>
        <pt x="107" y="524" on="0"/>
        <pt x="68" y="501" on="0"/>
        <pt x="48" y="495" on="1"/>
        <pt x="37" y="591" on="1"/>
        <pt x="52" y="597" on="0"/>
        <pt x="86" y="619" on="0"/>
        <pt x="118" y="648" on="0"/>
        <pt x="145" y="682" on="0"/>
        <pt x="152" y="700" on="1"/>
        <pt x="231" y="700" on="1"/>
        <pt x="231" y="0" on="1"/>
      </contour>
    </TTGlyph>
    <TTGlyph name="onehalf" xMin="86" yMin="-85" xMax="653" yMax="700">
      <component glyphName="onesuperior" x="40" y="0" flags="0x4"/>
      <component glyphName="slash" x="84" y="0" flags="0x4"/>
      <component glyphName="twosuperior" x="392" y="-319" flags="0x4"/>
    </TTGlyph>
    <TTGlyph name="onequarter" xMin="86" yMin="-85" xMax="651" yMax="700">
      <component glyphName="onesuperior" x="40" y="0" flags="0x4"/>
      <component glyphName="slash" x="84" y="0" flags="0x4"/>
      <component glyphName="uni2074" x="357" y="-319" flags="0x4"/>
    </TTGlyph>
    <TTGlyph name="onesuperior" xMin="46" yMin="320" xMax="163" yMax="698">
      <contour>
        <pt x="84" y="320" on="1"/>
        <pt x="84" y="585" on="1"/>
        <pt x="83" y="583" on="0"/>
        <pt x="63" y="576" on="0"/>
        <pt x="49" y="574" on="1"/>
        <pt x="46" y="639" on="1"/>
        <pt x="52" y="640" on="0"/>
        <pt x="70" y="651" on="0"/>
        <pt x="87" y="668" on="0"/>
        <pt x="100" y="688" on="0"/>
        <pt x="101" y="698" on="1"/>
        <pt x="163" y="698" on="1"/>
        <pt x="163" y="320" on="1"/>
      </contour>
    </TTGlyph>
    <TTGlyph name="ordfeminine" xMin="26" yMin="434" xMax="276" yMax="727">
      <contour>
        <pt x="273" y="434" on="1"/>
        <pt x="229" y="434" on="1"/>
        <pt x="212" y="434" on="0"/>
        <pt x="185" y="450" on="0"/>
        <pt x="178" y="461" on="1"/>
        <pt x="167" y="447" on="0"/>
        <pt x="120" y="434" on="0"/>
        <pt x="98" y="434" on="1"/>
        <pt x="71" y="434" on="0"/>
        <pt x="26" y="478" on="0"/>
        <pt x="26" y="521" on="1"/>
        <pt x="26" y="551" on="0"/>
        <pt x="60" y="590" on="0"/>
        <pt x="106" y="613" on="0"/>
        <pt x="152" y="622" on="0"/>
        <pt x="164" y="623" on="1"/>
        <pt x="162" y="637" on="0"/>
        <pt x="150" y="657" on="0"/>
        <pt x="127" y="657" on="1"/>
        <pt x="107" y="657" on="0"/>
        <pt x="74" y="647" on="0"/>
        <pt x="52" y="639" on="1"/>
        <pt x="48" y="706" on="1"/>
        <pt x="80" y="718" on="0"/>
        <pt x="128" y="727" on="0"/>
        <pt x="151" y="727" on="1"/>
        <pt x="170" y="727" on="0"/>
        <pt x="206" y="715" on="0"/>
        <pt x="233" y="691" on="0"/>
        <pt x="249" y="654" on="0"/>
        <pt x="249" y="628" on="1"/>
        <pt x="249" y="539" on="1"/>
        <pt x="249" y="514" on="0"/>
        <pt x="257" y="503" on="0"/>
        <pt x="264" y="503" on="1"/>
        <pt x="276" y="503" on="1"/>
      </contour>
      <contour>
        <pt x="165" y="568" on="1"/>
        <pt x="162" y="568" on="0"/>
        <pt x="145" y="562" on="0"/>
        <pt x="128" y="551" on="0"/>
        <pt x="114" y="534" on="0"/>
        <pt x="114" y="524" on="1"/>
        <pt x="114" y="510" on="0"/>
        <pt x="125" y="496" on="0"/>
        <pt x="143" y="496" on="1"/>
        <pt x="145" y="496" on="0"/>
        <pt x="157" y="500" on="0"/>
        <pt x="165" y="505" on="1"/>
      </contour>
    </TTGlyph>
    <TTGlyph name="ordmasculine" xMin="26" yMin="434" xMax="298" yMax="727">
      <contour>
        <pt x="162" y="434" on="1"/>
        <pt x="130" y="434" on="0"/>
        <pt x="79" y="458" on="0"/>
        <pt x="44" y="498" on="0"/>
        <pt x="26" y="552" on="0"/>
        <pt x="26" y="581" on="1"/>
        <pt x="26" y="610" on="0"/>
        <pt x="44" y="663" on="0"/>
        <pt x="79" y="703" on="0"/>
        <pt x="130" y="727" on="0"/>
        <pt x="162" y="727" on="1"/>
        <pt x="194" y="727" on="0"/>
        <pt x="245" y="703" on="0"/>
        <pt x="280" y="663" on="0"/>
        <pt x="298" y="610" on="0"/>
        <pt x="298" y="581" on="1"/>
        <pt x="298" y="552" on="0"/>
        <pt x="280" y="498" on="0"/>
        <pt x="245" y="458" on="0"/>
        <pt x="194" y="434" on="0"/>
      </contour>
      <contour>
        <pt x="162" y="662" on="1"/>
        <pt x="138" y="662" on="0"/>
        <pt x="111" y="616" on="0"/>
        <pt x="111" y="581" on="1"/>
        <pt x="111" y="547" on="0"/>
        <pt x="138" y="500" on="0"/>
        <pt x="162" y="500" on="1"/>
        <pt x="186" y="500" on="0"/>
        <pt x="213" y="547" on="0"/>
        <pt x="213" y="581" on="1"/>
        <pt x="213" y="616" on="0"/>
        <pt x="186" y="662" on="0"/>
      </contour>
    </TTGlyph>
    <TTGlyph name="oslash" xMin="24" yMin="-35" xMax="459" yMax="534">
      <contour>
        <pt x="242" y="-9" on="1"/>
        <pt x="209" y="-9" on="0"/>
        <pt x="178" y="1" on="1"/>
        <pt x="164" y="-35" on="1"/>
        <pt x="80" y="-35" on="1"/>
        <pt x="110" y="34" on="1"/>
        <pt x="68" y="73" on="0"/>
        <pt x="24" y="184" on="0"/>
        <pt x="24" y="249" on="1"/>
        <pt x="24" y="301" on="0"/>
        <pt x="53" y="395" on="0"/>
        <pt x="109" y="466" on="0"/>
        <pt x="190" y="507" on="0"/>
        <pt x="241" y="507" on="1"/>
        <pt x="274" y="507" on="0"/>
        <pt x="302" y="496" on="1"/>
        <pt x="316" y="534" on="1"/>
        <pt x="404" y="534" on="1"/>
        <pt x="372" y="465" on="1"/>
        <pt x="415" y="424" on="0"/>
        <pt x="459" y="314" on="0"/>
        <pt x="459" y="248" on="1"/>
        <pt x="459" y="195" on="0"/>
        <pt x="430" y="102" on="0"/>
        <pt x="374" y="32" on="0"/>
        <pt x="293" y="-9" on="0"/>
      </contour>
      <contour>
        <pt x="215" y="77" on="1"/>
        <pt x="224" y="74" on="0"/>
        <pt x="236" y="72" on="0"/>
        <pt x="242" y="72" on="1"/>
        <pt x="269" y="72" on="0"/>
        <pt x="312" y="99" on="0"/>
        <pt x="341" y="147" on="0"/>
        <pt x="356" y="211" on="0"/>
        <pt x="356" y="248" on="1"/>
        <pt x="356" y="264" on="0"/>
        <pt x="353" y="303" on="0"/>
        <pt x="347" y="340" on="0"/>
        <pt x="337" y="371" on="0"/>
        <pt x="331" y="381" on="1"/>
      </contour>
      <contour>
        <pt x="241" y="426" on="1"/>
        <pt x="214" y="426" on="0"/>
        <pt x="172" y="399" on="0"/>
        <pt x="142" y="351" on="0"/>
        <pt x="127" y="286" on="0"/>
        <pt x="127" y="248" on="1"/>
        <pt x="127" y="217" on="0"/>
        <pt x="139" y="156" on="0"/>
        <pt x="151" y="117" on="1"/>
        <pt x="265" y="420" on="1"/>
        <pt x="257" y="424" on="0"/>
        <pt x="246" y="426" on="0"/>
      </contour>
    </TTGlyph>
    <TTGlyph name="otilde" xMin="24" yMin="-10" xMax="455" yMax="709">
      <component glyphName="o" x="0" y="0" flags="0x204"/>
      <component glyphName="tilde" x="12" y="0" flags="0x4"/>
    </TTGlyph>
    <TTGlyph name="p" xMin="52" yMin="-242" xMax="465" yMax="503">
      <contour>
        <pt x="260" y="-10" on="1"/>
        <pt x="196" y="-10" on="0"/>
        <pt x="152" y="49" on="1"/>
        <pt x="152" y="-242" on="1"/>
        <pt x="52" y="-242" on="1"/>
        <pt x="52" y="493" on="1"/>
        <pt x="138" y="493" on="1"/>
        <pt x="146" y="438" on="1"/>
        <pt x="169" y="469" on="0"/>
        <pt x="221" y="503" on="0"/>
        <pt x="260" y="503" on="1"/>
        <pt x="310" y="503" on="0"/>
        <pt x="386" y="461" on="0"/>
        <pt x="438" y="390" on="0"/>
        <pt x="465" y="297" on="0"/>
        <pt x="465" y="246" on="1"/>
        <pt x="465" y="193" on="0"/>
        <pt x="439" y="99" on="0"/>
        <pt x="387" y="30" on="0"/>
        <pt x="311" y="-10" on="0"/>
      </contour>
      <contour>
        <pt x="253" y="415" on="1"/>
        <pt x="202" y="415" on="0"/>
        <pt x="147" y="329" on="0"/>
        <pt x="147" y="246" on="1"/>
        <pt x="147" y="161" on="0"/>
        <pt x="202" y="78" on="0"/>
        <pt x="253" y="78" on="1"/>
        <pt x="279" y="78" on="0"/>
        <pt x="320" y="104" on="0"/>
        <pt x="348" y="149" on="0"/>
        <pt x="363" y="210" on="0"/>
        <pt x="363" y="246" on="1"/>
        <pt x="363" y="283" on="0"/>
        <pt x="348" y="345" on="0"/>
        <pt x="320" y="390" on="0"/>
        <pt x="279" y="415" on="0"/>
      </contour>
    </TTGlyph>
    <TTGlyph name="paragraph" xMin="28" yMin="0" xMax="498" yMax="700">
      <contour>
        <pt x="438" y="619" on="1"/>
        <pt x="438" y="0" on="1"/>
        <pt x="370" y="0" on="1"/>
        <pt x="370" y="619" on="1"/>
        <pt x="309" y="619" on="1"/>
        <pt x="309" y="0" on="1"/>
        <pt x="255" y="0" on="1"/>
        <pt x="255" y="238" on="1"/>
        <pt x="198" y="242" on="0"/>
        <pt x="112" y="285" on="0"/>
        <pt x="56" y="350" on="0"/>
        <pt x="28" y="430" on="0"/>
        <pt x="28" y="471" on="1"/>
        <pt x="28" y="513" on="0"/>
        <pt x="58" y="596" on="0"/>
        <pt x="120" y="660" on="0"/>
        <pt x="212" y="700" on="0"/>
        <pt x="275" y="700" on="1"/>
        <pt x="498" y="700" on="1"/>
        <pt x="498" y="619" on="1"/>
      </contour>
    </TTGlyph>
    <TTGlyph name="parenleft" xMin="39" yMin="-136" xMax="220" yMax="750">
      <contour>
        <pt x="129" y="-136" on="1"/>
        <pt x="108" y="-96" on="0"/>
        <pt x="75" y="-6" on="0"/>
        <pt x="52" y="100" on="0"/>
        <pt x="39" y="228" on="0"/>
        <pt x="39" y="307" on="1"/>
        <pt x="39" y="386" on="0"/>
        <pt x="52" y="514" on="0"/>
        <pt x="75" y="620" on="0"/>
        <pt x="108" y="709" on="0"/>
        <pt x="129" y="750" on="1"/>
        <pt x="220" y="750" on="1"/>
        <pt x="199" y="708" on="0"/>
        <pt x="163" y="614" on="0"/>
        <pt x="136" y="505" on="0"/>
        <pt x="120" y="379" on="0"/>
        <pt x="120" y="307" on="1"/>
        <pt x="120" y="235" on="0"/>
        <pt x="136" y="109" on="0"/>
        <pt x="163" y="0" on="0"/>
        <pt x="199" y="-94" on="0"/>
        <pt x="220" y="-136" on="1"/>
      </contour>
    </TTGlyph>
    <TTGlyph name="parenright" xMin="25" yMin="-136" xMax="206" yMax="750">
      <contour>
        <pt x="25" y="-136" on="1"/>
        <pt x="46" y="-94" on="0"/>
        <pt x="82" y="0" on="0"/>
        <pt x="109" y="109" on="0"/>
        <pt x="124" y="235" on="0"/>
        <pt x="124" y="307" on="1"/>
        <pt x="124" y="379" on="0"/>
        <pt x="109" y="505" on="0"/>
        <pt x="82" y="614" on="0"/>
        <pt x="46" y="708" on="0"/>
        <pt x="25" y="750" on="1"/>
        <pt x="115" y="750" on="1"/>
        <pt x="136" y="709" on="0"/>
        <pt x="170" y="620" on="0"/>
        <pt x="193" y="514" on="0"/>
        <pt x="206" y="386" on="0"/>
        <pt x="206" y="307" on="1"/>
        <pt x="206" y="228" on="0"/>
        <pt x="193" y="100" on="0"/>
        <pt x="170" y="-6" on="0"/>
        <pt x="136" y="-96" on="0"/>
        <pt x="115" y="-136" on="1"/>
      </contour>
    </TTGlyph>
    <TTGlyph name="percent" xMin="30" yMin="-12" xMax="695" yMax="705">
      <contour>
        <pt x="213" y="-12" on="1"/>
        <pt x="130" y="-12" on="1"/>
        <pt x="493" y="700" on="1"/>
        <pt x="576" y="700" on="1"/>
      </contour>
      <contour>
        <pt x="158" y="334" on="1"/>
        <pt x="101" y="334" on="0"/>
        <pt x="30" y="429" on="0"/>
        <pt x="30" y="515" on="1"/>
        <pt x="30" y="560" on="0"/>
        <pt x="51" y="631" on="0"/>
        <pt x="87" y="679" on="0"/>
        <pt x="135" y="705" on="0"/>
        <pt x="162" y="705" on="1"/>
        <pt x="218" y="705" on="0"/>
        <pt x="290" y="611" on="0"/>
        <pt x="290" y="524" on="1"/>
        <pt x="290" y="433" on="0"/>
        <pt x="218" y="334" on="0"/>
      </contour>
      <contour>
        <pt x="161" y="646" on="1"/>
        <pt x="135" y="646" on="0"/>
        <pt x="94" y="578" on="0"/>
        <pt x="94" y="515" on="1"/>
        <pt x="94" y="456" on="0"/>
        <pt x="132" y="393" on="0"/>
        <pt x="159" y="393" on="1"/>
        <pt x="188" y="393" on="0"/>
        <pt x="227" y="461" on="0"/>
        <pt x="227" y="524" on="1"/>
        <pt x="227" y="582" on="0"/>
        <pt x="187" y="646" on="0"/>
      </contour>
      <contour>
        <pt x="563" y="-12" on="1"/>
        <pt x="506" y="-12" on="0"/>
        <pt x="435" y="83" on="0"/>
        <pt x="435" y="169" on="1"/>
        <pt x="435" y="214" on="0"/>
        <pt x="456" y="285" on="0"/>
        <pt x="492" y="333" on="0"/>
        <pt x="540" y="359" on="0"/>
        <pt x="567" y="359" on="1"/>
        <pt x="623" y="359" on="0"/>
        <pt x="695" y="265" on="0"/>
        <pt x="695" y="178" on="1"/>
        <pt x="695" y="87" on="0"/>
        <pt x="623" y="-12" on="0"/>
      </contour>
      <contour>
        <pt x="566" y="300" on="1"/>
        <pt x="540" y="300" on="0"/>
        <pt x="499" y="232" on="0"/>
        <pt x="499" y="169" on="1"/>
        <pt x="499" y="110" on="0"/>
        <pt x="537" y="47" on="0"/>
        <pt x="564" y="47" on="1"/>
        <pt x="593" y="47" on="0"/>
        <pt x="632" y="115" on="0"/>
        <pt x="632" y="178" on="1"/>
        <pt x="632" y="236" on="0"/>
        <pt x="592" y="300" on="0"/>
      </contour>
    </TTGlyph>
    <TTGlyph name="period" xMin="52" yMin="0" xMax="152" yMax="101">
      <contour>
        <pt x="52" y="0" on="1"/>
        <pt x="52" y="101" on="1"/>
        <pt x="152" y="101" on="1"/>
        <pt x="152" y="0" on="1"/>
      </contour>
    </TTGlyph>
    <TTGlyph name="periodcentered" xMin="55" yMin="213" xMax="162" yMax="343">
      <contour>
        <pt x="55" y="213" on="1"/>
        <pt x="55" y="343" on="1"/>
        <pt x="162" y="343" on="1"/>
        <pt x="162" y="213" on="1"/>
      </contour>
    </TTGlyph>
    <TTGlyph name="perthousand" xMin="30" yMin="-12" xMax="1005" yMax="705">
      <contour>
        <pt x="213" y="-12" on="1"/>
        <pt x="130" y="-12" on="1"/>
        <pt x="493" y="700" on="1"/>
        <pt x="576" y="700" on="1"/>
      </contour>
      <contour>
        <pt x="158" y="334" on="1"/>
        <pt x="101" y="334" on="0"/>
        <pt x="30" y="429" on="0"/>
        <pt x="30" y="515" on="1"/>
        <pt x="30" y="560" on="0"/>
        <pt x="51" y="631" on="0"/>
        <pt x="87" y="679" on="0"/>
        <pt x="135" y="705" on="0"/>
        <pt x="162" y="705" on="1"/>
        <pt x="218" y="705" on="0"/>
        <pt x="290" y="611" on="0"/>
        <pt x="290" y="524" on="1"/>
        <pt x="290" y="433" on="0"/>
        <pt x="218" y="334" on="0"/>
      </contour>
      <contour>
        <pt x="161" y="646" on="1"/>
        <pt x="135" y="646" on="0"/>
        <pt x="94" y="578" on="0"/>
        <pt x="94" y="515" on="1"/>
        <pt x="94" y="456" on="0"/>
        <pt x="132" y="393" on="0"/>
        <pt x="159" y="393" on="1"/>
        <pt x="188" y="393" on="0"/>
        <pt x="227" y="461" on="0"/>
        <pt x="227" y="524" on="1"/>
        <pt x="227" y="582" on="0"/>
        <pt x="187" y="646" on="0"/>
      </contour>
      <contour>
        <pt x="563" y="-12" on="1"/>
        <pt x="506" y="-12" on="0"/>
        <pt x="435" y="83" on="0"/>
        <pt x="435" y="169" on="1"/>
        <pt x="435" y="214" on="0"/>
        <pt x="456" y="285" on="0"/>
        <pt x="492" y="333" on="0"/>
        <pt x="540" y="359" on="0"/>
        <pt x="567" y="359" on="1"/>
        <pt x="623" y="359" on="0"/>
        <pt x="695" y="265" on="0"/>
        <pt x="695" y="178" on="1"/>
        <pt x="695" y="87" on="0"/>
        <pt x="623" y="-12" on="0"/>
      </contour>
      <contour>
        <pt x="566" y="300" on="1"/>
        <pt x="540" y="300" on="0"/>
        <pt x="499" y="232" on="0"/>
        <pt x="499" y="169" on="1"/>
        <pt x="499" y="110" on="0"/>
        <pt x="537" y="47" on="0"/>
        <pt x="564" y="47" on="1"/>
        <pt x="593" y="47" on="0"/>
        <pt x="632" y="115" on="0"/>
        <pt x="632" y="178" on="1"/>
        <pt x="632" y="236" on="0"/>
        <pt x="592" y="300" on="0"/>
      </contour>
      <contour>
        <pt x="873" y="-12" on="1"/>
        <pt x="815" y="-12" on="0"/>
        <pt x="744" y="83" on="0"/>
        <pt x="744" y="169" on="1"/>
        <pt x="744" y="214" on="0"/>
        <pt x="765" y="285" on="0"/>
        <pt x="801" y="333" on="0"/>
        <pt x="849" y="359" on="0"/>
        <pt x="877" y="359" on="1"/>
        <pt x="932" y="359" on="0"/>
        <pt x="1005" y="265" on="0"/>
        <pt x="1005" y="178" on="1"/>
        <pt x="1005" y="87" on="0"/>
        <pt x="932" y="-12" on="0"/>
      </contour>
      <contour>
        <pt x="876" y="300" on="1"/>
        <pt x="850" y="300" on="0"/>
        <pt x="809" y="232" on="0"/>
        <pt x="809" y="169" on="1"/>
        <pt x="809" y="110" on="0"/>
        <pt x="846" y="47" on="0"/>
        <pt x="873" y="47" on="1"/>
        <pt x="903" y="47" on="0"/>
        <pt x="941" y="115" on="0"/>
        <pt x="941" y="178" on="1"/>
        <pt x="941" y="236" on="0"/>
        <pt x="902" y="300" on="0"/>
      </contour>
    </TTGlyph>
    <TTGlyph name="plus" xMin="35" yMin="102" xMax="353" yMax="452">
      <contour>
        <pt x="233" y="235" on="1"/>
        <pt x="233" y="102" on="1"/>
        <pt x="155" y="102" on="1"/>
        <pt x="155" y="235" on="1"/>
        <pt x="35" y="235" on="1"/>
        <pt x="35" y="324" on="1"/>
        <pt x="155" y="324" on="1"/>
        <pt x="155" y="452" on="1"/>
        <pt x="233" y="452" on="1"/>
        <pt x="233" y="324" on="1"/>
        <pt x="353" y="324" on="1"/>
        <pt x="353" y="235" on="1"/>
      </contour>
    </TTGlyph>
    <TTGlyph name="plusminus" xMin="41" yMin="38" xMax="359" yMax="532">
      <contour>
        <pt x="237" y="321" on="1"/>
        <pt x="237" y="183" on="1"/>
        <pt x="163" y="183" on="1"/>
        <pt x="163" y="321" on="1"/>
        <pt x="41" y="321" on="1"/>
        <pt x="41" y="397" on="1"/>
        <pt x="163" y="397" on="1"/>
        <pt x="163" y="532" on="1"/>
        <pt x="237" y="532" on="1"/>
        <pt x="237" y="397" on="1"/>
        <pt x="359" y="397" on="1"/>
        <pt x="359" y="321" on="1"/>
      </contour>
      <contour>
        <pt x="41" y="38" on="1"/>
        <pt x="41" y="114" on="1"/>
        <pt x="359" y="114" on="1"/>
        <pt x="359" y="38" on="1"/>
      </contour>
    </TTGlyph>
    <TTGlyph name="q" xMin="52" yMin="-242" xMax="465" yMax="503">
      <contour>
        <pt x="258" y="-10" on="1"/>
        <pt x="207" y="-10" on="0"/>
        <pt x="130" y="30" on="0"/>
        <pt x="78" y="99" on="0"/>
        <pt x="52" y="193" on="0"/>
        <pt x="52" y="246" on="1"/>
        <pt x="52" y="297" on="0"/>
        <pt x="79" y="390" on="0"/>
        <pt x="131" y="461" on="0"/>
        <pt x="207" y="503" on="0"/>
        <pt x="257" y="503" on="1"/>
        <pt x="297" y="503" on="0"/>
        <pt x="349" y="469" on="0"/>
        <pt x="372" y="438" on="1"/>
        <pt x="381" y="493" on="1"/>
        <pt x="465" y="493" on="1"/>
        <pt x="465" y="-242" on="1"/>
        <pt x="366" y="-242" on="1"/>
        <pt x="366" y="49" on="1"/>
        <pt x="321" y="-10" on="0"/>
      </contour>
      <contour>
        <pt x="265" y="415" on="1"/>
        <pt x="239" y="415" on="0"/>
        <pt x="198" y="390" on="0"/>
        <pt x="170" y="345" on="0"/>
        <pt x="155" y="283" on="0"/>
        <pt x="155" y="246" on="1"/>
        <pt x="155" y="210" on="0"/>
        <pt x="170" y="149" on="0"/>
        <pt x="198" y="104" on="0"/>
        <pt x="239" y="78" on="0"/>
        <pt x="265" y="78" on="1"/>
        <pt x="316" y="78" on="0"/>
        <pt x="370" y="161" on="0"/>
        <pt x="370" y="246" on="1"/>
        <pt x="370" y="329" on="0"/>
        <pt x="316" y="415" on="0"/>
      </contour>
    </TTGlyph>
    <TTGlyph name="question" xMin="25" yMin="0" xMax="343" yMax="750">
      <contour>
        <pt x="139" y="200" on="1"/>
        <pt x="137" y="225" on="0"/>
        <pt x="137" y="245" on="0"/>
        <pt x="137" y="248" on="1"/>
        <pt x="137" y="294" on="0"/>
        <pt x="172" y="370" on="0"/>
        <pt x="214" y="441" on="0"/>
        <pt x="249" y="515" on="0"/>
        <pt x="249" y="560" on="1"/>
        <pt x="249" y="619" on="0"/>
        <pt x="195" y="673" on="0"/>
        <pt x="157" y="673" on="1"/>
        <pt x="138" y="673" on="0"/>
        <pt x="105" y="660" on="0"/>
        <pt x="77" y="640" on="0"/>
        <pt x="56" y="616" on="0"/>
        <pt x="49" y="606" on="1"/>
        <pt x="25" y="682" on="1"/>
        <pt x="45" y="713" on="0"/>
        <pt x="120" y="750" on="0"/>
        <pt x="163" y="750" on="1"/>
        <pt x="209" y="750" on="0"/>
        <pt x="276" y="714" on="0"/>
        <pt x="321" y="659" on="0"/>
        <pt x="343" y="592" on="0"/>
        <pt x="343" y="562" on="1"/>
        <pt x="343" y="515" on="0"/>
        <pt x="300" y="431" on="0"/>
        <pt x="249" y="349" on="0"/>
        <pt x="206" y="267" on="0"/>
        <pt x="206" y="222" on="1"/>
        <pt x="206" y="200" on="1"/>
      </contour>
      <contour>
        <pt x="123" y="0" on="1"/>
        <pt x="123" y="99" on="1"/>
        <pt x="224" y="99" on="1"/>
        <pt x="224" y="0" on="1"/>
      </contour>
    </TTGlyph>
    <TTGlyph name="questiondown" xMin="25" yMin="-250" xMax="343" yMax="500">
      <contour>
        <pt x="229" y="300" on="1"/>
        <pt x="231" y="275" on="0"/>
        <pt x="232" y="255" on="0"/>
        <pt x="232" y="252" on="1"/>
        <pt x="232" y="205" on="0"/>
        <pt x="197" y="130" on="0"/>
        <pt x="154" y="59" on="0"/>
        <pt x="119" y="-15" on="0"/>
        <pt x="119" y="-60" on="1"/>
        <pt x="119" y="-119" on="0"/>
        <pt x="173" y="-173" on="0"/>
        <pt x="211" y="-173" on="1"/>
        <pt x="230" y="-173" on="0"/>
        <pt x="264" y="-160" on="0"/>
        <pt x="291" y="-140" on="0"/>
        <pt x="312" y="-117" on="0"/>
        <pt x="319" y="-106" on="1"/>
        <pt x="343" y="-182" on="1"/>
        <pt x="323" y="-213" on="0"/>
        <pt x="248" y="-250" on="0"/>
        <pt x="206" y="-250" on="1"/>
        <pt x="160" y="-250" on="0"/>
        <pt x="92" y="-214" on="0"/>
        <pt x="47" y="-159" on="0"/>
        <pt x="25" y="-92" on="0"/>
        <pt x="25" y="-62" on="1"/>
        <pt x="25" y="-31" on="0"/>
        <pt x="45" y="27" on="0"/>
        <pt x="75" y="83" on="0"/>
        <pt x="111" y="137" on="0"/>
        <pt x="141" y="192" on="0"/>
        <pt x="161" y="248" on="0"/>
        <pt x="161" y="278" on="1"/>
        <pt x="161" y="300" on="1"/>
      </contour>
      <contour>
        <pt x="245" y="500" on="1"/>
        <pt x="245" y="401" on="1"/>
        <pt x="145" y="401" on="1"/>
        <pt x="145" y="500" on="1"/>
      </contour>
    </TTGlyph>
    <TTGlyph name="quotedbl" xMin="31" yMin="450" xMax="309" yMax="750">
      <contour>
        <pt x="292" y="450" on="1"/>
        <pt x="226" y="450" on="1"/>
        <pt x="209" y="750" on="1"/>
        <pt x="309" y="750" on="1"/>
      </contour>
      <contour>
        <pt x="114" y="450" on="1"/>
        <pt x="48" y="450" on="1"/>
        <pt x="31" y="750" on="1"/>
        <pt x="132" y="750" on="1"/>
      </contour>
    </TTGlyph>
    <TTGlyph name="quotedblbase" xMin="50" yMin="-109" xMax="350" yMax="101">
      <contour>
        <pt x="72" y="-109" on="1"/>
        <pt x="50" y="-96" on="1"/>
        <pt x="79" y="-9" on="1"/>
        <pt x="51" y="0" on="1"/>
        <pt x="51" y="101" on="1"/>
        <pt x="152" y="101" on="1"/>
        <pt x="152" y="0" on="1"/>
      </contour>
      <contour>
        <pt x="270" y="-109" on="1"/>
        <pt x="248" y="-96" on="1"/>
        <pt x="277" y="-9" on="1"/>
        <pt x="248" y="0" on="1"/>
        <pt x="248" y="101" on="1"/>
        <pt x="350" y="101" on="1"/>
        <pt x="350" y="0" on="1"/>
      </contour>
    </TTGlyph>
    <TTGlyph name="quotedblleft" xMin="51" yMin="540" xMax="333" yMax="750">
      <contour>
        <pt x="131" y="750" on="1"/>
        <pt x="152" y="737" on="1"/>
        <pt x="124" y="650" on="1"/>
        <pt x="153" y="641" on="1"/>
        <pt x="153" y="540" on="1"/>
        <pt x="51" y="540" on="1"/>
        <pt x="51" y="641" on="1"/>
      </contour>
      <contour>
        <pt x="311" y="750" on="1"/>
        <pt x="333" y="737" on="1"/>
        <pt x="304" y="650" on="1"/>
        <pt x="333" y="641" on="1"/>
        <pt x="333" y="540" on="1"/>
        <pt x="232" y="540" on="1"/>
        <pt x="232" y="641" on="1"/>
      </contour>
    </TTGlyph>
    <TTGlyph name="quotedblright" xMin="50" yMin="540" xMax="333" yMax="750">
      <contour>
        <pt x="252" y="540" on="1"/>
        <pt x="231" y="553" on="1"/>
        <pt x="260" y="640" on="1"/>
        <pt x="231" y="649" on="1"/>
        <pt x="231" y="750" on="1"/>
        <pt x="333" y="750" on="1"/>
        <pt x="333" y="649" on="1"/>
      </contour>
      <contour>
        <pt x="72" y="540" on="1"/>
        <pt x="50" y="553" on="1"/>
        <pt x="79" y="640" on="1"/>
        <pt x="51" y="649" on="1"/>
        <pt x="51" y="750" on="1"/>
        <pt x="152" y="750" on="1"/>
        <pt x="152" y="649" on="1"/>
      </contour>
    </TTGlyph>
    <TTGlyph name="quoteleft" xMin="51" yMin="540" xMax="153" yMax="750">
      <contour>
        <pt x="131" y="750" on="1"/>
        <pt x="152" y="737" on="1"/>
        <pt x="124" y="650" on="1"/>
        <pt x="153" y="641" on="1"/>
        <pt x="153" y="540" on="1"/>
        <pt x="51" y="540" on="1"/>
        <pt x="51" y="641" on="1"/>
      </contour>
    </TTGlyph>
    <TTGlyph name="quoteright" xMin="50" yMin="540" xMax="152" yMax="750">
      <contour>
        <pt x="72" y="540" on="1"/>
        <pt x="50" y="553" on="1"/>
        <pt x="79" y="640" on="1"/>
        <pt x="51" y="649" on="1"/>
        <pt x="51" y="750" on="1"/>
        <pt x="152" y="750" on="1"/>
        <pt x="152" y="649" on="1"/>
      </contour>
    </TTGlyph>
    <TTGlyph name="quotesinglbase" xMin="50" yMin="-109" xMax="152" yMax="101">
      <contour>
        <pt x="72" y="-109" on="1"/>
        <pt x="50" y="-96" on="1"/>
        <pt x="79" y="-9" on="1"/>
        <pt x="51" y="0" on="1"/>
        <pt x="51" y="101" on="1"/>
        <pt x="152" y="101" on="1"/>
        <pt x="152" y="0" on="1"/>
      </contour>
    </TTGlyph>
    <TTGlyph name="quotesingle" xMin="34" yMin="450" xMax="136" yMax="750">
      <contour>
        <pt x="118" y="450" on="1"/>
        <pt x="50" y="450" on="1"/>
        <pt x="34" y="750" on="1"/>
        <pt x="136" y="750" on="1"/>
      </contour>
    </TTGlyph>
    <TTGlyph name="r" xMin="53" yMin="0" xMax="293" yMax="508">
      <contour>
        <pt x="273" y="403" on="1"/>
        <pt x="236" y="403" on="1"/>
        <pt x="210" y="403" on="0"/>
        <pt x="163" y="367" on="0"/>
        <pt x="154" y="344" on="1"/>
        <pt x="154" y="0" on="1"/>
        <pt x="53" y="0" on="1"/>
        <pt x="53" y="493" on="1"/>
        <pt x="144" y="493" on="1"/>
        <pt x="148" y="422" on="1"/>
        <pt x="170" y="462" on="0"/>
        <pt x="232" y="508" on="0"/>
        <pt x="269" y="508" on="1"/>
        <pt x="293" y="508" on="1"/>
      </contour>
    </TTGlyph>
    <TTGlyph name="registered" xMin="34" yMin="37" xMax="568" yMax="693">
      <contour>
        <pt x="301" y="37" on="1"/>
        <pt x="243" y="37" on="0"/>
        <pt x="145" y="84" on="0"/>
        <pt x="74" y="170" on="0"/>
        <pt x="34" y="291" on="0"/>
        <pt x="34" y="365" on="1"/>
        <pt x="34" y="440" on="0"/>
        <pt x="74" y="561" on="0"/>
        <pt x="145" y="646" on="0"/>
        <pt x="243" y="693" on="0"/>
        <pt x="301" y="693" on="1"/>
        <pt x="359" y="693" on="0"/>
        <pt x="457" y="646" on="0"/>
        <pt x="528" y="561" on="0"/>
        <pt x="568" y="440" on="0"/>
        <pt x="568" y="365" on="1"/>
        <pt x="568" y="291" on="0"/>
        <pt x="528" y="170" on="0"/>
        <pt x="457" y="84" on="0"/>
        <pt x="359" y="37" on="0"/>
      </contour>
      <contour>
        <pt x="301" y="640" on="1"/>
        <pt x="250" y="640" on="0"/>
        <pt x="173" y="598" on="0"/>
        <pt x="122" y="524" on="0"/>
        <pt x="96" y="423" on="0"/>
        <pt x="96" y="365" on="1"/>
        <pt x="96" y="306" on="0"/>
        <pt x="122" y="206" on="0"/>
        <pt x="173" y="131" on="0"/>
        <pt x="250" y="89" on="0"/>
        <pt x="301" y="89" on="1"/>
        <pt x="353" y="89" on="0"/>
        <pt x="430" y="131" on="0"/>
        <pt x="481" y="206" on="0"/>
        <pt x="506" y="306" on="0"/>
        <pt x="506" y="365" on="1"/>
        <pt x="506" y="423" on="0"/>
        <pt x="481" y="524" on="0"/>
        <pt x="430" y="598" on="0"/>
        <pt x="353" y="640" on="0"/>
      </contour>
      <contour>
        <pt x="350" y="208" on="1"/>
        <pt x="296" y="323" on="1"/>
        <pt x="266" y="323" on="1"/>
        <pt x="266" y="208" on="1"/>
        <pt x="195" y="208" on="1"/>
        <pt x="195" y="533" on="1"/>
        <pt x="303" y="533" on="1"/>
        <pt x="325" y="533" on="0"/>
        <pt x="361" y="523" on="0"/>
        <pt x="388" y="500" on="0"/>
        <pt x="403" y="460" on="0"/>
        <pt x="403" y="430" on="1"/>
        <pt x="403" y="403" on="0"/>
        <pt x="378" y="358" on="0"/>
        <pt x="361" y="343" on="1"/>
        <pt x="425" y="208" on="1"/>
      </contour>
      <contour>
        <pt x="266" y="475" on="1"/>
        <pt x="266" y="387" on="1"/>
        <pt x="289" y="387" on="1"/>
        <pt x="315" y="387" on="0"/>
        <pt x="331" y="413" on="0"/>
        <pt x="331" y="432" on="1"/>
        <pt x="331" y="452" on="0"/>
        <pt x="317" y="475" on="0"/>
        <pt x="291" y="475" on="1"/>
      </contour>
    </TTGlyph>
    <TTGlyph name="ring" xMin="36" yMin="576" xMax="215" yMax="755">
      <contour>
        <pt x="125" y="576" on="1"/>
        <pt x="83" y="576" on="0"/>
        <pt x="36" y="630" on="0"/>
        <pt x="36" y="665" on="1"/>
        <pt x="36" y="683" on="0"/>
        <pt x="48" y="715" on="0"/>
        <pt x="71" y="740" on="0"/>
        <pt x="104" y="755" on="0"/>
        <pt x="125" y="755" on="1"/>
        <pt x="146" y="755" on="0"/>
        <pt x="180" y="740" on="0"/>
        <pt x="203" y="715" on="0"/>
        <pt x="215" y="683" on="0"/>
        <pt x="215" y="665" on="1"/>
        <pt x="215" y="630" on="0"/>
        <pt x="168" y="576" on="0"/>
      </contour>
      <contour>
        <pt x="125" y="718" on="1"/>
        <pt x="108" y="718" on="0"/>
        <pt x="85" y="688" on="0"/>
        <pt x="85" y="665" on="1"/>
        <pt x="85" y="640" on="0"/>
        <pt x="108" y="612" on="0"/>
        <pt x="125" y="612" on="1"/>
        <pt x="142" y="612" on="0"/>
        <pt x="166" y="640" on="0"/>
        <pt x="166" y="665" on="1"/>
        <pt x="166" y="688" on="0"/>
        <pt x="142" y="718" on="0"/>
      </contour>
    </TTGlyph>
    <TTGlyph name="s" xMin="32" yMin="-10" xMax="344" yMax="503">
      <contour>
        <pt x="177" y="-10" on="1"/>
        <pt x="125" y="-10" on="0"/>
        <pt x="49" y="18" on="0"/>
        <pt x="32" y="31" on="1"/>
        <pt x="41" y="124" on="1"/>
        <pt x="50" y="116" on="0"/>
        <pt x="79" y="99" on="0"/>
        <pt x="114" y="84" on="0"/>
        <pt x="153" y="74" on="0"/>
        <pt x="173" y="74" on="1"/>
        <pt x="213" y="74" on="0"/>
        <pt x="243" y="107" on="0"/>
        <pt x="243" y="133" on="1"/>
        <pt x="243" y="151" on="0"/>
        <pt x="230" y="176" on="0"/>
        <pt x="207" y="194" on="0"/>
        <pt x="178" y="206" on="0"/>
        <pt x="163" y="211" on="1"/>
        <pt x="140" y="218" on="0"/>
        <pt x="95" y="236" on="0"/>
        <pt x="59" y="267" on="0"/>
        <pt x="37" y="315" on="0"/>
        <pt x="37" y="352" on="1"/>
        <pt x="37" y="379" on="0"/>
        <pt x="53" y="433" on="0"/>
        <pt x="89" y="476" on="0"/>
        <pt x="150" y="503" on="0"/>
        <pt x="195" y="503" on="1"/>
        <pt x="237" y="503" on="0"/>
        <pt x="307" y="481" on="0"/>
        <pt x="325" y="469" on="1"/>
        <pt x="315" y="379" on="1"/>
        <pt x="298" y="397" on="0"/>
        <pt x="236" y="426" on="0"/>
        <pt x="201" y="426" on="1"/>
        <pt x="171" y="426" on="0"/>
        <pt x="127" y="396" on="0"/>
        <pt x="127" y="363" on="1"/>
        <pt x="127" y="346" on="0"/>
        <pt x="142" y="322" on="0"/>
        <pt x="168" y="306" on="0"/>
        <pt x="204" y="293" on="0"/>
        <pt x="225" y="286" on="1"/>
        <pt x="245" y="280" on="0"/>
        <pt x="287" y="260" on="0"/>
        <pt x="322" y="226" on="0"/>
        <pt x="344" y="175" on="0"/>
        <pt x="344" y="136" on="1"/>
        <pt x="344" y="112" on="0"/>
        <pt x="332" y="61" on="0"/>
        <pt x="296" y="18" on="0"/>
        <pt x="231" y="-10" on="0"/>
      </contour>
    </TTGlyph>
    <TTGlyph name="scaron" xMin="32" yMin="-10" xMax="344" yMax="743">
      <component glyphName="s" x="0" y="0" flags="0x204"/>
      <component glyphName="caron" x="-8" y="0" flags="0x4"/>
    </TTGlyph>
    <TTGlyph name="section" xMin="32" yMin="-84" xMax="361" yMax="750">
      <contour>
        <pt x="283" y="187" on="1"/>
        <pt x="306" y="159" on="0"/>
        <pt x="323" y="108" on="0"/>
        <pt x="323" y="73" on="1"/>
        <pt x="323" y="46" on="0"/>
        <pt x="309" y="-9" on="0"/>
        <pt x="276" y="-55" on="0"/>
        <pt x="220" y="-84" on="0"/>
        <pt x="177" y="-84" on="1"/>
        <pt x="159" y="-84" on="0"/>
        <pt x="122" y="-78" on="0"/>
        <pt x="88" y="-67" on="0"/>
        <pt x="61" y="-53" on="0"/>
        <pt x="54" y="-45" on="1"/>
        <pt x="62" y="33" on="1"/>
        <pt x="86" y="14" on="0"/>
        <pt x="147" y="-11" on="0"/>
        <pt x="174" y="-11" on="1"/>
        <pt x="205" y="-11" on="0"/>
        <pt x="254" y="23" on="0"/>
        <pt x="254" y="63" on="1"/>
        <pt x="254" y="96" on="0"/>
        <pt x="221" y="132" on="0"/>
        <pt x="172" y="157" on="0"/>
        <pt x="114" y="179" on="0"/>
        <pt x="65" y="217" on="0"/>
        <pt x="32" y="279" on="0"/>
        <pt x="32" y="331" on="1"/>
        <pt x="32" y="350" on="0"/>
        <pt x="38" y="393" on="0"/>
        <pt x="54" y="433" on="0"/>
        <pt x="85" y="468" on="0"/>
        <pt x="110" y="479" on="1"/>
        <pt x="87" y="505" on="0"/>
        <pt x="69" y="557" on="0"/>
        <pt x="69" y="586" on="1"/>
        <pt x="69" y="616" on="0"/>
        <pt x="83" y="675" on="0"/>
        <pt x="116" y="721" on="0"/>
        <pt x="173" y="750" on="0"/>
        <pt x="215" y="750" on="1"/>
        <pt x="233" y="750" on="0"/>
        <pt x="271" y="743" on="0"/>
        <pt x="305" y="731" on="0"/>
        <pt x="331" y="717" on="0"/>
        <pt x="339" y="710" on="1"/>
        <pt x="330" y="632" on="1"/>
        <pt x="306" y="651" on="0"/>
        <pt x="245" y="678" on="0"/>
        <pt x="219" y="678" on="1"/>
        <pt x="188" y="678" on="0"/>
        <pt x="140" y="636" on="0"/>
        <pt x="140" y="601" on="1"/>
        <pt x="140" y="571" on="0"/>
        <pt x="173" y="536" on="0"/>
        <pt x="222" y="510" on="0"/>
        <pt x="279" y="485" on="0"/>
        <pt x="328" y="445" on="0"/>
        <pt x="361" y="383" on="0"/>
        <pt x="361" y="332" on="1"/>
        <pt x="361" y="314" on="0"/>
        <pt x="355" y="274" on="0"/>
        <pt x="338" y="235" on="0"/>
        <pt x="307" y="200" on="0"/>
      </contour>
      <contour>
        <pt x="170" y="428" on="1"/>
        <pt x="162" y="428" on="0"/>
        <pt x="141" y="419" on="0"/>
        <pt x="122" y="399" on="0"/>
        <pt x="108" y="368" on="0"/>
        <pt x="108" y="346" on="1"/>
        <pt x="108" y="322" on="0"/>
        <pt x="131" y="284" on="0"/>
        <pt x="165" y="256" on="0"/>
        <pt x="207" y="236" on="0"/>
        <pt x="227" y="229" on="1"/>
        <pt x="236" y="232" on="0"/>
        <pt x="257" y="249" on="0"/>
        <pt x="273" y="274" on="0"/>
        <pt x="284" y="304" on="0"/>
        <pt x="284" y="320" on="1"/>
        <pt x="284" y="347" on="0"/>
        <pt x="260" y="385" on="0"/>
        <pt x="226" y="410" on="0"/>
        <pt x="186" y="424" on="0"/>
      </contour>
    </TTGlyph>
    <TTGlyph name="semicolon" xMin="50" yMin="-109" xMax="161" yMax="440">
      <contour>
        <pt x="51" y="339" on="1"/>
        <pt x="51" y="440" on="1"/>
        <pt x="161" y="440" on="1"/>
        <pt x="161" y="339" on="1"/>
      </contour>
      <contour>
        <pt x="72" y="-109" on="1"/>
        <pt x="50" y="-96" on="1"/>
        <pt x="79" y="-9" on="1"/>
        <pt x="51" y="0" on="1"/>
        <pt x="51" y="101" on="1"/>
        <pt x="152" y="101" on="1"/>
        <pt x="152" y="-1" on="1"/>
      </contour>
    </TTGlyph>
    <TTGlyph name="seven" xMin="37" yMin="0" xMax="431" yMax="700">
      <contour>
        <pt x="178" y="0" on="1"/>
        <pt x="69" y="0" on="1"/>
        <pt x="281" y="601" on="1"/>
        <pt x="37" y="601" on="1"/>
        <pt x="37" y="700" on="1"/>
        <pt x="431" y="700" on="1"/>
      </contour>
    </TTGlyph>
    <TTGlyph name="six" xMin="50" yMin="-14" xMax="447" yMax="700">
      <contour>
        <pt x="237" y="-14" on="1"/>
        <pt x="196" y="-14" on="0"/>
        <pt x="128" y="18" on="0"/>
        <pt x="78" y="82" on="0"/>
        <pt x="50" y="177" on="0"/>
        <pt x="50" y="241" on="1"/>
        <pt x="50" y="300" on="0"/>
        <pt x="76" y="413" on="0"/>
        <pt x="118" y="515" on="0"/>
        <pt x="172" y="601" on="0"/>
        <pt x="229" y="663" on="0"/>
        <pt x="285" y="699" on="0"/>
        <pt x="308" y="700" on="1"/>
        <pt x="377" y="658" on="1"/>
        <pt x="351" y="641" on="0"/>
        <pt x="281" y="584" on="0"/>
        <pt x="216" y="509" on="0"/>
        <pt x="167" y="418" on="0"/>
        <pt x="161" y="366" on="1"/>
        <pt x="179" y="396" on="0"/>
        <pt x="239" y="420" on="0"/>
        <pt x="265" y="420" on="1"/>
        <pt x="304" y="420" on="0"/>
        <pt x="371" y="393" on="0"/>
        <pt x="419" y="341" on="0"/>
        <pt x="447" y="266" on="0"/>
        <pt x="447" y="218" on="1"/>
        <pt x="447" y="168" on="0"/>
        <pt x="417" y="84" on="0"/>
        <pt x="363" y="21" on="0"/>
        <pt x="285" y="-14" on="0"/>
      </contour>
      <contour>
        <pt x="258" y="331" on="1"/>
        <pt x="213" y="331" on="0"/>
        <pt x="152" y="261" on="0"/>
        <pt x="152" y="200" on="1"/>
        <pt x="152" y="172" on="0"/>
        <pt x="169" y="127" on="0"/>
        <pt x="196" y="96" on="0"/>
        <pt x="231" y="80" on="0"/>
        <pt x="248" y="80" on="1"/>
        <pt x="295" y="80" on="0"/>
        <pt x="350" y="158" on="0"/>
        <pt x="350" y="216" on="1"/>
        <pt x="350" y="266" on="0"/>
        <pt x="306" y="331" on="0"/>
      </contour>
    </TTGlyph>
    <TTGlyph name="slash" xMin="18" yMin="-85" xMax="443" yMax="700">
      <contour>
        <pt x="126" y="-85" on="1"/>
        <pt x="18" y="-85" on="1"/>
        <pt x="334" y="700" on="1"/>
        <pt x="443" y="700" on="1"/>
      </contour>
    </TTGlyph>
    <TTGlyph name="sterling" xMin="28" yMin="0" xMax="427" yMax="711">
      <contour>
        <pt x="363" y="563" on="1"/>
        <pt x="352" y="592" on="0"/>
        <pt x="322" y="619" on="0"/>
        <pt x="296" y="619" on="1"/>
        <pt x="272" y="619" on="0"/>
        <pt x="246" y="603" on="0"/>
        <pt x="234" y="570" on="0"/>
        <pt x="231" y="519" on="0"/>
        <pt x="231" y="485" on="1"/>
        <pt x="231" y="399" on="1"/>
        <pt x="391" y="399" on="1"/>
        <pt x="372" y="307" on="1"/>
        <pt x="226" y="307" on="1"/>
        <pt x="224" y="273" on="0"/>
        <pt x="220" y="222" on="0"/>
        <pt x="213" y="177" on="0"/>
        <pt x="201" y="130" on="0"/>
        <pt x="191" y="99" on="1"/>
        <pt x="398" y="99" on="1"/>
        <pt x="398" y="0" on="1"/>
        <pt x="28" y="0" on="1"/>
        <pt x="52" y="35" on="0"/>
        <pt x="86" y="104" on="0"/>
        <pt x="109" y="178" on="0"/>
        <pt x="123" y="259" on="0"/>
        <pt x="127" y="307" on="1"/>
        <pt x="49" y="307" on="1"/>
        <pt x="67" y="399" on="1"/>
        <pt x="132" y="399" on="1"/>
        <pt x="132" y="507" on="1"/>
        <pt x="132" y="546" on="0"/>
        <pt x="143" y="619" on="0"/>
        <pt x="176" y="676" on="0"/>
        <pt x="237" y="711" on="0"/>
        <pt x="286" y="711" on="1"/>
        <pt x="339" y="711" on="0"/>
        <pt x="416" y="664" on="0"/>
        <pt x="427" y="622" on="1"/>
      </contour>
    </TTGlyph>
    <TTGlyph name="t" xMin="17" yMin="-10" xMax="278" yMax="621">
      <contour>
        <pt x="269" y="-10" on="1"/>
        <pt x="195" y="-10" on="1"/>
        <pt x="164" y="-10" on="0"/>
        <pt x="121" y="11" on="0"/>
        <pt x="94" y="45" on="0"/>
        <pt x="81" y="89" on="0"/>
        <pt x="81" y="112" on="1"/>
        <pt x="81" y="412" on="1"/>
        <pt x="17" y="412" on="1"/>
        <pt x="26" y="493" on="1"/>
        <pt x="81" y="493" on="1"/>
        <pt x="81" y="611" on="1"/>
        <pt x="180" y="621" on="1"/>
        <pt x="180" y="493" on="1"/>
        <pt x="278" y="493" on="1"/>
        <pt x="278" y="412" on="1"/>
        <pt x="180" y="412" on="1"/>
        <pt x="180" y="165" on="1"/>
        <pt x="180" y="132" on="0"/>
        <pt x="184" y="95" on="0"/>
        <pt x="198" y="77" on="0"/>
        <pt x="226" y="72" on="0"/>
        <pt x="251" y="72" on="1"/>
        <pt x="278" y="72" on="1"/>
      </contour>
    </TTGlyph>
    <TTGlyph name="thorn" xMin="50" yMin="-241" xMax="468" yMax="750">
      <contour>
        <pt x="258" y="-10" on="1"/>
        <pt x="222" y="-10" on="0"/>
        <pt x="171" y="18" on="0"/>
        <pt x="150" y="45" on="1"/>
        <pt x="150" y="-241" on="1"/>
        <pt x="50" y="-241" on="1"/>
        <pt x="50" y="750" on="1"/>
        <pt x="150" y="750" on="1"/>
        <pt x="150" y="451" on="1"/>
        <pt x="173" y="477" on="0"/>
        <pt x="224" y="503" on="0"/>
        <pt x="259" y="503" on="1"/>
        <pt x="310" y="503" on="0"/>
        <pt x="388" y="462" on="0"/>
        <pt x="441" y="391" on="0"/>
        <pt x="468" y="298" on="0"/>
        <pt x="468" y="246" on="1"/>
        <pt x="468" y="194" on="0"/>
        <pt x="441" y="101" on="0"/>
        <pt x="388" y="31" on="0"/>
        <pt x="309" y="-10" on="0"/>
      </contour>
      <contour>
        <pt x="251" y="415" on="1"/>
        <pt x="223" y="415" on="0"/>
        <pt x="182" y="390" on="0"/>
        <pt x="156" y="345" on="0"/>
        <pt x="144" y="283" on="0"/>
        <pt x="144" y="246" on="1"/>
        <pt x="144" y="209" on="0"/>
        <pt x="156" y="146" on="0"/>
        <pt x="182" y="99" on="0"/>
        <pt x="223" y="72" on="0"/>
        <pt x="251" y="72" on="1"/>
        <pt x="279" y="72" on="0"/>
        <pt x="322" y="98" on="0"/>
        <pt x="352" y="145" on="0"/>
        <pt x="367" y="208" on="0"/>
        <pt x="367" y="246" on="1"/>
        <pt x="367" y="322" on="0"/>
        <pt x="307" y="415" on="0"/>
      </contour>
    </TTGlyph>
    <TTGlyph name="three" xMin="32" yMin="-14" xMax="414" yMax="714">
      <contour>
        <pt x="194" y="-14" on="1"/>
        <pt x="165" y="-14" on="0"/>
        <pt x="111" y="-2" on="0"/>
        <pt x="67" y="15" on="0"/>
        <pt x="37" y="33" on="0"/>
        <pt x="32" y="39" on="1"/>
        <pt x="57" y="138" on="1"/>
        <pt x="80" y="115" on="0"/>
        <pt x="153" y="85" on="0"/>
        <pt x="191" y="85" on="1"/>
        <pt x="213" y="85" on="0"/>
        <pt x="256" y="97" on="0"/>
        <pt x="289" y="125" on="0"/>
        <pt x="309" y="174" on="0"/>
        <pt x="309" y="212" on="1"/>
        <pt x="309" y="236" on="0"/>
        <pt x="300" y="282" on="0"/>
        <pt x="274" y="318" on="0"/>
        <pt x="229" y="339" on="0"/>
        <pt x="192" y="339" on="1"/>
        <pt x="119" y="339" on="1"/>
        <pt x="127" y="423" on="1"/>
        <pt x="165" y="423" on="1"/>
        <pt x="200" y="423" on="0"/>
        <pt x="247" y="438" on="0"/>
        <pt x="275" y="467" on="0"/>
        <pt x="286" y="506" on="0"/>
        <pt x="286" y="530" on="1"/>
        <pt x="286" y="575" on="0"/>
        <pt x="242" y="620" on="0"/>
        <pt x="194" y="620" on="1"/>
        <pt x="162" y="620" on="0"/>
        <pt x="104" y="598" on="0"/>
        <pt x="87" y="582" on="1"/>
        <pt x="70" y="668" on="1"/>
        <pt x="83" y="682" on="0"/>
        <pt x="154" y="714" on="0"/>
        <pt x="207" y="714" on="1"/>
        <pt x="264" y="714" on="0"/>
        <pt x="337" y="678" on="0"/>
        <pt x="377" y="624" on="0"/>
        <pt x="392" y="560" on="0"/>
        <pt x="392" y="532" on="1"/>
        <pt x="392" y="490" on="0"/>
        <pt x="362" y="420" on="0"/>
        <pt x="330" y="388" on="1"/>
        <pt x="374" y="363" on="0"/>
        <pt x="414" y="269" on="0"/>
        <pt x="414" y="215" on="1"/>
        <pt x="414" y="157" on="0"/>
        <pt x="377" y="71" on="0"/>
        <pt x="315" y="14" on="0"/>
        <pt x="236" y="-14" on="0"/>
      </contour>
    </TTGlyph>
    <TTGlyph name="threequarters" xMin="86" yMin="-85" xMax="803" yMax="706">
      <component glyphName="threesuperior" x="42" y="0" flags="0x4"/>
      <component glyphName="slash" x="234" y="0" flags="0x4"/>
      <component glyphName="uni2074" x="509" y="-319" flags="0x4"/>
    </TTGlyph>
    <TTGlyph name="threesuperior" xMin="44" yMin="312" xMax="266" yMax="706">
      <contour>
        <pt x="138" y="312" on="1"/>
        <pt x="121" y="312" on="0"/>
        <pt x="90" y="319" on="0"/>
        <pt x="64" y="328" on="0"/>
        <pt x="47" y="338" on="0"/>
        <pt x="44" y="342" on="1"/>
        <pt x="64" y="416" on="1"/>
        <pt x="66" y="407" on="0"/>
        <pt x="110" y="392" on="0"/>
        <pt x="137" y="392" on="1"/>
        <pt x="163" y="392" on="0"/>
        <pt x="191" y="412" on="0"/>
        <pt x="191" y="440" on="1"/>
        <pt x="191" y="458" on="0"/>
        <pt x="174" y="495" on="0"/>
        <pt x="147" y="495" on="1"/>
        <pt x="94" y="495" on="1"/>
        <pt x="99" y="556" on="1"/>
        <pt x="127" y="556" on="1"/>
        <pt x="158" y="556" on="0"/>
        <pt x="176" y="584" on="0"/>
        <pt x="176" y="599" on="1"/>
        <pt x="176" y="616" on="0"/>
        <pt x="157" y="639" on="0"/>
        <pt x="126" y="639" on="1"/>
        <pt x="115" y="639" on="0"/>
        <pt x="91" y="634" on="0"/>
        <pt x="77" y="624" on="1"/>
        <pt x="66" y="681" on="1"/>
        <pt x="77" y="690" on="0"/>
        <pt x="119" y="706" on="0"/>
        <pt x="148" y="706" on="1"/>
        <pt x="180" y="706" on="0"/>
        <pt x="221" y="685" on="0"/>
        <pt x="244" y="653" on="0"/>
        <pt x="253" y="616" on="0"/>
        <pt x="253" y="600" on="1"/>
        <pt x="253" y="582" on="0"/>
        <pt x="241" y="539" on="0"/>
        <pt x="222" y="530" on="1"/>
        <pt x="242" y="514" on="0"/>
        <pt x="266" y="472" on="0"/>
        <pt x="266" y="439" on="1"/>
        <pt x="266" y="407" on="0"/>
        <pt x="244" y="359" on="0"/>
        <pt x="208" y="328" on="0"/>
        <pt x="162" y="312" on="0"/>
      </contour>
    </TTGlyph>
    <TTGlyph name="tilde" xMin="68" yMin="599" xMax="385" yMax="709">
      <contour>
        <pt x="286" y="599" on="1"/>
        <pt x="270" y="599" on="0"/>
        <pt x="240" y="614" on="0"/>
        <pt x="213" y="632" on="0"/>
        <pt x="188" y="647" on="0"/>
        <pt x="176" y="647" on="1"/>
        <pt x="156" y="647" on="0"/>
        <pt x="134" y="619" on="0"/>
        <pt x="130" y="599" on="1"/>
        <pt x="68" y="611" on="1"/>
        <pt x="71" y="636" on="0"/>
        <pt x="92" y="672" on="0"/>
        <pt x="121" y="695" on="0"/>
        <pt x="155" y="706" on="0"/>
        <pt x="171" y="706" on="1"/>
        <pt x="189" y="706" on="0"/>
        <pt x="218" y="691" on="0"/>
        <pt x="242" y="674" on="0"/>
        <pt x="265" y="659" on="0"/>
        <pt x="277" y="659" on="1"/>
        <pt x="297" y="659" on="0"/>
        <pt x="324" y="688" on="0"/>
        <pt x="329" y="709" on="1"/>
        <pt x="385" y="696" on="1"/>
        <pt x="379" y="654" on="0"/>
        <pt x="328" y="599" on="0"/>
      </contour>
    </TTGlyph>
    <TTGlyph name="trademark" xMin="31" yMin="337" xMax="590" yMax="700">
      <contour>
        <pt x="424" y="437" on="1"/>
        <pt x="356" y="586" on="1"/>
        <pt x="332" y="337" on="1"/>
        <pt x="267" y="337" on="1"/>
        <pt x="308" y="700" on="1"/>
        <pt x="347" y="700" on="1"/>
        <pt x="428" y="532" on="1"/>
        <pt x="508" y="700" on="1"/>
        <pt x="548" y="700" on="1"/>
        <pt x="590" y="337" on="1"/>
        <pt x="524" y="337" on="1"/>
        <pt x="501" y="586" on="1"/>
        <pt x="432" y="437" on="1"/>
      </contour>
      <contour>
        <pt x="260" y="640" on="1"/>
        <pt x="178" y="640" on="1"/>
        <pt x="178" y="337" on="1"/>
        <pt x="116" y="337" on="1"/>
        <pt x="116" y="640" on="1"/>
        <pt x="31" y="640" on="1"/>
        <pt x="31" y="700" on="1"/>
        <pt x="268" y="700" on="1"/>
      </contour>
    </TTGlyph>
    <TTGlyph name="two" xMin="41" yMin="0" xMax="406" yMax="714">
      <contour>
        <pt x="41" y="0" on="1"/>
        <pt x="97" y="94" on="0"/>
        <pt x="176" y="235" on="0"/>
        <pt x="230" y="340" on="0"/>
        <pt x="263" y="412" on="0"/>
        <pt x="280" y="463" on="0"/>
        <pt x="285" y="497" on="0"/>
        <pt x="285" y="510" on="1"/>
        <pt x="285" y="563" on="0"/>
        <pt x="239" y="619" on="0"/>
        <pt x="197" y="619" on="1"/>
        <pt x="169" y="619" on="0"/>
        <pt x="124" y="598" on="0"/>
        <pt x="90" y="568" on="0"/>
        <pt x="65" y="534" on="0"/>
        <pt x="58" y="521" on="1"/>
        <pt x="45" y="616" on="1"/>
        <pt x="50" y="626" on="0"/>
        <pt x="78" y="659" on="0"/>
        <pt x="121" y="691" on="0"/>
        <pt x="181" y="714" on="0"/>
        <pt x="219" y="714" on="1"/>
        <pt x="266" y="714" on="0"/>
        <pt x="330" y="679" on="0"/>
        <pt x="369" y="623" on="0"/>
        <pt x="385" y="556" on="0"/>
        <pt x="385" y="523" on="1"/>
        <pt x="385" y="488" on="0"/>
        <pt x="367" y="408" on="0"/>
        <pt x="327" y="306" on="0"/>
        <pt x="264" y="179" on="0"/>
        <pt x="220" y="99" on="1"/>
        <pt x="406" y="99" on="1"/>
        <pt x="406" y="0" on="1"/>
      </contour>
    </TTGlyph>
    <TTGlyph name="twosuperior" xMin="41" yMin="320" xMax="261" yMax="706">
      <contour>
        <pt x="41" y="320" on="1"/>
        <pt x="89" y="396" on="0"/>
        <pt x="143" y="492" on="0"/>
        <pt x="170" y="552" on="0"/>
        <pt x="176" y="582" on="0"/>
        <pt x="176" y="592" on="1"/>
        <pt x="176" y="615" on="0"/>
        <pt x="160" y="642" on="0"/>
        <pt x="142" y="642" on="1"/>
        <pt x="125" y="642" on="0"/>
        <pt x="98" y="627" on="0"/>
        <pt x="77" y="606" on="0"/>
        <pt x="64" y="585" on="0"/>
        <pt x="62" y="579" on="1"/>
        <pt x="52" y="651" on="1"/>
        <pt x="63" y="669" on="0"/>
        <pt x="115" y="706" on="0"/>
        <pt x="155" y="706" on="1"/>
        <pt x="183" y="706" on="0"/>
        <pt x="219" y="687" on="0"/>
        <pt x="241" y="657" on="0"/>
        <pt x="250" y="621" on="0"/>
        <pt x="250" y="605" on="1"/>
        <pt x="250" y="569" on="0"/>
        <pt x="214" y="473" on="0"/>
        <pt x="175" y="400" on="1"/>
        <pt x="261" y="400" on="1"/>
        <pt x="261" y="320" on="1"/>
      </contour>
    </TTGlyph>
    <TTGlyph name="u" xMin="46" yMin="-10" xMax="418" yMax="493">
      <contour>
        <pt x="326" y="0" on="1"/>
        <pt x="323" y="46" on="1"/>
        <pt x="283" y="-10" on="0"/>
        <pt x="222" y="-10" on="1"/>
        <pt x="127" y="-10" on="0"/>
        <pt x="46" y="105" on="0"/>
        <pt x="46" y="214" on="1"/>
        <pt x="46" y="493" on="1"/>
        <pt x="146" y="493" on="1"/>
        <pt x="146" y="230" on="1"/>
        <pt x="146" y="155" on="0"/>
        <pt x="187" y="78" on="0"/>
        <pt x="234" y="78" on="1"/>
        <pt x="287" y="78" on="0"/>
        <pt x="319" y="129" on="1"/>
        <pt x="319" y="493" on="1"/>
        <pt x="418" y="493" on="1"/>
        <pt x="418" y="0" on="1"/>
      </contour>
    </TTGlyph>
    <TTGlyph name="uacute" xMin="46" yMin="-10" xMax="418" yMax="738">
      <component glyphName="u" x="0" y="0" flags="0x204"/>
      <component glyphName="acute" x="107" y="0" flags="0x4"/>
    </TTGlyph>
    <TTGlyph name="ucircumflex" xMin="46" yMin="-10" xMax="418" yMax="747">
      <component glyphName="u" x="0" y="0" flags="0x204"/>
      <component glyphName="circumflex" x="46" y="0" flags="0x4"/>
    </TTGlyph>
    <TTGlyph name="udieresis" xMin="46" yMin="-10" xMax="418" yMax="700">
      <component glyphName="u" x="0" y="0" flags="0x204"/>
      <component glyphName="dieresis" x="56" y="0" flags="0x4"/>
    </TTGlyph>
    <TTGlyph name="ugrave" xMin="46" yMin="-10" xMax="418" yMax="738">
      <component glyphName="u" x="0" y="0" flags="0x204"/>
      <component glyphName="grave" x="107" y="0" flags="0x4"/>
    </TTGlyph>
    <TTGlyph name="underscore" xMin="-1" yMin="-125" xMax="481" yMax="-36">
      <contour>
        <pt x="-1" y="-125" on="1"/>
        <pt x="-1" y="-36" on="1"/>
        <pt x="481" y="-36" on="1"/>
        <pt x="481" y="-125" on="1"/>
      </contour>
    </TTGlyph>
    <TTGlyph name="uni00AD" xMin="58" yMin="230" xMax="325" yMax="324">
      <contour>
        <pt x="58" y="230" on="1"/>
        <pt x="58" y="324" on="1"/>
        <pt x="325" y="324" on="1"/>
        <pt x="325" y="230" on="1"/>
      </contour>
    </TTGlyph>
    <TTGlyph name="uni0237" xMin="-1" yMin="-242" xMax="153" yMax="493">
      <contour>
        <pt x="8" y="-242" on="1"/>
        <pt x="-1" y="-162" on="1"/>
        <pt x="17" y="-161" on="0"/>
        <pt x="38" y="-153" on="0"/>
        <pt x="49" y="-134" on="0"/>
        <pt x="53" y="-99" on="0"/>
        <pt x="53" y="-69" on="1"/>
        <pt x="53" y="493" on="1"/>
        <pt x="153" y="493" on="1"/>
        <pt x="153" y="-108" on="1"/>
        <pt x="153" y="-174" on="0"/>
        <pt x="95" y="-234" on="0"/>
        <pt x="44" y="-239" on="1"/>
      </contour>
    </TTGlyph>
    <TTGlyph name="uni2070" xMin="55" yMin="312" xMax="348" yMax="706">
      <contour>
        <pt x="199" y="312" on="1"/>
        <pt x="166" y="312" on="0"/>
        <pt x="113" y="340" on="0"/>
        <pt x="75" y="390" on="0"/>
        <pt x="55" y="461" on="0"/>
        <pt x="55" y="503" on="1"/>
        <pt x="55" y="548" on="0"/>
        <pt x="78" y="622" on="0"/>
        <pt x="118" y="676" on="0"/>
        <pt x="173" y="706" on="0"/>
        <pt x="205" y="706" on="1"/>
        <pt x="236" y="706" on="0"/>
        <pt x="289" y="677" on="0"/>
        <pt x="327" y="626" on="0"/>
        <pt x="348" y="554" on="0"/>
        <pt x="348" y="512" on="1"/>
        <pt x="348" y="468" on="0"/>
        <pt x="327" y="394" on="0"/>
        <pt x="288" y="341" on="0"/>
        <pt x="233" y="312" on="0"/>
      </contour>
      <contour>
        <pt x="204" y="635" on="1"/>
        <pt x="192" y="635" on="0"/>
        <pt x="166" y="620" on="0"/>
        <pt x="146" y="587" on="0"/>
        <pt x="133" y="537" on="0"/>
        <pt x="133" y="503" on="1"/>
        <pt x="133" y="439" on="0"/>
        <pt x="172" y="385" on="0"/>
        <pt x="199" y="385" on="1"/>
        <pt x="229" y="385" on="0"/>
        <pt x="272" y="442" on="0"/>
        <pt x="272" y="512" on="1"/>
        <pt x="272" y="576" on="0"/>
        <pt x="228" y="635" on="0"/>
      </contour>
    </TTGlyph>
    <TTGlyph name="uni2074" xMin="24" yMin="320" xMax="294" yMax="698">
      <contour>
        <pt x="252" y="423" on="1"/>
        <pt x="252" y="320" on="1"/>
        <pt x="174" y="320" on="1"/>
        <pt x="174" y="423" on="1"/>
        <pt x="24" y="423" on="1"/>
        <pt x="185" y="698" on="1"/>
        <pt x="252" y="698" on="1"/>
        <pt x="252" y="485" on="1"/>
        <pt x="294" y="485" on="1"/>
        <pt x="294" y="423" on="1"/>
      </contour>
      <contour>
        <pt x="174" y="583" on="1"/>
        <pt x="123" y="485" on="1"/>
        <pt x="174" y="485" on="1"/>
      </contour>
    </TTGlyph>
</ttFont>
